{"glyphs":{"0":{"ha":897,"x_min":76,"x_max":821,"o":"m 821 490 q 450 -14 821 -14 q 76 490 76 -14 q 450 992 76 992 q 821 490 821 992 m 703 490 q 644 794 703 693 q 450 894 585 894 q 254 794 314 894 q 194 490 194 693 q 254 186 194 289 q 450 83 314 83 q 644 186 585 83 q 703 490 703 289 z "},"1":{"ha":536,"x_min":21,"x_max":406,"o":"m 21 690 l 21 771 q 28 778 21 778 l 203 778 q 267 805 240 778 q 294 869 294 832 l 294 971 q 301 978 294 978 l 399 978 q 406 971 406 978 l 406 7 q 399 0 406 0 l 301 0 q 294 7 294 0 l 294 638 q 281 670 294 657 q 247 683 267 683 l 28 683 q 21 690 21 683 z "},"2":{"ha":733,"x_min":29,"x_max":676,"o":"m 53 704 q 140 916 53 840 q 361 992 228 992 q 592 911 507 992 q 676 706 676 831 q 522 422 676 563 l 190 110 q 188 102 186 107 q 194 97 189 97 l 668 97 q 675 90 675 97 l 675 7 q 668 0 675 0 l 36 0 q 29 7 29 0 l 29 93 q 36 104 29 97 l 440 494 q 565 703 565 610 q 513 835 565 775 q 361 894 460 894 q 222 841 278 894 q 164 704 165 788 q 157 697 164 697 l 60 697 q 53 704 53 697 z "},"3":{"ha":721,"x_min":28,"x_max":668,"o":"m 35 704 q 119 917 35 842 q 339 992 204 992 q 560 912 474 992 q 647 714 647 832 q 603 582 647 635 q 507 508 560 529 q 501 503 501 507 q 507 497 501 499 q 615 416 563 479 q 668 260 668 353 q 577 63 668 139 q 339 -14 486 -14 q 109 64 190 -14 q 28 271 28 142 q 35 278 28 278 l 132 278 q 139 271 139 278 q 192 137 139 190 q 339 83 244 83 q 497 131 438 83 q 557 260 557 179 q 494 399 557 346 q 339 451 431 451 l 278 451 q 271 458 271 451 l 271 542 q 278 549 271 549 l 339 549 q 483 593 428 549 q 539 714 539 638 q 483 840 539 786 q 339 894 426 894 q 201 843 256 894 q 146 704 146 792 q 139 697 146 697 l 42 697 q 35 704 35 697 z "},"4":{"ha":747,"x_min":17,"x_max":740,"o":"m 17 238 l 17 310 q 40 364 17 329 l 439 971 q 453 978 443 978 l 560 978 q 567 971 567 978 l 567 335 q 574 328 567 328 l 733 328 q 740 321 740 328 l 740 238 q 733 231 740 231 l 574 231 q 567 224 567 231 l 567 7 q 560 0 567 0 l 463 0 q 456 7 456 0 l 456 224 q 449 231 456 231 l 24 231 q 17 238 17 231 m 442 790 l 147 336 q 151 328 142 328 l 449 328 q 456 335 456 328 l 456 789 q 451 796 456 796 q 442 790 446 796 z "},"5":{"ha":789,"x_min":58,"x_max":735,"o":"m 656 881 l 235 881 q 225 872 226 881 l 190 614 q 194 605 189 607 q 203 607 200 603 q 408 679 275 679 q 643 583 551 679 q 735 335 735 488 q 641 80 735 174 q 394 -14 547 -14 q 240 15 308 -14 q 135 88 172 43 q 78 179 97 132 q 58 271 58 226 q 65 278 58 278 l 163 278 q 169 271 169 278 q 228 144 169 204 q 394 83 286 83 q 560 151 497 83 q 622 335 622 218 q 559 513 622 443 q 394 582 496 582 q 181 476 251 582 q 171 471 176 471 l 76 471 q 69 478 69 471 l 132 971 q 143 978 133 978 l 656 978 q 663 971 663 978 l 663 888 q 656 881 663 881 z "},"6":{"ha":775,"x_min":40,"x_max":729,"o":"m 447 969 l 283 663 q 283 658 282 660 q 286 655 283 656 q 293 656 289 654 q 404 678 349 678 q 637 581 544 678 q 729 331 729 483 q 637 82 729 178 q 383 -14 544 -14 q 132 82 224 -14 q 40 331 40 178 q 93 535 40 439 l 333 971 q 343 978 336 978 l 442 978 q 447 969 451 978 m 617 331 q 557 514 617 446 q 383 582 497 582 q 213 514 272 582 q 153 331 153 446 q 212 150 153 217 q 383 83 271 83 q 557 150 497 83 q 617 331 617 217 z "},"7":{"ha":672,"x_min":14,"x_max":642,"o":"m 642 971 l 642 896 q 638 872 642 881 l 306 7 q 297 0 303 0 l 193 0 q 188 7 185 0 l 518 872 q 513 881 522 881 l 21 881 q 14 888 14 881 l 14 971 q 21 978 14 978 l 635 978 q 642 971 642 978 z "},"8":{"ha":763,"x_min":51,"x_max":710,"o":"m 619 65 q 573 25 619 65 q 381 -14 528 -14 q 142 65 233 -14 q 51 265 51 143 q 106 422 51 363 q 214 499 160 481 q 217 503 217 500 q 214 507 217 506 q 184 523 203 511 q 138 559 165 535 q 91 628 110 583 q 72 726 72 672 q 158 917 72 843 q 381 992 244 992 q 603 917 517 992 q 689 726 689 843 q 670 628 689 672 q 623 559 651 583 q 577 523 594 535 q 547 507 560 511 q 544 503 544 506 q 547 499 544 500 q 656 415 601 475 q 710 265 710 356 q 619 65 710 143 m 223 134 q 253 109 223 134 q 381 83 283 83 q 538 134 478 83 q 599 265 599 185 q 537 403 599 353 q 381 453 475 453 q 224 402 285 453 q 163 265 163 351 q 223 134 163 185 m 183 726 q 239 599 183 649 q 381 550 294 550 q 522 599 467 550 q 578 726 578 649 q 523 846 578 797 q 381 894 468 894 q 238 846 293 894 q 183 726 183 797 z "},"9":{"ha":775,"x_min":44,"x_max":733,"o":"m 326 8 l 490 315 q 491 320 492 318 q 488 323 490 322 q 481 322 485 324 q 369 300 425 300 q 137 397 229 300 q 44 647 44 494 q 137 896 44 800 q 390 992 229 992 q 642 896 550 992 q 733 647 733 800 q 681 443 733 539 l 440 7 q 431 0 436 0 l 332 0 q 326 8 322 0 m 157 647 q 217 464 157 532 q 390 396 276 396 q 561 464 501 396 q 621 647 621 532 q 562 828 621 761 q 390 894 503 894 q 217 828 276 894 q 157 647 157 761 z "},"\u0000":{"ha":18,"x_min":0,"x_max":0,"o":""},"\t":{"ha":368,"x_min":0,"x_max":0,"o":""},"\n":{"ha":368,"x_min":0,"x_max":0,"o":""},"\r":{"ha":21,"x_min":0,"x_max":0,"o":""},"\u0010":{"ha":368,"x_min":0,"x_max":0,"o":""},"\u0011":{"ha":368,"x_min":0,"x_max":0,"o":""},"\u0012":{"ha":368,"x_min":0,"x_max":0,"o":""},"\u0013":{"ha":368,"x_min":0,"x_max":0,"o":""},"\u0014":{"ha":368,"x_min":0,"x_max":0,"o":""},"\u001e":{"ha":21,"x_min":0,"x_max":0,"o":""},"\u001f":{"ha":21,"x_min":0,"x_max":0,"o":""}," ":{"ha":306,"x_min":0,"x_max":0,"o":""},"!":{"ha":364,"x_min":99,"x_max":265,"o":"m 219 289 l 144 289 q 138 296 138 289 l 124 703 l 124 971 q 131 978 124 978 l 233 978 q 240 971 240 978 l 240 703 l 226 296 q 219 289 226 289 m 258 0 l 106 0 q 99 7 99 0 l 99 160 q 106 167 99 167 l 258 167 q 265 160 265 167 l 265 7 q 258 0 265 0 z "},"\"":{"ha":503,"x_min":88,"x_max":415,"o":"m 178 607 l 108 607 q 101 614 101 607 l 88 785 l 88 971 q 94 978 88 978 l 192 978 q 199 971 199 978 l 199 785 l 185 614 q 178 607 185 607 m 394 607 l 325 607 q 318 614 318 607 l 304 785 l 304 971 q 311 978 304 978 l 408 978 q 415 971 415 978 l 415 785 l 401 614 q 394 607 401 607 z "},"#":{"ha":924,"x_min":61,"x_max":863,"o":"m 269 406 l 304 558 q 296 567 306 567 l 128 567 q 121 574 121 567 l 121 658 q 128 665 121 665 l 319 665 q 329 674 328 665 l 396 954 q 406 964 397 964 l 488 964 q 494 954 496 964 l 429 674 q 438 665 428 665 l 578 665 q 590 674 589 665 l 657 954 q 669 964 660 964 l 742 964 q 749 954 751 964 l 683 674 q 690 665 681 665 l 856 665 q 863 658 863 665 l 863 574 q 856 567 863 567 l 664 567 q 654 558 656 567 l 619 407 q 628 399 618 399 l 793 399 q 800 392 800 399 l 800 307 q 793 300 800 300 l 601 300 q 592 292 594 300 l 529 10 q 519 0 528 0 l 443 0 q 436 10 435 0 l 499 292 q 493 300 500 300 l 349 300 q 339 292 340 300 l 276 10 q 265 0 275 0 l 189 0 q 182 10 181 0 l 243 292 q 236 300 244 300 l 68 300 q 61 307 61 300 l 61 392 q 68 399 61 399 l 261 399 q 269 406 268 399 m 553 567 l 414 567 q 401 558 403 567 l 367 408 q 375 399 364 399 l 514 399 q 524 406 522 399 l 558 558 q 553 567 561 567 z "},"$":{"ha":847,"x_min":49,"x_max":782,"o":"m 358 -132 l 358 -19 q 344 -8 358 -10 q 126 85 204 8 q 49 268 49 163 q 56 275 49 275 l 154 275 q 161 268 161 275 q 212 157 161 207 q 349 90 263 107 q 358 96 358 89 l 358 451 q 347 460 358 458 q 137 539 213 482 q 61 718 61 596 q 144 901 61 829 q 349 989 228 972 q 358 999 358 990 l 358 1107 q 364 1114 358 1114 l 451 1114 q 458 1107 458 1114 l 458 999 q 468 986 458 988 q 666 897 588 967 q 744 710 744 828 q 738 703 744 703 l 639 703 q 632 710 632 703 q 588 825 632 779 q 468 888 543 871 q 458 881 458 890 l 458 560 q 472 547 458 549 q 585 524 539 538 q 681 481 631 510 q 756 400 731 453 q 782 272 782 347 q 697 80 782 156 q 471 -11 613 4 q 458 -21 458 -12 l 458 -132 q 451 -139 458 -139 l 364 -139 q 358 -132 358 -139 m 669 272 q 616 393 669 354 q 467 447 563 432 q 458 440 458 449 l 458 94 q 469 88 458 85 q 613 149 557 101 q 669 272 669 197 m 174 718 q 213 620 174 660 q 350 561 251 581 q 358 568 358 560 l 358 883 q 349 890 358 892 q 224 831 274 878 q 174 718 174 783 z "},"%":{"ha":1126,"x_min":71,"x_max":1056,"o":"m 1056 261 q 851 -14 1056 -14 q 647 261 647 -14 q 851 538 647 538 q 1056 261 1056 538 m 976 261 q 947 412 976 363 q 851 461 918 461 q 756 412 785 461 q 726 261 726 363 q 756 112 726 161 q 851 63 785 63 q 947 112 918 63 q 976 261 976 161 m 479 715 q 275 440 479 440 q 71 715 71 440 q 275 992 71 992 q 479 715 479 992 m 400 715 q 371 866 400 817 q 275 915 342 915 q 179 866 208 915 q 150 715 150 817 q 179 566 150 615 q 275 517 208 517 q 371 566 342 517 q 400 715 400 615 m 233 11 l 821 972 q 829 978 824 978 l 890 978 q 896 967 903 978 l 307 7 q 296 0 303 0 l 239 0 q 233 11 226 0 z "},"&":{"ha":901,"x_min":61,"x_max":864,"o":"m 422 83 q 531 103 478 83 q 615 160 585 124 q 617 174 622 167 l 324 492 q 310 493 318 497 q 172 297 172 426 q 244 143 172 203 q 422 83 315 83 m 386 894 q 285 867 326 894 q 243 783 243 839 q 344 622 243 724 q 364 624 347 619 q 484 687 444 651 q 525 783 524 722 q 484 865 526 835 q 386 894 442 894 m 857 0 q 703 82 783 1 q 690 82 697 89 q 574 13 649 40 q 414 -14 499 -14 q 158 76 256 -14 q 61 292 61 165 q 115 463 61 392 q 243 569 169 533 q 246 583 254 575 q 165 683 192 638 q 139 783 139 729 q 205 933 139 874 q 386 992 271 992 q 562 928 494 992 q 629 783 629 865 q 611 694 629 733 q 559 626 593 654 q 496 582 525 599 q 424 547 467 565 q 419 536 414 542 l 674 258 q 688 267 682 250 q 700 353 700 303 l 700 469 q 707 476 700 476 l 804 476 q 811 469 811 476 l 811 381 q 767 179 811 246 q 768 165 761 172 l 788 146 q 854 111 822 111 q 864 104 864 111 l 864 7 q 857 0 864 0 z "},"'":{"ha":288,"x_min":88,"x_max":199,"o":"m 178 607 l 108 607 q 101 614 101 607 l 88 785 l 88 971 q 94 978 88 978 l 192 978 q 199 971 199 978 l 199 785 l 185 614 q 178 607 185 607 z "},"(":{"ha":421,"x_min":119,"x_max":408,"o":"m 404 971 q 224 351 224 689 q 404 -268 224 14 q 400 -275 408 -275 l 313 -275 q 303 -268 306 -275 q 172 22 225 -147 q 119 351 119 190 q 172 681 119 513 q 303 971 225 850 q 313 978 306 978 l 400 978 q 404 971 408 978 z "},")":{"ha":421,"x_min":13,"x_max":301,"o":"m 17 -268 q 197 351 197 14 q 17 971 197 689 q 21 978 13 978 l 108 978 q 118 971 114 978 q 249 681 196 850 q 301 351 301 513 q 249 22 301 190 q 118 -268 196 -147 q 108 -275 114 -275 l 21 -275 q 17 -268 13 -275 z "},"*":{"ha":572,"x_min":61,"x_max":511,"o":"m 326 897 l 318 804 q 326 797 318 794 l 410 836 l 479 858 q 488 854 486 861 l 508 790 q 504 781 511 783 l 435 758 l 342 739 q 339 725 328 736 l 401 658 l 443 599 q 442 590 449 593 l 388 551 q 378 553 382 546 l 335 611 l 293 683 q 279 683 286 693 l 238 611 l 194 553 q 186 551 190 547 l 131 590 q 129 599 126 593 l 172 658 l 233 725 q 228 740 246 736 l 138 758 l 69 781 q 64 790 61 783 l 85 854 q 93 858 86 861 l 163 836 l 246 797 q 253 798 250 796 q 256 804 257 800 l 246 897 l 246 971 q 253 978 246 978 l 319 978 q 326 971 326 978 l 326 897 z "},"+":{"ha":853,"x_min":75,"x_max":778,"o":"m 476 288 l 476 7 q 469 0 476 0 l 372 0 q 365 7 365 0 l 365 288 q 358 294 365 294 l 82 294 q 75 301 75 294 l 75 399 q 82 406 75 406 l 358 406 q 365 413 365 406 l 365 696 q 372 703 365 703 l 469 703 q 476 696 476 703 l 476 413 q 483 406 476 406 l 771 406 q 778 399 778 406 l 778 301 q 771 294 778 294 l 483 294 q 476 288 476 294 z "},",":{"ha":364,"x_min":99,"x_max":265,"o":"m 171 0 l 106 0 q 99 7 99 0 l 99 160 q 106 167 99 167 l 258 167 q 265 160 265 167 l 265 3 q 226 -121 265 -75 q 106 -167 188 -167 q 99 -160 99 -167 l 99 -100 q 106 -93 99 -93 q 160 -69 142 -93 q 178 -7 178 -44 q 171 0 178 0 z "},"-":{"ha":558,"x_min":76,"x_max":482,"o":"m 475 294 l 83 294 q 76 301 76 294 l 76 399 q 83 406 76 406 l 475 406 q 482 399 482 406 l 482 301 q 475 294 482 294 z "},".":{"ha":364,"x_min":99,"x_max":265,"o":"m 258 0 l 106 0 q 99 7 99 0 l 99 160 q 106 167 99 167 l 258 167 q 265 160 265 167 l 265 7 q 258 0 265 0 z "},"/":{"ha":729,"x_min":67,"x_max":664,"o":"m 658 968 l 185 4 q 178 0 183 0 l 76 0 q 71 10 67 0 l 544 974 q 551 978 547 978 l 653 978 q 658 968 664 978 z "},":":{"ha":364,"x_min":99,"x_max":265,"o":"m 258 536 l 106 536 q 99 543 99 536 l 99 696 q 106 703 99 703 l 258 703 q 265 696 265 703 l 265 543 q 258 536 265 536 m 258 0 l 106 0 q 99 7 99 0 l 99 160 q 106 167 99 167 l 258 167 q 265 160 265 167 l 265 7 q 258 0 265 0 z "},";":{"ha":365,"x_min":99,"x_max":267,"o":"m 172 0 l 107 0 q 100 7 100 0 l 100 160 q 107 167 100 167 l 260 167 q 267 160 267 167 l 267 3 q 228 -121 267 -75 q 107 -167 189 -167 q 100 -160 100 -167 l 100 -100 q 107 -93 100 -93 q 161 -69 143 -93 q 179 -7 179 -44 q 172 0 179 0 m 258 536 l 106 536 q 99 543 99 536 l 99 696 q 106 703 99 703 l 258 703 q 265 696 265 703 l 265 543 q 258 536 265 536 z "},"<":{"ha":711,"x_min":39,"x_max":672,"o":"m 665 589 l 151 357 q 147 350 147 356 q 151 343 147 344 l 665 113 q 672 104 672 110 l 672 6 q 665 1 672 -3 l 46 276 q 39 286 39 281 l 39 414 q 46 424 39 419 l 665 701 q 672 697 672 706 l 672 597 q 665 589 672 592 z "},"=":{"ha":782,"x_min":75,"x_max":707,"o":"m 700 143 l 82 143 q 75 150 75 143 l 75 247 q 82 254 75 254 l 700 254 q 707 247 707 254 l 707 150 q 700 143 707 143 m 700 450 l 82 450 q 75 457 75 450 l 75 554 q 82 561 75 561 l 700 561 q 707 554 707 561 l 707 457 q 700 450 707 450 z "},">":{"ha":711,"x_min":39,"x_max":672,"o":"m 560 357 l 46 589 q 39 597 39 592 l 39 697 q 46 701 39 706 l 665 424 q 672 414 672 419 l 672 286 q 665 276 672 281 l 46 1 q 39 6 39 -3 l 39 104 q 46 113 39 110 l 560 343 q 564 350 564 344 q 560 357 564 356 z "},"?":{"ha":710,"x_min":43,"x_max":671,"o":"m 43 707 q 128 910 43 828 q 349 992 213 992 q 585 914 500 992 q 671 708 671 836 q 660 622 671 658 q 624 559 650 586 q 577 517 597 532 q 511 474 557 501 q 442 432 465 447 q 406 375 406 408 l 406 297 q 399 290 406 290 l 301 290 q 294 297 294 290 l 294 386 q 318 463 294 432 q 393 524 342 493 q 530 619 500 585 q 560 708 560 654 q 505 841 560 788 q 349 894 450 894 q 213 844 272 894 q 153 706 153 794 q 146 697 153 697 l 50 697 q 43 707 43 697 m 426 0 l 274 0 q 267 7 267 0 l 267 160 q 274 167 267 167 l 426 167 q 433 160 433 167 l 433 7 q 426 0 433 0 z "},"@":{"ha":1476,"x_min":83,"x_max":1432,"o":"m 1072 -190 q 885 -259 999 -229 q 656 -289 771 -289 q 232 -140 381 -289 q 83 243 83 8 q 148 558 83 414 q 320 794 213 701 q 565 940 428 888 q 850 992 703 992 q 1284 813 1136 992 q 1379 356 1432 633 q 1319 167 1358 244 q 1234 52 1281 89 q 1147 1 1188 15 q 1064 -14 1106 -14 q 1035 -10 1049 -14 q 1012 -3 1021 -7 q 992 10 1003 0 q 977 24 982 19 q 964 41 972 28 q 953 58 956 54 q 944 77 951 63 q 936 93 936 92 q 924 94 931 104 q 819 16 888 46 q 675 -14 750 -14 q 435 92 506 -14 q 393 353 364 199 q 538 624 426 529 q 786 718 649 718 q 989 629 931 718 q 1001 629 996 618 l 1031 696 q 1040 703 1033 703 l 1118 703 q 1125 696 1126 703 l 1026 219 q 1081 76 996 76 q 1194 147 1138 76 q 1278 360 1250 218 q 1210 758 1326 610 q 825 907 1093 907 q 371 717 557 907 q 185 240 185 526 q 308 -80 185 42 q 658 -201 432 -201 q 1092 -94 875 -201 q 1099 -99 1100 -90 l 1081 -179 q 1072 -190 1079 -187 m 503 353 q 519 159 478 242 q 676 76 561 76 q 849 147 779 76 q 947 354 918 218 q 958 453 961 404 q 940 541 954 503 q 884 603 925 579 q 781 628 843 628 q 604 550 678 628 q 503 353 531 472 z "},"A":{"ha":829,"x_min":6,"x_max":824,"o":"m 625 221 l 204 221 q 194 214 197 221 l 128 7 q 118 0 125 0 l 15 0 q 8 7 6 0 l 329 971 q 338 978 332 978 l 492 978 q 500 971 497 978 l 821 7 q 814 0 824 0 l 711 0 q 701 7 704 0 l 635 214 q 625 221 632 221 m 599 325 l 421 875 q 415 881 419 881 q 408 875 411 881 l 231 325 q 235 318 229 318 l 594 318 q 599 325 600 318 z "},"B":{"ha":908,"x_min":115,"x_max":861,"o":"m 581 0 l 122 0 q 115 7 115 0 l 115 971 q 122 978 115 978 l 588 978 q 767 898 696 978 q 838 706 838 818 q 798 581 838 633 q 715 511 758 529 q 710 504 710 508 q 715 497 710 500 q 814 413 767 476 q 861 271 861 349 q 782 76 861 151 q 581 0 703 0 m 571 453 l 233 453 q 226 446 226 453 l 226 104 q 233 97 226 97 l 561 97 q 695 149 640 97 q 750 271 750 201 q 697 397 750 340 q 571 453 643 453 m 726 706 q 683 830 726 779 q 563 881 640 881 l 233 881 q 226 874 226 881 l 226 557 q 233 550 226 550 l 561 550 q 675 595 624 550 q 726 706 726 640 z "},"C":{"ha":918,"x_min":50,"x_max":874,"o":"m 760 278 q 769 285 763 285 l 867 285 q 874 278 874 285 q 851 201 874 247 q 784 106 828 156 q 662 21 740 56 q 488 -14 583 -14 q 165 124 281 -14 q 50 486 50 261 q 166 852 50 713 q 488 992 282 992 q 660 957 582 992 q 782 873 738 922 q 850 777 826 824 q 874 699 874 731 q 867 692 874 692 l 769 692 q 760 699 763 692 q 733 753 751 725 q 684 816 715 782 q 601 872 653 850 q 488 894 550 894 q 250 786 333 894 q 167 486 167 678 q 250 190 167 296 q 488 83 333 83 q 601 106 550 83 q 684 161 653 128 q 733 224 715 194 q 760 278 751 253 z "},"D":{"ha":961,"x_min":115,"x_max":910,"o":"m 476 0 l 122 0 q 115 7 115 0 l 115 971 q 122 978 115 978 l 476 978 q 799 842 688 978 q 910 479 910 706 q 800 126 910 253 q 476 0 690 0 m 476 881 l 233 881 q 226 874 226 881 l 226 104 q 233 97 226 97 l 476 97 q 709 195 626 97 q 792 479 792 293 q 708 773 792 665 q 476 881 625 881 z "},"E":{"ha":826,"x_min":115,"x_max":788,"o":"m 781 0 l 122 0 q 115 7 115 0 l 115 971 q 122 978 115 978 l 781 978 q 788 971 788 978 l 788 888 q 781 881 788 881 l 233 881 q 226 874 226 881 l 226 557 q 233 550 226 550 l 719 550 q 726 543 726 550 l 726 460 q 719 453 726 453 l 233 453 q 226 446 226 453 l 226 104 q 233 97 226 97 l 781 97 q 788 90 788 97 l 788 7 q 781 0 788 0 z "},"F":{"ha":761,"x_min":117,"x_max":749,"o":"m 221 0 l 124 0 q 117 7 117 0 l 117 971 q 124 978 117 978 l 742 978 q 749 971 749 978 l 749 888 q 742 881 749 881 l 235 881 q 228 874 228 881 l 228 557 q 235 550 228 550 l 679 550 q 686 543 686 550 l 686 460 q 679 453 686 453 l 235 453 q 228 446 228 453 l 228 7 q 221 0 228 0 z "},"G":{"ha":1004,"x_min":50,"x_max":911,"o":"m 803 392 l 803 432 q 796 439 803 439 l 496 439 q 489 446 489 439 l 489 529 q 496 536 489 536 l 904 536 q 911 529 911 536 l 911 6 q 904 0 911 0 l 828 0 q 817 10 818 0 l 803 115 q 790 118 800 131 q 666 25 749 64 q 489 -14 583 -14 q 164 124 278 -14 q 50 489 50 261 q 167 853 50 714 q 489 992 285 992 q 755 911 657 992 q 883 710 853 831 q 878 703 885 703 l 779 703 q 769 710 771 703 q 667 849 744 803 q 489 894 589 894 q 251 788 335 894 q 168 489 168 681 q 251 190 168 296 q 489 83 333 83 q 720 172 638 83 q 803 392 803 260 z "},"H":{"ha":947,"x_min":117,"x_max":829,"o":"m 822 0 l 725 0 q 718 7 718 0 l 718 446 q 711 453 718 453 l 235 453 q 228 446 228 453 l 228 7 q 221 0 228 0 l 124 0 q 117 7 117 0 l 117 971 q 124 978 117 978 l 221 978 q 228 971 228 978 l 228 557 q 235 550 228 550 l 711 550 q 718 557 718 550 l 718 971 q 725 978 718 978 l 822 978 q 829 971 829 978 l 829 7 q 822 0 829 0 z "},"I":{"ha":344,"x_min":115,"x_max":226,"o":"m 122 978 l 219 978 q 226 971 226 978 l 226 7 q 219 0 226 0 l 122 0 q 115 7 115 0 l 115 971 q 122 978 115 978 z "},"J":{"ha":649,"x_min":14,"x_max":554,"o":"m 124 278 q 128 210 124 238 q 147 149 132 182 q 195 100 161 117 q 282 83 229 83 q 369 99 335 83 q 418 144 403 115 q 438 201 433 174 q 443 268 443 229 l 443 971 q 450 978 443 978 l 547 978 q 554 971 554 978 l 554 268 q 497 60 554 133 q 282 -14 439 -14 q 74 62 135 -14 q 14 271 14 138 l 14 278 q 21 285 14 285 l 117 285 q 124 278 124 285 z "},"K":{"ha":835,"x_min":117,"x_max":850,"o":"m 842 0 l 728 0 q 715 8 721 0 l 382 515 q 374 515 379 521 l 236 379 q 228 361 228 371 l 228 7 q 221 0 228 0 l 124 0 q 117 7 117 0 l 117 971 q 124 978 117 978 l 221 978 q 228 971 228 978 l 228 533 q 231 529 228 531 q 238 531 235 528 l 688 972 q 700 978 693 978 l 828 978 q 832 975 831 978 q 831 969 833 972 l 464 607 q 463 592 457 600 l 846 8 q 842 0 850 0 z "},"L":{"ha":760,"x_min":117,"x_max":740,"o":"m 733 0 l 124 0 q 117 7 117 0 l 117 971 q 124 978 117 978 l 221 978 q 228 971 228 978 l 228 104 q 235 97 228 97 l 733 97 q 740 90 740 97 l 740 7 q 733 0 740 0 z "},"M":{"ha":1153,"x_min":115,"x_max":1035,"o":"m 122 978 l 317 978 q 326 971 324 978 l 568 106 q 572 99 569 101 q 578 99 575 97 q 582 106 581 101 l 824 971 q 833 978 826 978 l 1028 978 q 1035 971 1035 978 l 1035 7 q 1028 0 1035 0 l 931 0 q 924 7 924 0 l 924 871 q 915 876 924 878 q 910 871 911 874 l 667 6 q 658 0 665 0 l 492 0 q 483 6 485 0 l 240 871 q 235 876 239 875 q 229 876 232 878 q 226 871 226 874 l 226 7 q 219 0 226 0 l 122 0 q 115 7 115 0 l 115 971 q 122 978 115 978 z "},"N":{"ha":978,"x_min":117,"x_max":861,"o":"m 757 978 l 854 978 q 861 971 861 978 l 861 7 q 854 0 861 0 l 688 0 q 678 7 681 0 l 242 858 q 235 865 239 864 q 230 863 232 865 q 228 857 228 861 l 228 7 q 221 0 228 0 l 124 0 q 117 7 117 0 l 117 971 q 124 978 117 978 l 293 978 q 300 971 297 978 l 736 118 q 745 111 740 110 q 750 119 750 113 l 750 971 q 757 978 750 978 z "},"O":{"ha":978,"x_min":50,"x_max":926,"o":"m 489 -14 q 163 124 276 -14 q 50 489 50 261 q 163 854 50 717 q 489 992 276 992 q 813 854 700 992 q 926 489 926 717 q 813 124 926 261 q 489 -14 700 -14 m 251 190 q 292 136 251 190 q 489 83 333 83 q 726 190 644 83 q 808 489 808 296 q 726 788 808 682 q 489 894 643 894 q 251 788 333 894 q 168 489 168 682 q 251 190 168 296 z "},"P":{"ha":829,"x_min":115,"x_max":808,"o":"m 219 0 l 122 0 q 115 7 115 0 l 115 971 q 122 978 115 978 l 531 978 q 729 894 650 978 q 808 688 808 811 q 730 481 808 563 q 531 399 651 399 l 233 399 q 226 392 226 399 l 226 7 q 219 0 226 0 m 517 881 l 233 881 q 226 874 226 881 l 226 503 q 233 496 226 496 l 517 496 q 646 554 594 496 q 697 688 697 613 q 646 822 697 764 q 517 881 594 881 z "},"Q":{"ha":978,"x_min":50,"x_max":951,"o":"m 940 -65 l 829 -65 q 815 -58 822 -65 l 719 36 q 707 36 715 40 q 488 -14 615 -14 q 163 124 276 -14 q 50 489 50 261 q 163 854 50 717 q 489 992 276 992 q 813 854 700 992 q 926 489 926 717 q 794 101 926 233 q 794 90 789 96 l 943 -57 q 940 -65 951 -65 m 622 263 l 707 178 q 717 178 711 172 q 808 489 808 278 q 726 788 808 682 q 489 894 643 894 q 251 788 333 894 q 168 489 168 682 q 250 190 168 296 q 486 83 332 83 q 632 113 569 83 q 632 122 639 115 l 490 263 q 489 267 488 264 q 494 271 490 271 l 608 271 q 622 263 614 271 z "},"R":{"ha":861,"x_min":115,"x_max":825,"o":"m 219 0 l 122 0 q 115 7 115 0 l 115 971 q 122 978 115 978 l 531 978 q 729 894 650 978 q 808 688 808 811 q 763 528 808 599 q 640 418 718 457 q 640 410 638 417 l 821 7 q 815 0 825 0 l 719 0 q 707 7 711 0 l 535 392 q 525 399 531 399 l 233 399 q 226 392 226 399 l 226 7 q 219 0 226 0 m 517 881 l 233 881 q 226 874 226 881 l 226 503 q 233 496 226 496 l 518 496 q 647 554 596 496 q 697 688 697 613 q 646 822 697 764 q 517 881 594 881 z "},"S":{"ha":831,"x_min":49,"x_max":782,"o":"m 161 268 q 232 140 161 196 q 415 83 303 83 q 594 135 519 83 q 669 271 669 186 q 601 403 669 364 q 415 453 533 443 q 310 467 357 458 q 215 494 264 475 q 135 540 167 513 q 82 613 103 568 q 61 718 61 658 q 163 917 61 842 q 399 992 264 992 q 564 962 488 992 q 692 866 640 932 q 743 710 743 800 q 736 703 743 703 l 638 703 q 631 710 631 703 q 565 844 631 794 q 399 894 499 894 q 240 844 307 894 q 174 718 174 794 q 228 607 174 649 q 415 553 282 565 q 518 540 476 547 q 614 515 560 533 q 701 467 668 496 q 758 389 735 439 q 782 271 782 339 q 679 65 782 143 q 415 -14 576 -14 q 147 68 246 -14 q 49 268 49 150 q 56 275 49 275 l 154 275 q 161 268 161 275 z "},"T":{"ha":682,"x_min":-3,"x_max":685,"o":"m 285 7 l 285 874 q 278 881 285 881 l 4 881 q -3 888 -3 881 l -3 971 q 4 978 -3 978 l 678 978 q 685 971 685 978 l 685 888 q 678 881 685 881 l 403 881 q 396 874 396 881 l 396 7 q 389 0 396 0 l 292 0 q 285 7 285 0 z "},"U":{"ha":874,"x_min":93,"x_max":781,"o":"m 676 978 l 774 978 q 781 971 781 978 l 781 328 q 682 82 781 178 q 438 -14 583 -14 q 192 82 292 -14 q 93 328 93 178 l 93 971 q 100 978 93 978 l 197 978 q 204 971 204 978 l 204 328 q 272 153 204 224 q 438 83 340 83 q 602 153 535 83 q 669 328 669 224 l 669 971 q 676 978 669 978 z "},"V":{"ha":829,"x_min":6,"x_max":824,"o":"m 126 971 l 408 106 q 417 100 411 100 q 424 106 422 100 l 703 971 q 713 978 706 978 l 815 978 q 821 971 824 978 l 503 7 q 494 0 500 0 l 335 0 q 326 7 329 0 l 8 971 q 15 978 6 978 l 118 978 q 126 971 124 978 z "},"W":{"ha":1151,"x_min":10,"x_max":1142,"o":"m 676 971 l 850 107 q 853 101 850 103 q 860 101 857 99 q 864 107 864 103 l 1021 971 q 1032 978 1022 978 l 1135 978 q 1140 971 1142 978 l 950 7 q 940 0 949 0 l 772 0 q 763 7 764 0 l 582 872 q 575 878 581 878 q 568 872 569 878 l 388 7 q 379 0 386 0 l 211 0 q 201 7 203 0 l 11 971 q 17 978 10 978 l 119 978 q 131 971 129 978 l 288 107 q 291 101 288 103 q 298 101 294 99 q 301 107 301 103 l 474 971 q 483 978 475 978 l 667 978 q 676 971 675 978 z "},"X":{"ha":774,"x_min":-7,"x_max":781,"o":"m 319 496 l -1 969 q 3 978 -7 978 l 115 978 q 128 969 124 978 l 381 583 q 388 581 383 581 q 393 583 392 581 l 646 969 q 658 978 651 978 l 771 978 q 775 969 781 978 l 454 496 q 454 483 450 489 l 775 8 q 771 0 781 0 l 658 0 q 646 8 653 0 l 393 396 q 388 399 392 399 q 381 396 383 399 l 128 8 q 115 0 122 0 l 3 0 q -1 8 -7 0 l 319 483 q 319 496 324 489 z "},"Y":{"ha":757,"x_min":-15,"x_max":771,"o":"m -6 978 l 108 978 q 119 971 117 978 l 372 547 q 383 547 378 539 l 636 971 q 647 978 640 978 l 761 978 q 765 969 771 978 l 439 439 q 433 422 433 429 l 433 7 q 426 0 433 0 l 329 0 q 322 7 322 0 l 322 422 q 317 439 322 429 l -10 969 q -6 978 -15 978 z "},"Z":{"ha":747,"x_min":31,"x_max":717,"o":"m 31 888 l 31 971 q 36 978 31 978 l 710 978 q 717 971 717 978 l 717 890 q 710 875 717 886 l 169 108 q 174 97 161 97 l 710 97 q 717 90 717 97 l 717 7 q 710 0 717 0 l 38 0 q 31 7 31 0 l 31 88 q 38 103 31 93 l 578 869 q 578 877 581 874 q 572 881 576 881 l 38 881 q 31 888 31 881 z "},"[":{"ha":493,"x_min":147,"x_max":478,"o":"m 260 -192 l 471 -192 q 478 -197 478 -192 l 478 -268 q 471 -275 478 -275 l 154 -275 q 147 -268 147 -275 l 147 971 q 154 978 147 978 l 471 978 q 478 971 478 978 l 478 900 q 471 894 478 894 l 260 894 q 253 888 253 894 l 253 -185 q 260 -192 253 -192 z "},"\\":{"ha":729,"x_min":67,"x_max":664,"o":"m 544 4 l 71 968 q 76 978 67 978 l 178 978 q 185 974 183 978 l 658 10 q 653 0 664 0 l 551 0 q 544 4 547 0 z "},"]":{"ha":493,"x_min":15,"x_max":346,"o":"m 22 -192 l 233 -192 q 240 -185 240 -192 l 240 888 q 233 894 240 894 l 22 894 q 15 900 15 894 l 15 971 q 22 978 15 978 l 339 978 q 346 971 346 978 l 346 -268 q 339 -275 346 -275 l 22 -275 q 15 -268 15 -275 l 15 -197 q 22 -192 15 -192 z "},"^":{"ha":719,"x_min":61,"x_max":650,"o":"m 529 488 l 363 875 q 356 881 361 881 q 349 875 350 881 l 181 488 q 172 482 178 482 l 69 482 q 64 489 61 482 l 275 971 q 283 978 278 978 l 428 978 q 436 971 433 978 l 646 489 q 640 482 650 482 l 539 482 q 529 488 532 482 z "},"_":{"ha":733,"x_min":53,"x_max":681,"o":"m 674 0 l 60 0 q 53 7 53 0 l 53 90 q 60 97 53 97 l 674 97 q 681 90 681 97 l 681 7 q 674 0 681 0 z "},"`":{"ha":388,"x_min":83,"x_max":292,"o":"m 279 799 l 207 799 q 192 808 199 799 l 89 968 q 94 978 83 978 l 203 978 q 217 968 214 978 l 286 808 q 279 799 292 799 z "},"a":{"ha":788,"x_min":47,"x_max":753,"o":"m 75 467 q 157 652 75 588 q 369 717 239 717 q 593 653 514 717 q 672 464 672 589 l 672 181 q 688 116 672 135 q 743 97 704 97 l 746 97 q 753 90 753 97 l 753 7 q 746 0 753 0 l 740 0 q 634 18 669 0 q 579 79 599 36 q 574 83 578 82 q 568 81 571 83 q 558 68 565 76 q 530 45 550 60 q 483 18 510 31 q 414 -3 457 6 q 322 -14 371 -12 q 120 45 193 -14 q 47 201 47 104 q 124 356 47 299 q 339 413 200 413 l 497 413 q 547 422 532 413 q 561 465 561 432 q 556 517 561 496 q 535 565 551 539 q 476 606 518 592 q 369 619 435 619 q 186 467 186 619 q 179 460 186 460 l 82 460 q 75 467 75 460 m 561 285 l 561 308 q 554 315 561 315 l 346 315 q 158 201 158 315 q 201 119 158 154 q 322 83 244 83 q 501 144 442 83 q 561 285 561 206 z "},"b":{"ha":840,"x_min":114,"x_max":792,"o":"m 114 7 l 114 971 q 121 978 114 978 l 218 978 q 225 971 225 978 l 225 626 q 231 619 225 621 q 239 622 236 618 q 464 717 311 717 q 703 616 615 717 q 792 351 792 515 q 706 85 792 185 q 464 -14 619 -14 q 239 79 306 -14 q 234 83 238 82 q 228 82 231 83 q 225 76 225 81 l 211 7 q 203 0 210 0 l 121 0 q 114 7 114 0 m 618 157 q 649 194 618 157 q 681 351 681 231 q 618 546 681 472 q 447 619 556 619 q 282 547 339 619 q 225 351 225 475 q 283 156 225 229 q 447 83 340 83 q 618 157 556 83 z "},"c":{"ha":758,"x_min":49,"x_max":710,"o":"m 597 236 q 606 243 600 243 l 703 243 q 710 236 710 243 q 614 62 693 138 q 393 -14 535 -14 q 140 86 232 -14 q 49 351 49 186 q 140 617 49 517 q 393 717 232 717 q 615 640 535 717 q 708 467 694 563 q 701 460 708 460 l 604 460 q 596 467 599 460 q 393 619 554 619 q 223 545 285 619 q 161 351 161 471 q 223 157 161 231 q 393 83 285 83 q 597 236 554 83 z "},"d":{"ha":840,"x_min":47,"x_max":725,"o":"m 725 971 l 725 7 q 718 0 725 0 l 636 0 q 628 7 629 0 l 614 76 q 608 83 613 82 q 600 79 603 83 q 375 -14 533 -14 q 133 85 219 -14 q 47 351 47 185 q 135 616 47 515 q 375 717 224 717 q 600 622 528 717 q 608 619 603 618 q 614 626 614 621 l 614 971 q 621 978 614 978 l 718 978 q 725 971 725 978 m 221 546 q 190 509 221 546 q 158 351 158 472 q 221 157 158 231 q 392 83 283 83 q 556 156 499 83 q 614 351 614 229 q 557 547 614 475 q 392 619 500 619 q 221 546 283 619 z "},"e":{"ha":772,"x_min":50,"x_max":722,"o":"m 711 308 l 176 308 q 169 301 169 308 q 230 148 169 213 q 389 83 290 83 q 507 112 460 83 q 576 182 554 140 q 588 189 581 189 l 692 189 q 699 182 700 189 q 591 37 675 88 q 389 -14 507 -14 q 144 88 238 -14 q 50 351 50 189 q 142 617 50 517 q 389 717 233 717 q 633 616 543 717 q 722 351 722 515 q 711 308 722 308 m 603 411 q 549 555 603 490 q 389 619 494 619 q 228 551 288 619 q 169 411 169 482 q 176 406 169 406 l 596 406 q 603 411 603 406 z "},"f":{"ha":444,"x_min":-1,"x_max":422,"o":"m 6 703 l 135 703 q 142 710 142 703 l 142 797 q 333 978 142 978 l 415 978 q 422 971 422 978 l 422 888 q 415 881 422 881 l 336 881 q 253 797 253 881 l 253 710 q 260 703 253 703 l 415 703 q 422 696 422 703 l 422 613 q 415 606 422 606 l 260 606 q 253 599 253 606 l 253 7 q 246 0 253 0 l 149 0 q 142 7 142 0 l 142 599 q 135 606 142 606 l 6 606 q -1 613 -1 606 l -1 696 q 6 703 -1 703 z "},"g":{"ha":842,"x_min":49,"x_max":726,"o":"m 726 696 l 726 26 q 636 -204 726 -119 q 394 -289 546 -289 q 180 -228 267 -289 q 85 -82 93 -168 q 92 -75 85 -75 l 186 -75 q 196 -82 193 -75 q 258 -158 206 -124 q 394 -192 310 -192 q 565 -127 514 -192 q 615 32 615 -62 l 615 76 q 610 83 615 82 q 603 79 606 83 q 520 15 578 44 q 376 -14 463 -14 q 140 88 232 -14 q 49 351 49 189 q 139 615 49 514 q 376 717 229 717 q 603 622 508 717 q 615 625 611 614 l 629 694 q 638 703 631 703 l 719 703 q 726 696 726 703 m 222 546 q 191 509 222 546 q 160 351 160 472 q 222 157 160 231 q 393 83 285 83 q 558 156 501 83 q 615 351 615 228 q 558 547 615 474 q 393 619 501 619 q 222 546 285 619 z "},"h":{"ha":840,"x_min":114,"x_max":744,"o":"m 633 7 l 633 390 q 584 553 633 486 q 429 619 535 619 q 274 564 322 619 q 225 394 225 508 l 225 7 q 218 0 225 0 l 121 0 q 114 7 114 0 l 114 971 q 121 978 114 978 l 218 978 q 225 971 225 978 l 225 638 q 230 631 225 633 q 239 633 235 629 l 258 651 q 435 717 331 717 q 665 624 585 717 q 744 390 744 531 l 744 7 q 738 0 744 0 l 640 0 q 633 7 633 0 z "},"i":{"ha":342,"x_min":103,"x_max":239,"o":"m 122 703 l 219 703 q 226 696 226 703 l 226 7 q 219 0 226 0 l 122 0 q 115 7 115 0 l 115 696 q 122 703 115 703 m 110 978 l 232 978 q 239 971 239 978 l 239 849 q 232 842 239 842 l 110 842 q 103 849 103 842 l 103 971 q 110 978 103 978 z "},"j":{"ha":342,"x_min":-54,"x_max":239,"o":"m 226 696 l 226 -94 q 35 -275 226 -275 l -47 -275 q -54 -268 -54 -275 l -54 -185 q -47 -178 -54 -178 l 32 -178 q 94 -156 72 -178 q 115 -94 115 -133 l 115 696 q 122 703 115 703 l 219 703 q 226 696 226 703 m 110 978 l 232 978 q 239 971 239 978 l 239 849 q 232 842 239 842 l 110 842 q 103 849 103 842 l 103 971 q 110 978 103 978 z "},"k":{"ha":769,"x_min":114,"x_max":776,"o":"m 747 696 l 500 483 q 500 475 497 481 l 772 7 q 768 0 776 0 l 664 0 q 654 6 658 0 l 422 406 q 410 407 418 414 l 231 254 q 225 242 225 249 l 225 7 q 218 0 225 0 l 121 0 q 114 7 114 0 l 114 971 q 121 978 114 978 l 218 978 q 225 971 225 978 l 225 399 q 228 394 225 394 q 235 396 232 393 l 586 696 q 601 703 594 703 l 744 703 q 748 700 747 703 q 747 696 749 697 z "},"l":{"ha":342,"x_min":114,"x_max":225,"o":"m 121 978 l 218 978 q 225 971 225 978 l 225 7 q 218 0 225 0 l 121 0 q 114 7 114 0 l 114 971 q 121 978 114 978 z "},"m":{"ha":1242,"x_min":114,"x_max":1144,"o":"m 574 7 l 574 392 q 567 477 574 440 q 542 549 560 514 q 488 601 524 583 q 399 619 451 619 q 225 392 225 619 l 225 7 q 218 0 225 0 l 121 0 q 114 7 114 0 l 114 696 q 121 703 114 703 l 203 703 q 211 694 208 703 l 225 626 q 231 619 226 621 q 238 624 235 618 q 428 717 294 717 q 643 607 568 717 q 650 604 644 604 q 657 607 656 604 q 872 717 731 717 q 1079 635 1014 717 q 1144 393 1144 554 l 1144 7 q 1138 0 1144 0 l 1040 0 q 1033 7 1033 0 l 1033 392 q 858 619 1033 619 q 722 558 758 619 q 685 392 685 497 l 685 7 q 678 0 685 0 l 581 0 q 574 7 574 0 z "},"n":{"ha":840,"x_min":114,"x_max":744,"o":"m 633 7 l 633 379 q 584 551 633 483 q 429 619 535 619 q 225 371 225 619 l 225 7 q 218 0 225 0 l 121 0 q 114 7 114 0 l 114 696 q 121 703 114 703 l 203 703 q 211 696 210 703 l 225 626 q 231 619 226 621 q 238 624 235 618 q 265 656 244 638 q 336 696 286 675 q 446 717 386 717 q 672 626 599 717 q 744 379 744 535 l 744 7 q 738 0 744 0 l 640 0 q 633 7 633 0 z "},"o":{"ha":789,"x_min":50,"x_max":739,"o":"m 647 617 q 693 567 647 617 q 739 351 739 517 q 647 86 739 186 q 394 -14 554 -14 q 142 86 233 -14 q 50 351 50 186 q 142 618 50 518 q 394 718 233 718 q 647 617 554 718 m 565 157 q 597 194 565 157 q 628 351 628 231 q 565 546 628 472 q 394 619 503 619 q 224 546 286 619 q 161 351 161 472 q 224 157 161 231 q 394 83 286 83 q 565 157 503 83 z "},"p":{"ha":840,"x_min":114,"x_max":792,"o":"m 114 -268 l 114 696 q 121 703 114 703 l 203 703 q 211 696 210 703 l 225 626 q 231 620 226 621 q 239 624 236 619 q 464 717 306 717 q 706 617 619 717 q 792 351 792 518 q 703 87 792 188 q 464 -14 615 -14 q 239 81 311 -14 q 231 83 236 85 q 225 76 225 82 l 225 -268 q 218 -275 225 -275 l 121 -275 q 114 -268 114 -275 m 618 157 q 649 194 618 157 q 681 351 681 231 q 618 546 681 472 q 447 619 556 619 q 283 547 340 619 q 225 351 225 474 q 282 156 225 228 q 447 83 339 83 q 618 157 556 83 z "},"q":{"ha":840,"x_min":47,"x_max":725,"o":"m 725 696 l 725 -268 q 718 -275 725 -275 l 621 -275 q 614 -268 614 -275 l 614 76 q 608 83 614 82 q 600 81 603 85 q 375 -14 528 -14 q 135 87 224 -14 q 47 351 47 188 q 133 617 47 518 q 375 717 219 717 q 600 624 533 717 q 605 620 601 621 q 611 621 608 619 q 614 626 614 622 l 628 696 q 636 703 629 703 l 718 703 q 725 696 725 703 m 221 546 q 190 509 221 546 q 158 351 158 472 q 221 157 158 231 q 392 83 283 83 q 557 156 500 83 q 614 351 614 228 q 556 547 614 474 q 392 619 499 619 q 221 546 283 619 z "},"r":{"ha":517,"x_min":114,"x_max":501,"o":"m 114 7 l 114 696 q 121 703 114 703 l 203 703 q 211 696 210 703 l 225 626 q 231 619 226 621 q 239 624 235 618 q 432 717 311 717 l 494 717 q 501 710 501 717 l 501 614 q 494 607 501 607 l 436 607 q 275 552 325 607 q 225 382 225 497 l 225 7 q 218 0 225 0 l 121 0 q 114 7 114 0 z "},"s":{"ha":724,"x_min":44,"x_max":664,"o":"m 157 236 q 203 131 157 178 q 354 83 250 83 q 553 204 553 83 q 516 276 553 251 q 425 306 479 301 q 306 320 371 311 q 188 342 242 329 q 97 399 133 356 q 60 515 60 443 q 140 659 60 601 q 340 717 219 717 q 560 653 475 717 q 646 467 646 589 q 639 460 646 460 l 540 460 q 533 467 533 460 q 483 580 533 540 q 340 619 432 619 q 217 589 263 619 q 171 515 171 558 q 208 449 171 472 q 299 419 244 425 q 417 403 353 414 q 536 377 482 392 q 627 319 590 363 q 664 204 664 275 q 582 40 664 94 q 354 -14 500 -14 q 124 58 204 -14 q 44 236 44 131 q 51 243 44 243 l 150 243 q 157 236 157 243 z "},"t":{"ha":468,"x_min":0,"x_max":424,"o":"m 135 607 l 7 607 q 0 614 0 607 l 0 696 q 7 703 0 703 l 135 703 q 142 710 142 703 l 142 888 q 149 894 142 894 l 246 894 q 253 888 253 894 l 253 710 q 260 703 253 703 l 417 703 q 424 696 424 703 l 424 614 q 417 607 424 607 l 260 607 q 253 600 253 607 l 253 181 q 274 116 253 135 q 336 97 294 97 l 417 97 q 424 90 424 97 l 424 7 q 417 0 424 0 l 333 0 q 186 43 231 0 q 142 181 142 86 l 142 600 q 135 607 142 607 z "},"u":{"ha":840,"x_min":94,"x_max":725,"o":"m 206 696 l 206 324 q 255 151 206 219 q 410 83 304 83 q 614 332 614 83 l 614 696 q 621 703 614 703 l 718 703 q 725 696 725 703 l 725 7 q 718 0 725 0 l 636 0 q 628 7 629 0 l 614 76 q 608 83 613 82 q 601 79 604 85 q 574 47 594 65 q 503 7 553 28 q 393 -14 453 -14 q 167 77 240 -14 q 94 324 94 168 l 94 696 q 101 703 94 703 l 199 703 q 206 696 206 703 z "},"v":{"ha":654,"x_min":7,"x_max":639,"o":"m 331 103 l 519 696 q 529 703 522 703 l 631 703 q 636 696 639 703 l 404 7 q 396 0 401 0 l 250 0 q 242 7 244 0 l 10 696 q 15 703 7 703 l 117 703 q 126 696 124 703 l 317 103 q 324 97 319 97 q 331 103 328 97 z "},"w":{"ha":1011,"x_min":19,"x_max":983,"o":"m 592 694 l 728 103 q 736 94 731 94 q 744 103 742 94 l 872 694 q 881 703 874 703 l 975 703 q 982 694 983 703 l 819 7 q 811 0 817 0 l 663 0 q 654 7 657 0 l 511 599 q 503 606 510 606 q 496 599 497 606 l 351 7 q 343 0 349 0 l 194 0 q 186 7 189 0 l 22 694 q 29 703 19 703 l 124 703 q 133 694 132 703 l 261 103 q 269 94 264 94 q 278 103 275 94 l 413 694 q 422 703 414 703 l 582 703 q 592 694 589 703 z "},"x":{"ha":624,"x_min":-11,"x_max":635,"o":"m 318 438 l 513 696 q 524 703 518 703 l 625 703 q 629 694 635 703 l 379 354 q 379 340 374 347 l 629 7 q 630 3 631 6 q 625 0 629 0 l 518 0 q 507 7 511 0 l 318 256 q 304 256 311 265 l 115 7 q 104 0 111 0 l -1 0 q -6 7 -8 0 l 243 340 q 243 354 249 347 l -6 694 q -1 703 -11 703 l 99 703 q 110 696 104 703 l 304 438 q 318 438 311 428 z "},"y":{"ha":653,"x_min":1,"x_max":635,"o":"m 326 103 l 514 696 q 524 703 515 703 l 626 703 q 632 696 635 703 l 364 -99 q 293 -235 332 -196 q 169 -275 254 -275 l 14 -275 q 7 -268 7 -275 l 7 -186 q 14 -179 7 -179 l 161 -179 q 243 -117 224 -179 q 239 0 263 -56 l 4 696 q 10 703 1 703 l 113 703 q 122 696 121 703 l 311 103 q 319 97 314 97 q 326 103 325 97 z "},"z":{"ha":646,"x_min":46,"x_max":600,"o":"m 63 613 l 63 696 q 69 703 63 703 l 575 703 q 582 696 582 703 l 582 615 q 575 600 582 610 l 188 110 q 186 101 185 106 q 192 97 188 97 l 593 97 q 600 90 600 97 l 600 7 q 593 0 600 0 l 53 0 q 46 7 46 0 l 46 88 q 53 103 46 94 l 442 594 q 442 602 444 599 q 436 606 440 606 l 69 606 q 63 613 63 606 z "},"{":{"ha":553,"x_min":88,"x_max":490,"o":"m 490 -197 l 490 -268 q 483 -275 490 -275 l 407 -275 q 275 -233 314 -275 q 236 -110 236 -190 l 236 235 q 215 287 236 265 q 163 308 193 308 l 94 308 q 88 315 88 308 l 88 388 q 94 394 88 394 l 163 394 q 214 417 192 394 q 236 469 236 439 l 236 811 q 407 978 236 978 l 483 978 q 490 971 490 978 l 490 900 q 483 894 490 894 l 414 894 q 361 871 383 894 q 339 817 339 847 l 339 510 q 327 422 339 456 q 302 377 315 388 q 267 357 289 367 q 261 351 261 356 q 267 346 261 347 q 301 326 288 338 q 326 281 314 314 q 339 194 339 247 l 339 -114 q 361 -168 339 -144 q 414 -192 383 -192 l 483 -192 q 490 -197 490 -192 z "},"|":{"ha":264,"x_min":81,"x_max":183,"o":"m 176 -275 l 86 -275 q 81 -268 81 -275 l 81 971 q 86 978 81 978 l 176 978 q 183 971 183 978 l 183 -268 q 176 -275 183 -275 z "},"}":{"ha":553,"x_min":63,"x_max":464,"o":"m 63 -268 l 63 -197 q 69 -192 63 -192 l 139 -192 q 192 -168 169 -192 q 214 -114 214 -144 l 214 194 q 226 281 214 247 q 252 326 239 314 q 286 346 265 338 q 290 351 290 347 q 286 357 290 356 q 251 377 264 367 q 226 422 238 388 q 214 510 214 456 l 214 817 q 192 871 214 847 q 139 894 169 894 l 69 894 q 63 900 63 894 l 63 971 q 69 978 63 978 l 146 978 q 315 811 315 978 l 315 469 q 338 417 315 439 q 389 394 360 394 l 457 394 q 464 388 464 394 l 464 315 q 457 308 464 308 l 389 308 q 337 287 358 308 q 315 235 315 265 l 315 -110 q 277 -233 315 -190 q 146 -275 239 -275 l 69 -275 q 63 -268 63 -275 z "},"~":{"ha":761,"x_min":69,"x_max":690,"o":"m 513 289 q 378 324 471 289 q 249 360 285 360 q 197 331 226 360 l 158 292 q 149 292 153 286 l 75 357 q 75 367 69 361 l 117 411 q 249 469 172 469 q 382 434 289 469 q 513 399 475 399 q 564 428 535 399 l 603 467 q 613 467 608 472 l 685 400 q 685 390 690 396 l 643 346 q 513 289 589 289 z "},"":{"ha":368,"x_min":0,"x_max":0,"o":""}," ":{"ha":350,"x_min":0,"x_max":0,"o":""},"¡":{"ha":364,"x_min":99,"x_max":265,"o":"m 144 414 l 219 414 q 226 407 226 414 l 240 0 l 240 -268 q 233 -275 240 -275 l 131 -275 q 124 -268 124 -275 l 124 0 l 138 407 q 144 414 138 414 m 106 703 l 258 703 q 265 696 265 703 l 265 543 q 258 536 265 536 l 106 536 q 99 543 99 536 l 99 696 q 106 703 99 703 z "},"¢":{"ha":743,"x_min":49,"x_max":710,"o":"m 597 236 q 606 243 600 243 l 703 243 q 710 236 710 243 q 622 67 694 133 q 456 -10 550 1 q 443 -19 443 -11 l 443 -132 q 436 -139 443 -139 l 338 -139 q 332 -132 332 -139 l 332 -19 q 324 -10 332 -11 q 49 351 49 46 q 119 594 49 500 q 322 711 190 689 q 332 721 332 713 l 332 836 q 339 843 332 843 l 436 843 q 443 836 443 843 l 443 721 q 456 713 443 714 q 633 622 571 693 q 708 467 696 551 q 701 460 708 460 l 604 460 q 596 467 599 460 q 393 619 554 619 q 223 545 285 619 q 161 351 161 471 q 223 157 161 231 q 393 83 285 83 q 597 236 554 83 z "},"£":{"ha":814,"x_min":36,"x_max":764,"o":"m 764 704 q 757 697 764 697 l 660 697 q 653 704 653 697 q 603 844 653 793 q 469 894 553 894 q 340 842 385 894 q 296 714 296 790 l 296 557 q 303 550 296 550 l 464 550 q 471 543 471 550 l 471 460 q 464 453 471 453 l 303 453 q 296 446 296 453 l 296 182 q 279 107 296 131 q 278 101 276 104 q 285 97 281 97 l 647 97 q 654 104 654 97 l 654 276 q 661 283 654 283 l 757 283 q 764 276 764 283 l 764 7 q 757 0 764 0 l 43 0 q 36 7 36 0 l 36 90 q 42 97 36 94 l 94 97 q 160 119 136 97 q 185 181 185 140 l 185 446 q 178 453 185 453 l 43 453 q 36 460 36 453 l 36 543 q 43 550 36 550 l 178 550 q 185 557 185 550 l 185 714 q 261 913 185 833 q 469 992 338 992 q 684 917 604 992 q 764 704 764 843 z "},"¤":{"ha":890,"x_min":43,"x_max":847,"o":"m 615 293 q 647 330 615 293 q 678 488 678 367 q 615 682 678 608 q 444 756 553 756 q 274 682 336 756 q 211 488 211 608 q 274 293 211 367 q 444 219 336 219 q 615 293 553 219 m 124 92 l 50 165 q 50 175 43 169 l 146 271 q 147 282 151 276 q 100 486 100 369 q 147 689 100 603 q 146 701 151 696 l 50 799 q 50 808 43 803 l 124 882 q 133 882 128 889 l 221 793 q 236 790 229 785 q 444 851 328 851 q 650 792 567 851 q 668 793 660 785 l 757 882 q 767 882 761 889 l 840 808 q 840 799 847 803 l 743 701 q 742 688 738 696 q 789 486 789 596 q 740 281 789 367 q 743 271 738 276 l 840 175 q 840 165 847 169 l 767 92 q 757 92 761 85 l 667 181 q 650 181 660 188 q 444 121 567 121 q 235 181 319 121 q 222 181 228 186 l 133 92 q 124 92 128 85 z "},"¥":{"ha":756,"x_min":-15,"x_max":771,"o":"m -6 978 l 106 978 q 119 971 117 978 l 372 547 q 383 547 378 539 l 636 971 q 647 978 640 978 l 761 978 q 765 969 771 978 l 511 556 q 509 550 510 553 q 510 546 508 547 q 514 544 511 544 l 685 544 q 692 538 692 544 l 692 443 q 685 436 692 436 l 440 436 q 433 429 433 436 l 433 258 q 440 251 433 251 l 685 251 q 692 244 692 251 l 692 151 q 685 144 692 144 l 440 144 q 433 138 433 144 l 433 7 q 426 0 433 0 l 329 0 q 322 7 322 0 l 322 138 q 315 144 322 144 l 67 144 q 60 151 60 144 l 60 244 q 67 251 60 251 l 315 251 q 322 258 322 251 l 322 429 q 315 436 322 436 l 67 436 q 60 443 60 436 l 60 538 q 67 544 60 544 l 240 544 q 244 549 243 544 q 244 556 246 553 l -10 969 q -6 978 -15 978 z "},"¦":{"ha":261,"x_min":81,"x_max":181,"o":"m 174 407 l 86 407 q 81 414 81 407 l 81 971 q 86 978 81 978 l 174 978 q 181 971 181 978 l 181 414 q 174 407 181 407 m 174 -275 l 86 -275 q 81 -268 81 -275 l 81 289 q 86 296 81 296 l 174 296 q 181 289 181 296 l 181 -268 q 174 -275 181 -275 z "},"§":{"ha":875,"x_min":72,"x_max":803,"o":"m 72 406 q 103 535 72 481 q 188 618 135 590 q 190 629 194 622 q 161 750 161 672 q 239 920 161 849 q 435 992 317 992 q 651 915 567 992 q 735 710 735 839 q 728 703 735 703 l 629 703 q 622 710 622 703 q 572 842 622 790 q 435 894 522 894 q 318 848 361 894 q 275 750 275 801 q 433 593 275 636 l 500 575 q 591 547 554 560 q 672 512 628 535 q 741 463 715 489 q 785 394 767 436 q 803 300 803 353 q 770 169 803 225 q 685 86 738 114 q 682 75 674 83 q 714 -47 714 33 q 635 -217 714 -146 q 439 -289 557 -289 q 224 -212 308 -289 q 140 -7 140 -136 q 147 0 140 0 l 246 0 q 253 -7 253 0 q 302 -140 253 -87 q 439 -192 351 -192 q 557 -142 517 -192 q 597 -40 597 -92 q 442 111 597 67 q 377 131 421 118 q 311 150 333 143 q 251 171 289 157 q 192 198 213 185 q 144 232 171 211 q 105 276 118 253 q 82 333 92 300 q 72 406 72 367 m 439 225 q 594 165 536 203 q 613 164 604 160 q 690 294 690 211 q 668 369 690 338 q 601 423 646 401 q 524 455 557 444 q 435 479 490 465 q 279 542 340 501 q 261 542 271 549 q 185 410 185 490 q 202 347 185 375 q 242 301 219 319 q 303 267 264 283 q 369 244 343 251 q 439 225 394 236 z "},"¨":{"ha":589,"x_min":68,"x_max":508,"o":"m 75 978 l 197 978 q 204 971 204 978 l 204 849 q 197 842 204 842 l 75 842 q 68 849 68 842 l 68 971 q 75 978 68 978 m 379 978 l 501 978 q 508 971 508 978 l 508 849 q 501 842 508 842 l 379 842 q 372 849 372 842 l 372 971 q 379 978 372 978 z "},"©":{"ha":1140,"x_min":83,"x_max":1057,"o":"m 1057 490 q 914 144 1057 288 q 569 0 771 0 q 226 144 368 0 q 83 490 83 288 q 226 835 83 692 q 569 978 368 978 q 914 835 771 978 q 1057 490 1057 692 m 993 490 q 869 789 993 664 q 569 914 744 914 q 272 789 396 914 q 147 490 147 664 q 272 190 147 315 q 569 65 396 65 q 869 190 744 65 q 993 490 993 315 m 732 375 q 739 379 733 379 l 808 379 q 815 372 815 379 q 745 253 815 318 q 564 188 675 188 q 369 271 440 188 q 299 489 299 354 q 369 707 299 624 q 564 790 440 790 q 747 724 679 790 q 815 603 815 658 q 811 599 815 599 l 739 599 q 732 603 733 599 q 564 719 692 719 q 430 658 478 719 q 382 489 382 597 q 430 319 382 381 q 564 258 478 258 q 732 375 692 258 z "},"ª":{"ha":419,"x_min":25,"x_max":407,"o":"m 40 856 q 85 957 40 922 q 200 992 129 992 q 363 854 363 992 l 363 701 q 372 667 363 676 q 401 657 381 657 l 403 657 q 407 653 407 657 l 407 608 q 403 604 407 604 l 400 604 q 313 647 332 604 q 307 647 311 649 q 174 597 258 599 q 65 629 104 597 q 25 713 25 661 q 67 796 25 765 q 183 826 108 826 l 268 826 q 295 832 288 826 q 303 856 303 838 q 300 884 303 872 q 288 910 297 896 q 257 931 279 924 q 200 939 235 939 q 100 856 100 939 q 97 853 100 853 l 44 853 q 40 856 40 853 m 303 758 l 303 771 q 299 775 303 775 l 186 775 q 86 713 86 775 q 109 668 86 688 q 174 649 132 649 q 271 682 239 649 q 303 758 303 715 z "},"«":{"ha":733,"x_min":86,"x_max":646,"o":"m 396 582 l 200 358 q 200 346 194 353 l 397 121 q 399 115 400 119 q 393 111 397 111 l 299 111 q 288 115 292 111 l 92 346 q 92 358 86 353 l 288 588 q 296 592 290 592 l 390 592 q 397 588 394 592 q 396 582 399 585 m 642 582 l 446 358 q 446 346 439 353 l 643 121 q 644 115 646 119 q 639 111 643 111 l 544 111 q 533 115 538 111 l 338 346 q 338 358 331 353 l 533 588 q 542 592 536 592 l 636 592 q 642 588 640 592 q 642 582 644 585 z "},"¬":{"ha":860,"x_min":75,"x_max":776,"o":"m 776 400 l 776 7 q 769 0 776 0 l 674 0 q 667 7 667 0 l 667 292 q 660 299 667 299 l 82 299 q 75 306 75 299 l 75 400 q 82 407 75 407 l 769 407 q 776 400 776 407 z "},"­":{"ha":558,"x_min":76,"x_max":482,"o":"m 475 297 l 83 297 q 76 304 76 297 l 76 399 q 83 406 76 406 l 475 406 q 482 399 482 406 l 482 304 q 475 297 482 297 z "},"®":{"ha":1140,"x_min":83,"x_max":1057,"o":"m 1057 490 q 914 144 1057 288 q 569 0 771 0 q 226 144 368 0 q 83 490 83 288 q 226 835 83 692 q 569 978 368 978 q 914 835 771 978 q 1057 490 1057 692 m 993 490 q 869 789 993 664 q 569 914 744 914 q 272 789 396 914 q 147 490 147 664 q 272 190 147 315 q 569 65 396 65 q 869 190 744 65 q 993 490 993 315 m 340 203 l 340 775 q 347 782 340 782 l 635 782 q 755 730 704 782 q 806 604 806 678 q 779 509 806 551 q 708 447 753 467 q 705 442 706 446 q 706 438 704 439 l 811 204 q 806 196 815 196 l 740 196 q 726 203 731 196 l 631 424 q 621 429 629 429 l 424 429 q 419 425 419 429 l 419 203 q 413 196 419 196 l 347 196 q 340 203 340 196 m 625 711 l 426 711 q 419 704 419 711 l 419 507 q 426 500 419 500 l 628 500 q 697 531 667 500 q 726 604 726 563 q 696 679 726 647 q 625 711 665 711 z "},"¯":{"ha":461,"x_min":28,"x_max":433,"o":"m 426 825 l 35 825 q 28 832 28 825 l 28 910 q 35 917 28 917 l 426 917 q 433 910 433 917 l 433 832 q 426 825 433 825 z "},"°":{"ha":568,"x_min":63,"x_max":506,"o":"m 127 613 q 95 645 127 613 q 63 769 63 678 q 127 926 63 861 q 283 992 192 992 q 440 926 375 992 q 506 769 506 861 q 440 613 506 678 q 283 549 375 549 q 127 613 192 549 m 157 769 q 194 680 157 717 q 283 643 231 643 q 374 680 336 643 q 411 769 411 717 q 374 861 411 824 q 283 899 336 899 q 194 861 231 899 q 157 769 157 824 z "},"±":{"ha":853,"x_min":75,"x_max":778,"o":"m 476 563 l 476 282 q 469 275 476 275 l 372 275 q 365 282 365 275 l 365 563 q 358 569 365 569 l 82 569 q 75 576 75 569 l 75 674 q 82 681 75 681 l 358 681 q 365 688 365 681 l 365 971 q 372 978 365 978 l 469 978 q 476 971 476 978 l 476 688 q 483 681 476 681 l 771 681 q 778 674 778 681 l 778 576 q 771 569 778 569 l 483 569 q 476 563 476 569 m 771 0 l 82 0 q 75 7 75 0 l 75 104 q 82 111 75 111 l 771 111 q 778 104 778 111 l 778 7 q 771 0 778 0 z "},"²":{"ha":403,"x_min":25,"x_max":375,"o":"m 39 1097 q 86 1212 39 1171 q 204 1253 133 1253 q 329 1209 283 1253 q 375 1097 375 1165 q 292 944 375 1021 l 113 776 q 115 769 111 771 l 371 769 q 374 765 374 769 l 374 721 q 371 717 374 717 l 29 717 q 25 721 25 717 l 25 767 q 29 772 25 768 l 247 983 q 315 1096 315 1047 q 287 1167 315 1135 q 204 1200 258 1200 q 129 1171 160 1200 q 99 1097 99 1142 q 94 1093 99 1093 l 42 1093 q 39 1097 39 1093 z "},"³":{"ha":403,"x_min":28,"x_max":374,"o":"m 31 1097 q 76 1213 31 1172 q 196 1253 122 1253 q 315 1209 268 1253 q 363 1103 363 1165 q 339 1031 363 1060 q 286 992 315 1001 q 283 988 283 990 q 286 985 283 986 q 345 942 317 975 q 374 857 374 908 q 324 751 374 792 q 196 710 275 710 q 72 751 115 710 q 28 863 28 793 q 31 867 28 867 l 83 867 q 88 863 88 867 q 116 790 88 818 q 196 761 144 761 q 281 788 249 761 q 314 857 314 814 q 280 931 314 903 q 196 960 246 960 l 163 960 q 158 964 158 960 l 158 1010 q 163 1013 158 1013 l 196 1013 q 274 1037 244 1013 q 304 1103 304 1061 q 274 1171 304 1142 q 196 1200 243 1200 q 121 1172 150 1200 q 92 1097 92 1144 q 88 1093 92 1093 l 35 1093 q 31 1097 31 1093 z "},"´":{"ha":388,"x_min":86,"x_max":290,"o":"m 169 799 l 97 799 q 90 808 86 799 l 160 968 q 174 978 163 978 l 281 978 q 288 975 285 978 q 288 968 290 972 l 185 808 q 169 799 178 799 z "},"µ":{"ha":826,"x_min":92,"x_max":817,"o":"m 614 74 q 534 15 590 43 q 407 -14 478 -14 q 219 51 285 -14 q 211 53 217 54 q 206 46 206 51 l 206 -268 q 199 -275 206 -275 l 97 -275 q 92 -268 92 -275 l 92 696 q 99 703 92 703 l 199 703 q 206 696 206 703 l 206 343 q 407 86 206 86 q 607 343 607 86 l 607 696 q 614 703 607 703 l 714 703 q 721 696 721 703 l 721 167 q 782 100 721 100 l 810 100 q 817 93 817 100 l 817 7 q 810 0 817 0 l 782 0 q 629 74 665 0 q 614 74 624 83 z "},"¶":{"ha":718,"x_min":53,"x_max":638,"o":"m 313 -268 l 313 432 q 306 439 313 439 q 127 518 201 439 q 53 708 53 597 q 125 897 53 817 q 301 978 197 978 l 631 978 q 638 971 638 978 l 638 -268 q 631 -275 638 -275 l 536 -275 q 529 -268 529 -275 l 529 879 q 522 886 529 886 l 428 886 q 421 879 421 886 l 421 -268 q 414 -275 421 -275 l 319 -275 q 313 -268 313 -275 z "},"·":{"ha":364,"x_min":99,"x_max":265,"o":"m 258 406 l 106 406 q 99 413 99 406 l 99 565 q 106 572 99 572 l 258 572 q 265 565 265 572 l 265 413 q 258 406 265 406 z "},"¸":{"ha":375,"x_min":46,"x_max":314,"o":"m 174 18 l 275 18 q 278 10 286 18 l 194 -62 q 201 -74 183 -74 q 278 -100 243 -74 q 314 -176 314 -126 q 276 -256 314 -224 q 174 -289 239 -289 q 81 -256 115 -289 q 46 -176 46 -222 q 53 -169 46 -169 l 103 -169 q 110 -176 110 -169 q 127 -214 110 -194 q 174 -233 144 -233 q 222 -216 201 -233 q 242 -176 242 -199 q 215 -123 242 -142 q 164 -110 189 -104 q 143 -106 150 -112 l 128 -90 q 129 -75 121 -83 l 192 -11 q 194 -6 194 -8 q 192 -2 194 -4 q 186 0 190 0 l 174 0 q 165 8 165 0 q 174 18 165 18 z "},"¹":{"ha":338,"x_min":28,"x_max":236,"o":"m 28 1089 l 28 1133 q 32 1136 28 1136 l 126 1136 q 160 1151 146 1136 q 175 1186 175 1167 l 175 1240 q 179 1244 175 1244 l 232 1244 q 236 1240 236 1244 l 236 721 q 232 717 236 717 l 179 717 q 175 721 175 717 l 175 1061 q 168 1079 175 1072 q 150 1086 161 1086 l 32 1086 q 28 1089 28 1086 z "},"º":{"ha":426,"x_min":26,"x_max":399,"o":"m 399 794 q 349 651 399 704 q 213 597 300 597 q 76 651 126 597 q 26 794 26 706 q 76 938 26 883 q 213 992 126 992 q 349 938 300 992 q 399 794 399 883 m 306 689 q 322 709 306 689 q 339 794 339 729 q 306 899 339 860 q 213 939 272 939 q 121 899 154 939 q 88 794 88 860 q 121 689 88 729 q 213 649 154 649 q 306 689 272 649 z "},"»":{"ha":733,"x_min":88,"x_max":647,"o":"m 532 358 l 336 582 q 335 588 333 585 q 342 592 338 592 l 436 592 q 444 588 442 592 l 640 358 q 640 346 647 353 l 444 115 q 433 111 440 111 l 339 111 q 333 115 335 111 q 335 121 332 119 l 532 346 q 532 358 539 353 m 288 358 l 92 582 q 91 588 89 585 q 97 592 93 592 l 192 592 q 200 588 197 592 l 396 358 q 396 346 403 353 l 200 115 q 189 111 196 111 l 94 111 q 89 115 90 111 q 90 121 88 119 l 288 346 q 288 358 294 353 z "},"¼":{"ha":1032,"x_min":65,"x_max":921,"o":"m 65 822 l 65 867 q 69 869 65 869 l 164 869 q 198 885 183 869 q 213 919 213 900 l 213 974 q 217 978 213 978 l 269 978 q 274 974 274 978 l 274 454 q 269 450 274 450 l 217 450 q 213 454 213 450 l 213 794 q 205 813 213 806 q 188 819 197 819 l 69 819 q 65 822 65 819 m 150 11 l 738 972 q 746 978 740 978 l 807 978 q 813 967 819 978 l 224 7 q 213 0 219 0 l 156 0 q 150 11 143 0 m 529 128 l 529 167 q 543 196 529 178 l 758 524 q 765 528 760 528 l 824 528 q 826 524 826 528 l 826 181 q 831 176 826 176 l 917 176 q 921 174 921 176 l 921 128 q 917 125 921 125 l 831 125 q 826 121 826 125 l 826 4 q 824 0 826 0 l 771 0 q 767 4 767 0 l 767 121 q 763 125 767 125 l 533 125 q 529 128 529 125 m 760 426 l 600 182 q 603 176 597 176 l 763 176 q 767 181 767 176 l 767 426 q 760 426 765 431 z "},"½":{"ha":1054,"x_min":65,"x_max":951,"o":"m 65 822 l 65 867 q 69 869 65 869 l 164 869 q 198 885 183 869 q 213 919 213 900 l 213 974 q 217 978 213 978 l 269 978 q 274 974 274 978 l 274 454 q 269 450 274 450 l 217 450 q 213 454 213 450 l 213 794 q 205 813 213 806 q 188 819 197 819 l 69 819 q 65 822 65 819 m 615 381 q 663 495 615 454 q 781 536 710 536 q 906 492 860 536 q 951 381 951 449 q 868 228 951 304 l 689 60 q 692 53 688 54 l 947 53 q 950 49 950 53 l 950 4 q 947 0 950 0 l 606 0 q 601 4 601 0 l 601 50 q 603 53 601 51 q 606 57 606 56 l 824 267 q 892 379 892 331 q 863 451 892 418 q 781 483 835 483 q 706 454 736 483 q 675 381 675 425 q 671 376 675 376 l 618 376 q 615 381 615 376 m 140 11 l 728 972 q 736 978 731 978 l 797 978 q 803 967 810 978 l 214 7 q 203 0 210 0 l 146 0 q 140 11 133 0 z "},"¾":{"ha":1078,"x_min":56,"x_max":921,"o":"m 218 11 l 806 972 q 814 978 808 978 l 875 978 q 881 967 888 978 l 292 7 q 281 0 288 0 l 224 0 q 218 11 211 0 m 60 831 q 105 946 60 906 q 224 986 150 986 q 344 943 297 986 q 390 836 390 900 q 367 764 390 793 q 314 725 343 735 q 311 722 311 724 q 314 718 311 719 q 373 675 344 708 q 401 590 401 642 q 352 484 401 525 q 224 443 303 443 q 99 485 143 443 q 56 596 56 528 q 60 600 56 600 l 111 600 q 115 596 115 600 q 144 523 115 551 q 224 494 172 494 q 309 521 276 494 q 342 590 342 547 q 308 666 342 638 q 224 694 274 694 l 190 694 q 186 697 186 694 l 186 743 q 190 746 186 746 l 224 746 q 302 770 272 746 q 332 836 332 794 q 301 904 332 875 q 224 933 271 933 q 149 906 178 933 q 119 831 119 878 q 115 826 119 826 l 63 826 q 60 831 60 826 m 529 128 l 529 167 q 543 196 529 178 l 758 524 q 765 528 760 528 l 824 528 q 826 524 826 528 l 826 181 q 831 176 826 176 l 917 176 q 921 174 921 176 l 921 128 q 917 125 921 125 l 831 125 q 826 121 826 125 l 826 4 q 824 0 826 0 l 771 0 q 767 4 767 0 l 767 121 q 763 125 767 125 l 533 125 q 529 128 529 125 m 760 426 l 600 182 q 603 176 597 176 l 763 176 q 767 181 767 176 l 767 426 q 760 426 765 431 z "},"¿":{"ha":710,"x_min":39,"x_max":667,"o":"m 667 -4 q 582 -207 667 -125 q 361 -289 497 -289 q 124 -211 210 -289 q 39 -6 39 -133 q 49 81 39 44 q 86 144 60 117 q 133 186 113 171 q 199 228 153 201 q 268 271 244 256 q 304 328 304 294 l 304 406 q 311 413 304 413 l 408 413 q 415 406 415 413 l 415 317 q 392 240 415 271 q 317 179 368 210 q 180 83 210 118 q 150 -6 150 49 q 205 -138 150 -85 q 361 -192 260 -192 q 497 -142 438 -192 q 557 -3 557 -92 q 564 6 557 6 l 660 6 q 667 -4 667 6 m 283 703 l 436 703 q 443 696 443 703 l 443 543 q 436 536 443 536 l 283 536 q 276 543 276 536 l 276 696 q 283 703 276 703 z "},"À":{"ha":829,"x_min":6,"x_max":824,"o":"m 625 221 l 204 221 q 194 214 197 221 l 128 7 q 118 0 125 0 l 15 0 q 8 7 6 0 l 329 971 q 338 978 332 978 l 492 978 q 500 971 497 978 l 821 7 q 814 0 824 0 l 711 0 q 701 7 704 0 l 635 214 q 625 221 632 221 m 599 325 l 421 875 q 415 881 419 881 q 408 875 411 881 l 231 325 q 235 318 229 318 l 594 318 q 599 325 600 318 m 454 1072 l 382 1072 q 367 1082 374 1072 l 264 1242 q 269 1251 258 1251 l 378 1251 q 392 1242 389 1251 l 461 1082 q 454 1072 467 1072 z "},"Á":{"ha":829,"x_min":6,"x_max":824,"o":"m 625 221 l 204 221 q 194 214 197 221 l 128 7 q 118 0 125 0 l 15 0 q 8 7 6 0 l 329 971 q 338 978 332 978 l 492 978 q 500 971 497 978 l 821 7 q 814 0 824 0 l 711 0 q 701 7 704 0 l 635 214 q 625 221 632 221 m 599 325 l 421 875 q 415 881 419 881 q 408 875 411 881 l 231 325 q 235 318 229 318 l 594 318 q 599 325 600 318 m 461 1072 l 389 1072 q 382 1082 378 1072 l 451 1242 q 465 1251 454 1251 l 572 1251 q 579 1249 576 1251 q 579 1242 582 1246 l 476 1082 q 461 1072 469 1072 z "},"Â":{"ha":829,"x_min":6,"x_max":824,"o":"m 625 221 l 204 221 q 194 214 197 221 l 128 7 q 118 0 125 0 l 15 0 q 8 7 6 0 l 329 971 q 338 978 332 978 l 492 978 q 500 971 497 978 l 821 7 q 814 0 824 0 l 711 0 q 701 7 704 0 l 635 214 q 625 221 632 221 m 599 325 l 421 875 q 415 881 419 881 q 408 875 411 881 l 231 325 q 235 318 229 318 l 594 318 q 599 325 600 318 m 547 1072 l 474 1072 q 467 1076 469 1072 l 421 1158 q 414 1163 419 1163 q 407 1158 408 1163 l 363 1076 q 356 1072 361 1072 l 281 1072 q 274 1082 269 1072 l 346 1244 q 354 1251 349 1251 l 474 1251 q 482 1244 479 1251 l 554 1082 q 547 1072 558 1072 z "},"Ã":{"ha":829,"x_min":6,"x_max":824,"o":"m 625 221 l 204 221 q 194 214 197 221 l 128 7 q 118 0 125 0 l 15 0 q 8 7 6 0 l 329 971 q 338 978 332 978 l 492 978 q 500 971 497 978 l 821 7 q 814 0 824 0 l 711 0 q 701 7 704 0 l 635 214 q 625 221 632 221 m 599 325 l 421 875 q 415 881 419 881 q 408 875 411 881 l 231 325 q 235 318 229 318 l 594 318 q 599 325 600 318 m 200 1106 l 200 1129 q 233 1213 200 1174 q 331 1251 265 1251 q 425 1219 375 1251 q 496 1188 475 1188 q 526 1200 511 1188 q 540 1244 540 1213 q 547 1251 540 1251 l 621 1251 q 628 1244 628 1251 l 628 1219 q 594 1138 628 1176 q 496 1099 560 1099 q 402 1131 456 1099 q 331 1163 349 1163 q 301 1150 315 1163 q 286 1106 286 1138 q 279 1099 286 1099 l 207 1099 q 200 1106 200 1099 z "},"Ä":{"ha":829,"x_min":6,"x_max":824,"o":"m 625 221 l 204 221 q 194 214 197 221 l 128 7 q 118 0 125 0 l 15 0 q 8 7 6 0 l 329 971 q 338 978 332 978 l 492 978 q 500 971 497 978 l 821 7 q 814 0 824 0 l 711 0 q 701 7 704 0 l 635 214 q 625 221 632 221 m 599 325 l 421 875 q 415 881 419 881 q 408 875 411 881 l 231 325 q 235 318 229 318 l 594 318 q 599 325 600 318 m 200 1251 l 322 1251 q 329 1244 329 1251 l 329 1122 q 322 1115 329 1115 l 200 1115 q 193 1122 193 1115 l 193 1244 q 200 1251 193 1251 m 504 1251 l 626 1251 q 633 1244 633 1251 l 633 1122 q 626 1115 633 1115 l 504 1115 q 497 1122 497 1115 l 497 1244 q 504 1251 497 1251 z "},"Å":{"ha":829,"x_min":6,"x_max":824,"o":"m 500 1254 q 518 1236 500 1254 q 536 1168 536 1218 q 500 1083 536 1118 q 414 1047 464 1047 q 328 1083 364 1047 q 293 1168 293 1118 q 328 1254 293 1218 q 414 1290 364 1290 q 500 1254 464 1290 m 475 1168 q 457 1210 475 1193 q 414 1228 439 1228 q 371 1210 389 1228 q 353 1168 353 1193 q 371 1124 353 1142 q 414 1106 389 1106 q 457 1124 439 1106 q 475 1168 475 1142 m 625 221 l 204 221 q 194 214 197 221 l 128 7 q 118 0 125 0 l 15 0 q 8 7 6 0 l 329 971 q 338 978 332 978 l 492 978 q 500 971 497 978 l 821 7 q 814 0 824 0 l 711 0 q 701 7 704 0 l 635 214 q 625 221 632 221 m 599 325 l 421 875 q 415 881 419 881 q 408 875 411 881 l 231 325 q 235 318 229 318 l 594 318 q 599 325 600 318 z "},"Æ":{"ha":1319,"x_min":-4,"x_max":1282,"o":"m 1275 0 l 618 0 q 613 6 613 0 l 613 214 q 606 221 613 221 l 244 221 q 235 214 239 221 l 118 6 q 108 0 114 0 l 3 0 q 0 7 -4 0 l 542 971 q 554 978 546 978 l 1275 978 q 1282 971 1282 978 l 1282 888 q 1275 881 1282 881 l 731 881 q 724 874 724 881 l 724 551 q 731 544 724 544 l 1215 544 q 1222 538 1222 544 l 1222 454 q 1215 447 1222 447 l 731 447 q 724 440 724 447 l 724 104 q 731 97 724 97 l 1275 97 q 1282 90 1282 97 l 1282 7 q 1275 0 1282 0 m 613 325 l 613 875 q 606 879 613 883 q 603 876 604 879 l 297 325 q 301 318 294 318 l 607 318 q 613 325 613 318 z "},"Ç":{"ha":918,"x_min":50,"x_max":874,"o":"m 760 278 q 769 285 763 285 l 867 285 q 874 278 874 285 q 793 115 874 210 q 569 -6 713 21 q 553 -15 561 -7 l 500 -62 q 507 -74 489 -74 q 584 -100 549 -74 q 619 -176 619 -126 q 582 -256 619 -224 q 479 -289 544 -289 q 386 -256 421 -289 q 351 -176 351 -222 q 358 -169 351 -169 l 408 -169 q 415 -176 415 -169 q 433 -214 415 -194 q 479 -233 450 -233 q 527 -216 507 -233 q 547 -176 547 -199 q 521 -123 547 -142 q 469 -110 494 -104 q 449 -106 456 -112 l 433 -90 q 435 -75 426 -83 l 483 -25 q 486 -18 488 -22 q 476 -14 485 -14 q 167 126 283 -14 q 50 486 50 265 q 166 852 50 713 q 488 992 282 992 q 660 957 582 992 q 782 873 738 922 q 850 777 826 824 q 874 699 874 731 q 867 692 874 692 l 769 692 q 760 699 763 692 q 733 753 751 725 q 684 816 715 782 q 601 872 653 850 q 488 893 550 893 q 250 785 333 893 q 167 486 167 678 q 250 190 167 296 q 488 83 333 83 q 601 106 550 83 q 684 161 653 128 q 733 224 715 194 q 760 278 751 253 z "},"È":{"ha":826,"x_min":115,"x_max":788,"o":"m 781 0 l 122 0 q 115 7 115 0 l 115 971 q 122 978 115 978 l 781 978 q 788 971 788 978 l 788 888 q 781 881 788 881 l 233 881 q 226 874 226 881 l 226 557 q 233 550 226 550 l 719 550 q 726 543 726 550 l 726 460 q 719 453 726 453 l 233 453 q 226 446 226 453 l 226 104 q 233 97 226 97 l 781 97 q 788 90 788 97 l 788 7 q 781 0 788 0 m 499 1072 l 426 1072 q 411 1082 418 1072 l 308 1242 q 314 1251 303 1251 l 422 1251 q 436 1242 433 1251 l 506 1082 q 499 1072 511 1072 z "},"É":{"ha":826,"x_min":115,"x_max":788,"o":"m 781 0 l 122 0 q 115 7 115 0 l 115 971 q 122 978 115 978 l 781 978 q 788 971 788 978 l 788 888 q 781 881 788 881 l 233 881 q 226 874 226 881 l 226 557 q 233 550 226 550 l 719 550 q 726 543 726 550 l 726 460 q 719 453 726 453 l 233 453 q 226 446 226 453 l 226 104 q 233 97 226 97 l 781 97 q 788 90 788 97 l 788 7 q 781 0 788 0 m 485 1072 l 413 1072 q 406 1082 400 1072 l 475 1242 q 489 1251 478 1251 l 596 1251 q 603 1249 600 1251 q 603 1242 606 1246 l 500 1082 q 485 1072 493 1072 z "},"Ê":{"ha":826,"x_min":115,"x_max":788,"o":"m 781 0 l 122 0 q 115 7 115 0 l 115 971 q 122 978 115 978 l 781 978 q 788 971 788 978 l 788 888 q 781 881 788 881 l 233 881 q 226 874 226 881 l 226 557 q 233 550 226 550 l 719 550 q 726 543 726 550 l 726 460 q 719 453 726 453 l 233 453 q 226 446 226 453 l 226 104 q 233 97 226 97 l 781 97 q 788 90 788 97 l 788 7 q 781 0 788 0 m 586 1072 l 513 1072 q 506 1076 508 1072 l 460 1158 q 453 1163 458 1163 q 446 1158 447 1163 l 401 1076 q 394 1072 400 1072 l 319 1072 q 313 1082 308 1072 l 385 1244 q 393 1251 388 1251 l 513 1251 q 521 1244 518 1251 l 593 1082 q 586 1072 597 1072 z "},"Ë":{"ha":826,"x_min":115,"x_max":788,"o":"m 781 0 l 122 0 q 115 7 115 0 l 115 971 q 122 978 115 978 l 781 978 q 788 971 788 978 l 788 888 q 781 881 788 881 l 233 881 q 226 874 226 881 l 226 557 q 233 550 226 550 l 719 550 q 726 543 726 550 l 726 460 q 719 453 726 453 l 233 453 q 226 446 226 453 l 226 104 q 233 97 226 97 l 781 97 q 788 90 788 97 l 788 7 q 781 0 788 0 m 239 1251 l 361 1251 q 368 1244 368 1251 l 368 1122 q 361 1115 368 1115 l 239 1115 q 232 1122 232 1115 l 232 1244 q 239 1251 232 1251 m 543 1251 l 665 1251 q 672 1244 672 1251 l 672 1122 q 665 1115 672 1115 l 543 1115 q 536 1122 536 1115 l 536 1244 q 543 1251 536 1251 z "},"Ì":{"ha":344,"x_min":4,"x_max":226,"o":"m 122 978 l 219 978 q 226 971 226 978 l 226 7 q 219 0 226 0 l 122 0 q 115 7 115 0 l 115 971 q 122 978 115 978 m 200 1072 l 128 1072 q 113 1082 119 1072 l 10 1242 q 15 1251 4 1251 l 124 1251 q 138 1242 135 1251 l 207 1082 q 200 1072 211 1072 z "},"Í":{"ha":344,"x_min":115,"x_max":338,"o":"m 122 978 l 219 978 q 226 971 226 978 l 226 7 q 219 0 226 0 l 122 0 q 115 7 115 0 l 115 971 q 122 978 115 978 m 217 1072 l 144 1072 q 138 1082 133 1072 l 207 1242 q 221 1251 210 1251 l 328 1251 q 335 1249 332 1251 q 335 1242 338 1246 l 232 1082 q 217 1072 225 1072 z "},"Î":{"ha":344,"x_min":28,"x_max":317,"o":"m 122 978 l 219 978 q 226 971 226 978 l 226 7 q 219 0 226 0 l 122 0 q 115 7 115 0 l 115 971 q 122 978 115 978 m 306 1072 l 232 1072 q 225 1076 228 1072 l 179 1158 q 172 1163 178 1163 q 165 1158 167 1163 l 121 1076 q 114 1072 119 1072 l 39 1072 q 32 1082 28 1072 l 104 1244 q 113 1251 107 1251 l 232 1251 q 240 1244 238 1251 l 313 1082 q 306 1072 317 1072 z "},"Ï":{"ha":344,"x_min":-49,"x_max":392,"o":"m 122 978 l 219 978 q 226 971 226 978 l 226 7 q 219 0 226 0 l 122 0 q 115 7 115 0 l 115 971 q 122 978 115 978 m -42 1251 l 81 1251 q 88 1244 88 1251 l 88 1122 q 81 1115 88 1115 l -42 1115 q -49 1122 -49 1115 l -49 1244 q -42 1251 -49 1251 m 263 1251 l 385 1251 q 392 1244 392 1251 l 392 1122 q 385 1115 392 1115 l 263 1115 q 256 1122 256 1115 l 256 1244 q 263 1251 256 1251 z "},"Ð":{"ha":961,"x_min":6,"x_max":910,"o":"m 117 7 l 117 440 q 110 447 117 447 l 13 447 q 6 454 6 447 l 6 538 q 13 544 6 544 l 110 544 q 117 551 117 544 l 117 971 q 124 978 117 978 l 476 978 q 799 842 689 978 q 910 479 910 706 q 800 126 910 253 q 476 0 690 0 l 124 0 q 117 7 117 0 m 467 447 l 235 447 q 228 440 228 447 l 228 104 q 235 97 228 97 l 476 97 q 710 194 628 97 q 792 479 792 292 q 708 773 792 665 q 476 881 625 881 l 235 881 q 228 874 228 881 l 228 551 q 235 544 228 544 l 467 544 q 474 538 474 544 l 474 454 q 467 447 474 447 z "},"Ñ":{"ha":978,"x_min":117,"x_max":861,"o":"m 757 978 l 854 978 q 861 971 861 978 l 861 7 q 854 0 861 0 l 688 0 q 678 7 681 0 l 242 858 q 235 865 239 864 q 230 863 232 865 q 228 857 228 861 l 228 7 q 221 0 228 0 l 124 0 q 117 7 117 0 l 117 971 q 124 978 117 978 l 293 978 q 300 971 297 978 l 736 118 q 745 111 740 110 q 750 119 750 113 l 750 971 q 757 978 750 978 m 289 1106 l 289 1129 q 322 1213 289 1174 q 419 1251 354 1251 q 514 1219 464 1251 q 585 1188 564 1188 q 615 1200 600 1188 q 629 1244 629 1213 q 636 1251 629 1251 l 710 1251 q 717 1244 717 1251 l 717 1219 q 683 1138 717 1176 q 585 1099 649 1099 q 491 1131 544 1099 q 419 1163 438 1163 q 390 1150 404 1163 q 375 1106 375 1138 q 368 1099 375 1099 l 296 1099 q 289 1106 289 1099 z "},"Ò":{"ha":978,"x_min":50,"x_max":926,"o":"m 489 -14 q 163 124 276 -14 q 50 489 50 261 q 163 854 50 717 q 489 992 276 992 q 813 854 700 992 q 926 489 926 717 q 813 124 926 261 q 489 -14 700 -14 m 251 190 q 292 136 251 190 q 489 83 333 83 q 726 190 644 83 q 808 489 808 296 q 726 788 808 682 q 489 894 643 894 q 251 788 333 894 q 168 489 168 682 q 251 190 168 296 m 518 1072 l 446 1072 q 431 1082 438 1072 l 328 1242 q 333 1251 322 1251 l 442 1251 q 456 1242 453 1251 l 525 1082 q 518 1072 531 1072 z "},"Ó":{"ha":978,"x_min":50,"x_max":926,"o":"m 489 -14 q 163 124 276 -14 q 50 489 50 261 q 163 854 50 717 q 489 992 276 992 q 813 854 700 992 q 926 489 926 717 q 813 124 926 261 q 489 -14 700 -14 m 251 190 q 292 136 251 190 q 489 83 333 83 q 726 190 644 83 q 808 489 808 296 q 726 788 808 682 q 489 894 643 894 q 251 788 333 894 q 168 489 168 682 q 251 190 168 296 m 535 1072 l 463 1072 q 456 1082 450 1072 l 525 1242 q 539 1251 528 1251 l 646 1251 q 653 1249 650 1251 q 653 1242 656 1246 l 550 1082 q 535 1072 543 1072 z "},"Ô":{"ha":978,"x_min":50,"x_max":926,"o":"m 489 -14 q 163 124 276 -14 q 50 489 50 261 q 163 854 50 717 q 489 992 276 992 q 813 854 700 992 q 926 489 926 717 q 813 124 926 261 q 489 -14 700 -14 m 251 190 q 292 136 251 190 q 489 83 333 83 q 726 190 644 83 q 808 489 808 296 q 726 788 808 682 q 489 894 643 894 q 251 788 333 894 q 168 489 168 682 q 251 190 168 296 m 622 1072 l 549 1072 q 542 1076 544 1072 l 496 1158 q 489 1163 494 1163 q 482 1158 483 1163 l 438 1076 q 431 1072 436 1072 l 356 1072 q 349 1082 344 1072 l 421 1244 q 429 1251 424 1251 l 549 1251 q 557 1244 554 1251 l 629 1082 q 622 1072 633 1072 z "},"Õ":{"ha":978,"x_min":50,"x_max":926,"o":"m 489 -14 q 163 124 276 -14 q 50 489 50 261 q 163 854 50 717 q 489 992 276 992 q 813 854 700 992 q 926 489 926 717 q 813 124 926 261 q 489 -14 700 -14 m 251 190 q 292 136 251 190 q 489 83 333 83 q 726 190 644 83 q 808 489 808 296 q 726 788 808 682 q 489 894 643 894 q 251 788 333 894 q 168 489 168 682 q 251 190 168 296 m 275 1106 l 275 1129 q 308 1213 275 1174 q 406 1251 340 1251 q 500 1219 450 1251 q 571 1188 550 1188 q 601 1200 586 1188 q 615 1244 615 1213 q 622 1251 615 1251 l 696 1251 q 703 1244 703 1251 l 703 1219 q 669 1138 703 1176 q 571 1099 635 1099 q 477 1131 531 1099 q 406 1163 424 1163 q 376 1150 390 1163 q 361 1106 361 1138 q 354 1099 361 1099 l 282 1099 q 275 1106 275 1099 z "},"Ö":{"ha":978,"x_min":50,"x_max":926,"o":"m 489 -14 q 163 124 276 -14 q 50 489 50 261 q 163 854 50 717 q 489 992 276 992 q 813 854 700 992 q 926 489 926 717 q 813 124 926 261 q 489 -14 700 -14 m 251 190 q 292 136 251 190 q 489 83 333 83 q 726 190 644 83 q 808 489 808 296 q 726 788 808 682 q 489 894 643 894 q 251 788 333 894 q 168 489 168 682 q 251 190 168 296 m 275 1251 l 397 1251 q 404 1244 404 1251 l 404 1122 q 397 1115 404 1115 l 275 1115 q 268 1122 268 1115 l 268 1244 q 275 1251 268 1251 m 579 1251 l 701 1251 q 708 1244 708 1251 l 708 1122 q 701 1115 708 1115 l 579 1115 q 572 1122 572 1115 l 572 1244 q 579 1251 572 1251 z "},"×":{"ha":836,"x_min":69,"x_max":778,"o":"m 507 347 l 774 81 q 774 71 778 75 l 706 1 q 696 1 700 -3 l 428 268 q 418 268 422 272 l 151 1 q 142 1 147 -3 l 74 71 q 74 81 69 75 l 340 347 q 340 357 344 353 l 75 622 q 75 632 69 628 l 144 700 q 154 700 150 706 l 418 436 q 428 436 422 431 l 692 700 q 704 700 697 706 l 772 632 q 772 622 778 628 l 507 357 q 507 347 503 353 z "},"Ø":{"ha":978,"x_min":39,"x_max":926,"o":"m 918 867 l 856 804 q 856 793 851 800 q 926 489 926 651 q 813 124 926 261 q 489 -14 700 -14 q 175 110 299 -14 q 163 110 169 117 l 107 57 q 94 56 100 50 l 44 107 q 46 118 39 111 l 113 185 q 114 196 118 190 q 50 489 50 321 q 163 854 50 717 q 489 992 276 992 q 790 881 679 992 q 804 879 797 872 l 857 928 q 868 928 863 933 l 918 876 q 918 867 922 872 m 489 83 q 726 190 644 83 q 808 489 808 296 q 772 706 808 629 q 760 707 767 714 l 249 201 q 249 192 244 197 q 489 83 329 83 m 168 489 q 197 288 168 346 q 214 288 203 276 l 715 788 q 715 800 722 794 q 489 894 625 894 q 251 788 333 894 q 168 489 168 682 z "},"Ù":{"ha":874,"x_min":93,"x_max":781,"o":"m 676 978 l 774 978 q 781 971 781 978 l 781 328 q 682 82 781 178 q 438 -14 583 -14 q 192 82 292 -14 q 93 328 93 178 l 93 971 q 100 978 93 978 l 197 978 q 204 971 204 978 l 204 328 q 272 153 204 224 q 438 83 340 83 q 602 153 535 83 q 669 328 669 224 l 669 971 q 676 978 669 978 m 479 1072 l 407 1072 q 392 1082 399 1072 l 289 1242 q 294 1251 283 1251 l 403 1251 q 417 1242 414 1251 l 486 1082 q 479 1072 492 1072 z "},"Ú":{"ha":874,"x_min":93,"x_max":781,"o":"m 676 978 l 774 978 q 781 971 781 978 l 781 328 q 682 82 781 178 q 438 -14 583 -14 q 192 82 292 -14 q 93 328 93 178 l 93 971 q 100 978 93 978 l 197 978 q 204 971 204 978 l 204 328 q 272 153 204 224 q 438 83 340 83 q 602 153 535 83 q 669 328 669 224 l 669 971 q 676 978 669 978 m 481 1072 l 408 1072 q 401 1082 397 1072 l 471 1242 q 485 1251 474 1251 l 592 1251 q 599 1249 596 1251 q 599 1242 601 1246 l 496 1082 q 481 1072 489 1072 z "},"Û":{"ha":874,"x_min":93,"x_max":781,"o":"m 676 978 l 774 978 q 781 971 781 978 l 781 328 q 682 82 781 178 q 438 -14 583 -14 q 192 82 292 -14 q 93 328 93 178 l 93 971 q 100 978 93 978 l 197 978 q 204 971 204 978 l 204 328 q 272 153 204 224 q 438 83 340 83 q 602 153 535 83 q 669 328 669 224 l 669 971 q 676 978 669 978 m 571 1072 l 497 1072 q 490 1076 492 1072 l 444 1158 q 438 1163 442 1163 q 431 1158 433 1163 l 386 1076 q 379 1072 383 1072 l 304 1072 q 297 1082 292 1072 l 369 1244 q 378 1251 372 1251 l 497 1251 q 506 1244 503 1251 l 578 1082 q 571 1072 583 1072 z "},"Ü":{"ha":874,"x_min":93,"x_max":781,"o":"m 676 978 l 774 978 q 781 971 781 978 l 781 328 q 682 82 781 178 q 438 -14 583 -14 q 192 82 292 -14 q 93 328 93 178 l 93 971 q 100 978 93 978 l 197 978 q 204 971 204 978 l 204 328 q 272 153 204 224 q 438 83 340 83 q 602 153 535 83 q 669 328 669 224 l 669 971 q 676 978 669 978 m 224 1251 l 346 1251 q 353 1244 353 1251 l 353 1122 q 346 1115 353 1115 l 224 1115 q 217 1122 217 1115 l 217 1244 q 224 1251 217 1251 m 528 1251 l 650 1251 q 657 1244 657 1251 l 657 1122 q 650 1115 657 1115 l 528 1115 q 521 1122 521 1115 l 521 1244 q 528 1251 521 1251 z "},"Ý":{"ha":754,"x_min":-15,"x_max":771,"o":"m -6 978 l 108 978 q 119 971 117 978 l 372 547 q 383 547 378 539 l 636 971 q 647 978 640 978 l 761 978 q 765 969 771 978 l 439 439 q 433 422 433 429 l 433 7 q 426 0 433 0 l 329 0 q 322 7 322 0 l 322 422 q 317 439 322 429 l -10 969 q -6 978 -15 978 m 424 1072 l 351 1072 q 344 1082 339 1072 l 414 1242 q 428 1251 417 1251 l 535 1251 q 542 1249 539 1251 q 542 1242 544 1246 l 439 1082 q 424 1072 432 1072 z "},"Þ":{"ha":857,"x_min":115,"x_max":836,"o":"m 122 978 l 219 978 q 226 971 226 978 l 226 768 q 233 761 226 761 l 572 761 q 760 681 683 761 q 836 489 836 600 q 760 295 836 375 q 572 215 683 215 l 233 215 q 226 208 226 215 l 226 7 q 219 0 226 0 l 122 0 q 115 7 115 0 l 115 971 q 122 978 115 978 m 572 664 l 233 664 q 226 657 226 664 l 226 319 q 233 313 226 313 l 572 313 q 680 366 635 313 q 725 489 725 419 q 679 610 725 557 q 572 664 633 664 z "},"ß":{"ha":811,"x_min":114,"x_max":749,"o":"m 354 7 l 354 90 q 361 97 354 97 l 417 97 q 581 142 525 97 q 638 272 638 186 q 573 406 638 358 q 432 453 508 453 l 400 453 q 393 460 393 453 l 393 543 q 400 550 393 550 l 432 550 q 563 593 508 550 q 617 725 617 636 q 556 850 617 803 q 397 897 496 897 q 269 839 313 897 q 225 700 225 781 l 225 7 q 218 0 225 0 l 121 0 q 114 7 114 0 l 114 700 q 194 915 114 838 q 397 992 275 992 q 636 916 554 992 q 718 725 718 840 q 681 599 718 658 q 576 513 643 540 q 570 508 572 511 q 570 501 568 504 q 576 497 572 499 q 695 425 642 481 q 749 272 749 369 q 665 72 749 143 q 417 0 582 0 l 361 0 q 354 7 354 0 z "},"à":{"ha":788,"x_min":47,"x_max":753,"o":"m 75 467 q 157 652 75 588 q 369 717 239 717 q 593 653 514 717 q 672 464 672 589 l 672 181 q 688 116 672 135 q 743 97 704 97 l 746 97 q 753 90 753 97 l 753 7 q 746 0 753 0 l 740 0 q 634 18 669 0 q 579 79 599 36 q 574 83 578 82 q 568 81 571 83 q 558 68 565 76 q 530 45 550 60 q 483 18 510 31 q 414 -3 457 6 q 322 -14 371 -12 q 120 45 193 -14 q 47 201 47 104 q 124 356 47 299 q 339 413 200 413 l 497 413 q 547 422 532 413 q 561 465 561 432 q 556 517 561 496 q 535 565 551 539 q 476 606 518 592 q 369 619 435 619 q 186 467 186 619 q 179 460 186 460 l 82 460 q 75 467 75 460 m 561 285 l 561 308 q 554 315 561 315 l 346 315 q 158 201 158 315 q 201 119 158 154 q 322 83 244 83 q 501 144 442 83 q 561 285 561 206 m 411 799 l 339 799 q 324 808 331 799 l 221 968 q 226 978 215 978 l 335 978 q 349 968 346 978 l 418 808 q 411 799 422 799 z "},"á":{"ha":788,"x_min":47,"x_max":753,"o":"m 75 467 q 157 652 75 588 q 369 717 239 717 q 593 653 514 717 q 672 464 672 589 l 672 181 q 688 116 672 135 q 743 97 704 97 l 746 97 q 753 90 753 97 l 753 7 q 746 0 753 0 l 740 0 q 634 18 669 0 q 579 79 599 36 q 574 83 578 82 q 568 81 571 83 q 558 68 565 76 q 530 45 550 60 q 483 18 510 31 q 414 -3 457 6 q 322 -14 371 -12 q 120 45 193 -14 q 47 201 47 104 q 124 356 47 299 q 339 413 200 413 l 497 413 q 547 422 532 413 q 561 465 561 432 q 556 517 561 496 q 535 565 551 539 q 476 606 518 592 q 369 619 435 619 q 186 467 186 619 q 179 460 186 460 l 82 460 q 75 467 75 460 m 561 285 l 561 308 q 554 315 561 315 l 346 315 q 158 201 158 315 q 201 119 158 154 q 322 83 244 83 q 501 144 442 83 q 561 285 561 206 m 418 799 l 346 799 q 339 808 333 799 l 408 968 q 422 978 411 978 l 529 978 q 536 975 533 978 q 536 968 539 972 l 433 808 q 418 799 426 799 z "},"â":{"ha":788,"x_min":47,"x_max":753,"o":"m 75 467 q 157 652 75 588 q 369 717 239 717 q 593 653 514 717 q 672 464 672 589 l 672 181 q 688 116 672 135 q 743 97 704 97 l 746 97 q 753 90 753 97 l 753 7 q 746 0 753 0 l 740 0 q 634 18 669 0 q 579 79 599 36 q 574 83 578 82 q 568 81 571 83 q 558 68 565 76 q 530 45 550 60 q 483 18 510 31 q 414 -3 457 6 q 322 -14 371 -12 q 120 45 193 -14 q 47 201 47 104 q 124 356 47 299 q 339 413 200 413 l 497 413 q 547 422 532 413 q 561 465 561 432 q 556 517 561 496 q 535 565 551 539 q 476 606 518 592 q 369 619 435 619 q 186 467 186 619 q 179 460 186 460 l 82 460 q 75 467 75 460 m 561 285 l 561 308 q 554 315 561 315 l 346 315 q 158 201 158 315 q 201 119 158 154 q 322 83 244 83 q 501 144 442 83 q 561 285 561 206 m 518 799 l 444 799 q 438 803 439 799 l 392 885 q 385 889 389 889 q 378 885 381 889 l 333 803 q 326 799 331 799 l 251 799 q 244 808 239 799 l 317 971 q 325 978 319 978 l 444 978 q 453 971 450 978 l 525 808 q 518 799 531 799 z "},"ã":{"ha":788,"x_min":47,"x_max":753,"o":"m 75 467 q 157 652 75 588 q 369 717 239 717 q 593 653 514 717 q 672 464 672 589 l 672 181 q 688 116 672 135 q 743 97 704 97 l 746 97 q 753 90 753 97 l 753 7 q 746 0 753 0 l 740 0 q 634 18 669 0 q 579 79 599 36 q 574 83 578 82 q 568 81 571 83 q 558 68 565 76 q 530 45 550 60 q 483 18 510 31 q 414 -3 457 6 q 322 -14 371 -12 q 120 45 193 -14 q 47 201 47 104 q 124 356 47 299 q 339 413 200 413 l 497 413 q 547 422 532 413 q 561 465 561 432 q 556 517 561 496 q 535 565 551 539 q 476 606 518 592 q 369 619 435 619 q 186 467 186 619 q 179 460 186 460 l 82 460 q 75 467 75 460 m 561 285 l 561 308 q 554 315 561 315 l 346 315 q 158 201 158 315 q 201 119 158 154 q 322 83 244 83 q 501 144 442 83 q 561 285 561 206 m 171 832 l 171 856 q 203 939 171 900 q 301 978 236 978 q 396 946 346 978 q 467 914 446 914 q 497 926 482 914 q 511 971 511 939 q 518 978 511 978 l 592 978 q 599 971 599 978 l 599 946 q 565 864 599 903 q 467 825 531 825 q 373 857 426 825 q 301 889 319 889 q 272 876 286 889 q 257 832 257 864 q 250 825 257 825 l 178 825 q 171 832 171 825 z "},"ä":{"ha":788,"x_min":47,"x_max":753,"o":"m 75 467 q 157 652 75 588 q 369 717 239 717 q 593 653 514 717 q 672 464 672 589 l 672 181 q 688 116 672 135 q 743 97 704 97 l 746 97 q 753 90 753 97 l 753 7 q 746 0 753 0 l 740 0 q 634 18 669 0 q 579 79 599 36 q 574 83 578 82 q 568 81 571 83 q 558 68 565 76 q 530 45 550 60 q 483 18 510 31 q 414 -3 457 6 q 322 -14 371 -12 q 120 45 193 -14 q 47 201 47 104 q 124 356 47 299 q 339 413 200 413 l 497 413 q 547 422 532 413 q 561 465 561 432 q 556 517 561 496 q 535 565 551 539 q 476 606 518 592 q 369 619 435 619 q 186 467 186 619 q 179 460 186 460 l 82 460 q 75 467 75 460 m 561 285 l 561 308 q 554 315 561 315 l 346 315 q 158 201 158 315 q 201 119 158 154 q 322 83 244 83 q 501 144 442 83 q 561 285 561 206 m 160 978 l 282 978 q 289 971 289 978 l 289 849 q 282 842 289 842 l 160 842 q 153 849 153 842 l 153 971 q 160 978 153 978 m 464 978 l 586 978 q 593 971 593 978 l 593 849 q 586 842 593 842 l 464 842 q 457 849 457 842 l 457 971 q 464 978 457 978 z "},"å":{"ha":788,"x_min":47,"x_max":753,"o":"m 75 467 q 157 652 75 588 q 369 717 239 717 q 593 653 514 717 q 672 464 672 589 l 672 181 q 688 116 672 135 q 743 97 704 97 l 746 97 q 753 90 753 97 l 753 7 q 746 0 753 0 l 740 0 q 634 18 669 0 q 579 79 599 36 q 574 83 578 82 q 568 81 571 83 q 558 68 565 76 q 530 45 550 60 q 483 18 510 31 q 414 -3 457 6 q 322 -14 371 -12 q 120 45 193 -14 q 47 201 47 104 q 124 356 47 299 q 339 413 200 413 l 497 413 q 547 422 532 413 q 561 465 561 432 q 556 517 561 496 q 535 565 551 539 q 476 606 518 592 q 369 619 435 619 q 186 467 186 619 q 179 460 186 460 l 82 460 q 75 467 75 460 m 561 285 l 561 308 q 554 315 561 315 l 346 315 q 158 201 158 315 q 201 119 158 154 q 322 83 244 83 q 501 144 442 83 q 561 285 561 206 m 465 978 q 483 960 465 978 q 501 893 501 943 q 465 808 501 843 q 379 774 429 774 q 293 808 329 774 q 257 893 257 843 q 293 978 257 943 q 379 1013 329 1013 q 465 978 429 1013 m 422 851 q 431 859 422 851 q 440 893 440 868 q 422 935 440 918 q 379 953 404 953 q 336 935 354 953 q 318 893 318 918 q 336 851 318 868 q 379 833 354 833 q 422 851 404 833 z "},"æ":{"ha":1275,"x_min":47,"x_max":1226,"o":"m 74 472 q 156 653 74 589 q 368 717 238 717 q 628 608 564 717 q 640 607 632 599 q 892 717 747 717 q 1137 615 1047 717 q 1226 349 1226 514 q 1214 308 1226 308 l 681 308 q 674 301 674 308 q 733 147 674 211 q 892 83 793 83 q 1083 182 1029 83 q 1094 189 1086 189 l 1194 189 q 1203 182 1204 189 q 1093 37 1176 88 q 892 -14 1010 -14 q 624 115 715 -14 q 614 115 618 124 q 551 49 583 72 q 325 -14 467 -10 q 121 45 194 -14 q 47 201 47 104 q 123 351 47 297 q 339 406 199 406 l 500 406 q 547 417 532 406 q 561 461 561 428 q 556 515 561 493 q 534 565 551 538 q 475 606 517 592 q 368 619 433 619 q 185 472 188 619 q 178 465 185 465 l 81 465 q 74 472 74 465 m 561 281 q 561 286 561 282 q 546 308 558 307 l 344 308 q 157 201 157 308 q 201 118 157 153 q 324 83 244 83 q 501 142 443 83 q 561 281 558 200 m 1107 413 q 1052 556 1107 492 q 892 621 997 621 q 733 552 790 621 q 674 413 675 483 q 681 406 674 406 l 1100 406 q 1107 413 1107 406 z "},"ç":{"ha":758,"x_min":49,"x_max":710,"o":"m 597 236 q 606 243 600 243 l 703 243 q 710 236 710 243 q 631 76 694 146 q 443 -11 567 6 q 425 -18 431 -12 l 375 -62 q 382 -74 364 -74 q 459 -100 424 -74 q 494 -176 494 -126 q 457 -256 494 -224 q 354 -289 419 -289 q 261 -256 296 -289 q 226 -176 226 -222 q 233 -169 226 -169 l 283 -169 q 290 -176 290 -169 q 308 -214 290 -194 q 354 -233 325 -233 q 402 -216 382 -233 q 422 -176 422 -199 q 396 -123 422 -142 q 344 -110 369 -104 q 324 -106 331 -112 l 308 -90 q 310 -75 301 -83 l 354 -28 q 350 -12 368 -14 q 128 97 207 0 q 49 351 49 193 q 140 617 49 517 q 393 717 232 717 q 615 640 535 717 q 708 467 694 563 q 701 460 708 460 l 604 460 q 596 467 599 460 q 393 619 554 619 q 223 545 285 619 q 161 351 161 471 q 223 157 161 231 q 393 83 285 83 q 597 236 554 83 z "},"è":{"ha":771,"x_min":49,"x_max":721,"o":"m 710 308 l 175 308 q 168 301 168 308 q 228 148 168 213 q 388 83 289 83 q 506 112 458 83 q 575 182 553 140 q 586 189 578 189 l 690 189 q 697 182 699 189 q 590 37 674 88 q 388 -14 506 -14 q 142 88 236 -14 q 49 351 49 189 q 140 617 49 517 q 388 717 232 717 q 631 616 542 717 q 721 351 721 515 q 710 308 721 308 m 601 411 q 547 555 601 490 q 388 619 493 619 q 227 551 286 619 q 168 411 168 482 q 175 406 168 406 l 594 406 q 601 411 601 406 m 425 799 l 353 799 q 338 808 344 799 l 235 968 q 240 978 229 978 l 349 978 q 363 968 360 978 l 432 808 q 425 799 436 799 z "},"é":{"ha":771,"x_min":49,"x_max":721,"o":"m 710 308 l 175 308 q 168 301 168 308 q 228 148 168 213 q 388 83 289 83 q 506 112 458 83 q 575 182 553 140 q 586 189 578 189 l 690 189 q 697 182 699 189 q 590 37 674 88 q 388 -14 506 -14 q 142 88 236 -14 q 49 351 49 189 q 140 617 49 517 q 388 717 232 717 q 631 616 542 717 q 721 351 721 515 q 710 308 721 308 m 601 411 q 547 555 601 490 q 388 619 493 619 q 227 551 286 619 q 168 411 168 482 q 175 406 168 406 l 594 406 q 601 411 601 406 m 418 799 l 346 799 q 339 808 333 799 l 408 968 q 422 978 411 978 l 529 978 q 536 975 533 978 q 536 968 539 972 l 433 808 q 418 799 426 799 z "},"ê":{"ha":771,"x_min":49,"x_max":721,"o":"m 710 308 l 175 308 q 168 301 168 308 q 228 148 168 213 q 388 83 289 83 q 506 112 458 83 q 575 182 553 140 q 586 189 578 189 l 690 189 q 697 182 699 189 q 590 37 674 88 q 388 -14 506 -14 q 142 88 236 -14 q 49 351 49 189 q 140 617 49 517 q 388 717 232 717 q 631 616 542 717 q 721 351 721 515 q 710 308 721 308 m 601 411 q 547 555 601 490 q 388 619 493 619 q 227 551 286 619 q 168 411 168 482 q 175 406 168 406 l 594 406 q 601 411 601 406 m 518 799 l 444 799 q 438 803 439 799 l 392 885 q 385 889 389 889 q 378 885 381 889 l 333 803 q 326 799 331 799 l 251 799 q 244 808 239 799 l 317 971 q 325 978 319 978 l 444 978 q 453 971 450 978 l 525 808 q 518 799 531 799 z "},"ë":{"ha":771,"x_min":49,"x_max":721,"o":"m 710 308 l 175 308 q 168 301 168 308 q 228 148 168 213 q 388 83 289 83 q 506 112 458 83 q 575 182 553 140 q 586 189 578 189 l 690 189 q 697 182 699 189 q 590 37 674 88 q 388 -14 506 -14 q 142 88 236 -14 q 49 351 49 189 q 140 617 49 517 q 388 717 232 717 q 631 616 542 717 q 721 351 721 515 q 710 308 721 308 m 601 411 q 547 555 601 490 q 388 619 493 619 q 227 551 286 619 q 168 411 168 482 q 175 406 168 406 l 594 406 q 601 411 601 406 m 172 978 l 294 978 q 301 971 301 978 l 301 849 q 294 842 301 842 l 172 842 q 165 849 165 842 l 165 971 q 172 978 165 978 m 476 978 l 599 978 q 606 971 606 978 l 606 849 q 599 842 606 842 l 476 842 q 469 849 469 842 l 469 971 q 476 978 469 978 z "},"ì":{"ha":342,"x_min":11,"x_max":225,"o":"m 207 799 l 135 799 q 119 808 126 799 l 17 968 q 22 978 11 978 l 131 978 q 144 968 142 978 l 214 808 q 207 799 219 799 m 121 703 l 218 703 q 225 696 225 703 l 225 7 q 218 0 225 0 l 121 0 q 114 7 114 0 l 114 696 q 121 703 114 703 z "},"í":{"ha":342,"x_min":114,"x_max":339,"o":"m 218 799 l 146 799 q 139 808 133 799 l 208 968 q 222 978 211 978 l 329 978 q 336 975 333 978 q 336 968 339 972 l 233 808 q 218 799 226 799 m 121 703 l 218 703 q 225 696 225 703 l 225 7 q 218 0 225 0 l 121 0 q 114 7 114 0 l 114 696 q 121 703 114 703 z "},"î":{"ha":342,"x_min":25,"x_max":317,"o":"m 121 703 l 218 703 q 225 696 225 703 l 225 7 q 218 0 225 0 l 121 0 q 114 7 114 0 l 114 696 q 121 703 114 703 m 304 799 l 231 799 q 224 803 225 799 l 178 885 q 171 889 175 889 q 164 885 167 889 l 119 803 q 113 799 117 799 l 38 799 q 31 808 25 799 l 103 971 q 111 978 106 978 l 231 978 q 239 971 236 978 l 311 808 q 304 799 317 799 z "},"ï":{"ha":342,"x_min":-50,"x_max":390,"o":"m -43 978 l 79 978 q 86 971 86 978 l 86 849 q 79 842 86 842 l -43 842 q -50 849 -50 842 l -50 971 q -43 978 -50 978 m 261 978 l 383 978 q 390 971 390 978 l 390 849 q 383 842 390 842 l 261 842 q 254 849 254 842 l 254 971 q 261 978 254 978 m 121 703 l 218 703 q 225 696 225 703 l 225 7 q 218 0 225 0 l 121 0 q 114 7 114 0 l 114 696 q 121 703 114 703 z "},"ð":{"ha":789,"x_min":50,"x_max":739,"o":"m 471 724 l 426 796 q 414 799 422 803 l 318 749 q 306 751 311 743 l 274 811 q 279 824 269 819 l 374 876 q 376 886 379 881 l 332 969 q 336 978 328 978 l 443 978 q 453 971 450 978 l 468 940 q 485 933 474 928 l 575 982 q 588 979 583 986 l 619 919 q 617 907 625 911 l 525 858 q 521 846 517 854 l 604 719 q 616 702 606 718 q 631 679 626 686 q 648 653 636 672 q 666 621 660 633 q 683 586 672 608 q 701 546 694 564 q 716 503 708 528 q 728 457 724 479 q 736 409 733 435 q 739 357 739 383 q 647 91 739 196 q 396 -14 554 -14 q 143 91 236 -14 q 50 357 50 196 q 142 617 50 517 q 386 717 235 717 q 460 708 426 717 q 472 710 467 706 q 471 724 476 714 m 628 357 q 566 547 628 474 q 396 619 504 619 q 224 547 286 619 q 161 357 161 474 q 224 161 161 239 q 396 83 288 83 q 565 161 503 83 q 628 357 628 239 z "},"ñ":{"ha":840,"x_min":114,"x_max":744,"o":"m 633 7 l 633 379 q 584 551 633 483 q 429 619 535 619 q 225 371 225 619 l 225 7 q 218 0 225 0 l 121 0 q 114 7 114 0 l 114 696 q 121 703 114 703 l 203 703 q 211 696 210 703 l 225 626 q 231 619 226 621 q 238 624 235 618 q 265 656 244 638 q 336 696 286 675 q 446 717 386 717 q 672 626 599 717 q 744 379 744 535 l 744 7 q 738 0 744 0 l 640 0 q 633 7 633 0 m 214 832 l 214 856 q 247 939 214 900 q 344 978 279 978 q 439 946 389 978 q 510 914 489 914 q 540 926 525 914 q 554 971 554 939 q 561 978 554 978 l 635 978 q 642 971 642 978 l 642 946 q 608 864 642 903 q 510 825 574 825 q 416 857 469 825 q 344 889 363 889 q 315 876 329 889 q 300 832 300 864 q 293 825 300 825 l 221 825 q 214 832 214 825 z "},"ò":{"ha":789,"x_min":50,"x_max":739,"o":"m 647 617 q 693 567 647 617 q 739 351 739 517 q 647 86 739 186 q 394 -14 554 -14 q 142 86 233 -14 q 50 351 50 186 q 142 618 50 518 q 394 718 233 718 q 647 617 554 718 m 565 157 q 597 194 565 157 q 628 351 628 231 q 565 546 628 472 q 394 619 503 619 q 224 546 286 619 q 161 351 161 472 q 224 157 161 231 q 394 83 286 83 q 565 157 503 83 m 419 799 l 347 799 q 332 808 339 799 l 229 968 q 235 978 224 978 l 343 978 q 357 968 354 978 l 426 808 q 419 799 431 799 z "},"ó":{"ha":789,"x_min":50,"x_max":739,"o":"m 647 617 q 693 567 647 617 q 739 351 739 517 q 647 86 739 186 q 394 -14 554 -14 q 142 86 233 -14 q 50 351 50 186 q 142 618 50 518 q 394 718 233 718 q 647 617 554 718 m 565 157 q 597 194 565 157 q 628 351 628 231 q 565 546 628 472 q 394 619 503 619 q 224 546 286 619 q 161 351 161 472 q 224 157 161 231 q 394 83 286 83 q 565 157 503 83 m 440 799 l 368 799 q 361 808 356 799 l 431 968 q 444 978 433 978 l 551 978 q 558 975 556 978 q 558 968 561 972 l 456 808 q 440 799 449 799 z "},"ô":{"ha":789,"x_min":50,"x_max":739,"o":"m 647 617 q 693 567 647 617 q 739 351 739 517 q 647 86 739 186 q 394 -14 554 -14 q 142 86 233 -14 q 50 351 50 186 q 142 618 50 518 q 394 718 233 718 q 647 617 554 718 m 565 157 q 597 194 565 157 q 628 351 628 231 q 565 546 628 472 q 394 619 503 619 q 224 546 286 619 q 161 351 161 472 q 224 157 161 231 q 394 83 286 83 q 565 157 503 83 m 528 799 l 454 799 q 447 803 450 799 l 401 885 q 394 889 400 889 q 388 885 389 889 l 343 803 q 336 799 342 799 l 261 799 q 254 808 250 799 l 326 971 q 335 978 329 978 l 454 978 q 463 971 460 978 l 535 808 q 528 799 539 799 z "},"õ":{"ha":789,"x_min":50,"x_max":739,"o":"m 647 617 q 693 567 647 617 q 739 351 739 517 q 647 86 739 186 q 394 -14 554 -14 q 142 86 233 -14 q 50 351 50 186 q 142 618 50 518 q 394 718 233 718 q 647 617 554 718 m 565 157 q 597 194 565 157 q 628 351 628 231 q 565 546 628 472 q 394 619 503 619 q 224 546 286 619 q 161 351 161 472 q 224 157 161 231 q 394 83 286 83 q 565 157 503 83 m 181 832 l 181 856 q 213 939 181 900 q 311 978 246 978 q 406 946 356 978 q 476 914 456 914 q 506 926 492 914 q 521 971 521 939 q 528 978 521 978 l 601 978 q 608 971 608 978 l 608 946 q 574 864 608 903 q 476 825 540 825 q 383 857 436 825 q 311 889 329 889 q 281 876 296 889 q 267 832 267 864 q 260 825 267 825 l 188 825 q 181 832 181 825 z "},"ö":{"ha":789,"x_min":50,"x_max":739,"o":"m 647 617 q 693 567 647 617 q 739 351 739 517 q 647 86 739 186 q 394 -14 554 -14 q 142 86 233 -14 q 50 351 50 186 q 142 618 50 518 q 394 718 233 718 q 647 617 554 718 m 565 157 q 597 194 565 157 q 628 351 628 231 q 565 546 628 472 q 394 619 503 619 q 224 546 286 619 q 161 351 161 472 q 224 157 161 231 q 394 83 286 83 q 565 157 503 83 m 179 978 l 301 978 q 308 971 308 978 l 308 849 q 301 842 308 842 l 179 842 q 172 849 172 842 l 172 971 q 179 978 172 978 m 483 978 l 606 978 q 613 971 613 978 l 613 849 q 606 842 613 842 l 483 842 q 476 849 476 842 l 476 971 q 483 978 476 978 z "},"÷":{"ha":853,"x_min":75,"x_max":778,"o":"m 771 294 l 82 294 q 75 301 75 294 l 75 399 q 82 406 75 406 l 771 406 q 778 399 778 406 l 778 301 q 771 294 778 294 m 503 535 l 350 535 q 343 542 343 535 l 343 694 q 350 701 343 701 l 503 701 q 510 694 510 701 l 510 542 q 503 535 510 535 m 503 0 l 350 0 q 343 7 343 0 l 343 160 q 350 167 343 167 l 503 167 q 510 160 510 167 l 510 7 q 503 0 510 0 z "},"ø":{"ha":789,"x_min":39,"x_max":744,"o":"m 739 639 l 685 585 q 683 569 678 578 q 739 351 739 482 q 647 86 739 186 q 393 -14 554 -14 q 175 56 268 -14 q 160 57 165 63 l 103 3 q 93 3 97 -3 l 43 53 q 43 63 39 58 l 103 124 q 104 136 108 129 q 49 351 49 229 q 141 617 49 517 q 393 718 233 718 q 611 650 526 718 q 628 650 621 643 l 679 700 q 690 699 683 706 l 739 649 q 739 639 744 644 m 628 351 q 601 489 628 436 q 589 489 597 497 l 246 146 q 246 135 240 140 q 393 83 306 83 q 565 157 503 83 q 628 351 628 231 m 160 351 q 186 217 160 258 q 197 217 190 210 l 539 560 q 539 571 544 565 q 393 619 482 619 q 222 546 285 619 q 160 351 160 472 z "},"ù":{"ha":840,"x_min":94,"x_max":725,"o":"m 206 696 l 206 324 q 255 151 206 219 q 410 83 304 83 q 614 332 614 83 l 614 696 q 621 703 614 703 l 718 703 q 725 696 725 703 l 725 7 q 718 0 725 0 l 636 0 q 628 7 629 0 l 614 76 q 608 83 613 82 q 601 79 604 85 q 574 47 594 65 q 503 7 553 28 q 393 -14 453 -14 q 167 77 240 -14 q 94 324 94 168 l 94 696 q 101 703 94 703 l 199 703 q 206 696 206 703 m 436 799 l 364 799 q 349 808 356 799 l 246 968 q 251 978 240 978 l 360 978 q 374 968 371 978 l 443 808 q 436 799 447 799 z "},"ú":{"ha":840,"x_min":94,"x_max":725,"o":"m 206 696 l 206 324 q 255 151 206 219 q 410 83 304 83 q 614 332 614 83 l 614 696 q 621 703 614 703 l 718 703 q 725 696 725 703 l 725 7 q 718 0 725 0 l 636 0 q 628 7 629 0 l 614 76 q 608 83 613 82 q 601 79 604 85 q 574 47 594 65 q 503 7 553 28 q 393 -14 453 -14 q 167 77 240 -14 q 94 324 94 168 l 94 696 q 101 703 94 703 l 199 703 q 206 696 206 703 m 457 799 l 385 799 q 378 808 372 799 l 447 968 q 461 978 450 978 l 568 978 q 575 975 572 978 q 575 968 578 972 l 472 808 q 457 799 465 799 z "},"û":{"ha":840,"x_min":94,"x_max":725,"o":"m 206 696 l 206 324 q 255 151 206 219 q 410 83 304 83 q 614 332 614 83 l 614 696 q 621 703 614 703 l 718 703 q 725 696 725 703 l 725 7 q 718 0 725 0 l 636 0 q 628 7 629 0 l 614 76 q 608 83 613 82 q 601 79 604 85 q 574 47 594 65 q 503 7 553 28 q 393 -14 453 -14 q 167 77 240 -14 q 94 324 94 168 l 94 696 q 101 703 94 703 l 199 703 q 206 696 206 703 m 543 799 l 469 799 q 463 803 464 799 l 417 885 q 410 889 414 889 q 403 885 406 889 l 358 803 q 351 799 356 799 l 276 799 q 269 808 264 799 l 342 971 q 350 978 344 978 l 469 978 q 478 971 475 978 l 550 808 q 543 799 556 799 z "},"ü":{"ha":840,"x_min":94,"x_max":725,"o":"m 206 696 l 206 324 q 255 151 206 219 q 410 83 304 83 q 614 332 614 83 l 614 696 q 621 703 614 703 l 718 703 q 725 696 725 703 l 725 7 q 718 0 725 0 l 636 0 q 628 7 629 0 l 614 76 q 608 83 613 82 q 601 79 604 85 q 574 47 594 65 q 503 7 553 28 q 393 -14 453 -14 q 167 77 240 -14 q 94 324 94 168 l 94 696 q 101 703 94 703 l 199 703 q 206 696 206 703 m 196 978 l 318 978 q 325 971 325 978 l 325 849 q 318 842 325 842 l 196 842 q 189 849 189 842 l 189 971 q 196 978 189 978 m 500 978 l 622 978 q 629 971 629 978 l 629 849 q 622 842 629 842 l 500 842 q 493 849 493 842 l 493 971 q 500 978 493 978 z "},"ý":{"ha":653,"x_min":1,"x_max":635,"o":"m 326 103 l 514 696 q 524 703 515 703 l 626 703 q 632 696 635 703 l 364 -99 q 293 -235 332 -196 q 169 -275 254 -275 l 14 -275 q 7 -268 7 -275 l 7 -186 q 14 -179 7 -179 l 161 -179 q 243 -117 224 -179 q 239 0 263 -56 l 4 696 q 10 703 1 703 l 113 703 q 122 696 121 703 l 311 103 q 319 97 314 97 q 326 103 325 97 m 360 799 l 288 799 q 281 808 275 799 l 350 968 q 364 978 353 978 l 471 978 q 478 975 475 978 q 478 968 481 972 l 375 808 q 360 799 368 799 z "},"þ":{"ha":840,"x_min":114,"x_max":790,"o":"m 114 -268 l 114 971 q 121 978 114 978 l 218 978 q 225 971 225 978 l 225 643 q 235 639 225 632 q 444 717 340 717 q 696 616 601 717 q 790 351 790 515 q 698 86 790 186 q 444 -14 606 -14 q 316 10 371 -14 q 235 60 261 33 q 229 61 233 63 q 225 56 225 60 l 225 -268 q 218 -275 225 -275 l 121 -275 q 114 -268 114 -275 m 678 351 q 616 546 678 472 q 444 619 554 619 q 280 547 336 619 q 224 351 224 475 q 280 154 224 226 q 444 82 336 82 q 616 156 554 82 q 678 351 678 229 z "},"ÿ":{"ha":653,"x_min":1,"x_max":635,"o":"m 326 103 l 514 696 q 524 703 515 703 l 626 703 q 632 696 635 703 l 364 -99 q 293 -235 332 -196 q 169 -275 254 -275 l 14 -275 q 7 -268 7 -275 l 7 -186 q 14 -179 7 -179 l 161 -179 q 243 -117 224 -179 q 239 0 263 -56 l 4 696 q 10 703 1 703 l 113 703 q 122 696 121 703 l 311 103 q 319 97 314 97 q 326 103 325 97 m 114 978 l 236 978 q 243 971 243 978 l 243 849 q 236 842 243 842 l 114 842 q 107 849 107 842 l 107 971 q 114 978 107 978 m 418 978 l 540 978 q 547 971 547 978 l 547 849 q 540 842 547 842 l 418 842 q 411 849 411 842 l 411 971 q 418 978 411 978 z "},"Ā":{"ha":829,"x_min":6,"x_max":824,"o":"m 625 221 l 204 221 q 194 214 197 221 l 128 7 q 118 0 125 0 l 15 0 q 8 7 6 0 l 329 971 q 338 978 332 978 l 492 978 q 500 971 497 978 l 821 7 q 814 0 824 0 l 711 0 q 701 7 704 0 l 635 214 q 625 221 632 221 m 599 325 l 421 875 q 415 881 419 881 q 408 875 411 881 l 231 325 q 235 318 229 318 l 594 318 q 599 325 600 318 m 611 1099 l 219 1099 q 213 1106 213 1099 l 213 1183 q 219 1190 213 1190 l 611 1190 q 618 1183 618 1190 l 618 1106 q 611 1099 618 1099 z "},"ā":{"ha":788,"x_min":47,"x_max":753,"o":"m 75 467 q 157 652 75 588 q 369 717 239 717 q 593 653 514 717 q 672 464 672 589 l 672 181 q 688 116 672 135 q 743 97 704 97 l 746 97 q 753 90 753 97 l 753 7 q 746 0 753 0 l 740 0 q 634 18 669 0 q 579 79 599 36 q 574 83 578 82 q 568 81 571 83 q 558 68 565 76 q 530 45 550 60 q 483 18 510 31 q 414 -3 457 6 q 322 -14 371 -12 q 120 45 193 -14 q 47 201 47 104 q 124 356 47 299 q 339 413 200 413 l 497 413 q 547 422 532 413 q 561 465 561 432 q 556 517 561 496 q 535 565 551 539 q 476 606 518 592 q 369 619 435 619 q 186 467 186 619 q 179 460 186 460 l 82 460 q 75 467 75 460 m 561 285 l 561 308 q 554 315 561 315 l 346 315 q 158 201 158 315 q 201 119 158 154 q 322 83 244 83 q 501 144 442 83 q 561 285 561 206 m 581 825 l 189 825 q 182 832 182 825 l 182 910 q 189 917 182 917 l 581 917 q 588 910 588 917 l 588 832 q 581 825 588 825 z "},"Ă":{"ha":829,"x_min":6,"x_max":824,"o":"m 625 221 l 204 221 q 194 214 197 221 l 128 7 q 118 0 125 0 l 15 0 q 8 7 6 0 l 329 971 q 338 978 332 978 l 492 978 q 500 971 497 978 l 821 7 q 814 0 824 0 l 711 0 q 701 7 704 0 l 635 214 q 625 221 632 221 m 599 325 l 421 875 q 415 881 419 881 q 408 875 411 881 l 231 325 q 235 318 229 318 l 594 318 q 599 325 600 318 m 514 1251 l 583 1251 q 590 1244 590 1251 q 542 1115 590 1160 q 414 1069 494 1069 q 286 1115 335 1069 q 238 1244 238 1160 q 244 1251 238 1251 l 313 1251 q 321 1226 314 1251 q 350 1174 328 1200 q 414 1149 372 1149 q 485 1178 464 1149 q 507 1244 507 1208 q 514 1251 507 1251 z "},"ă":{"ha":788,"x_min":47,"x_max":753,"o":"m 75 467 q 157 652 75 588 q 369 717 239 717 q 593 653 514 717 q 672 464 672 589 l 672 181 q 688 116 672 135 q 743 97 704 97 l 746 97 q 753 90 753 97 l 753 7 q 746 0 753 0 l 740 0 q 634 18 669 0 q 579 79 599 36 q 574 83 578 82 q 568 81 571 83 q 558 68 565 76 q 530 45 550 60 q 483 18 510 31 q 414 -3 457 6 q 322 -14 371 -12 q 120 45 193 -14 q 47 201 47 104 q 124 356 47 299 q 339 413 200 413 l 497 413 q 547 422 532 413 q 561 465 561 432 q 556 517 561 496 q 535 565 551 539 q 476 606 518 592 q 369 619 435 619 q 186 467 186 619 q 179 460 186 460 l 82 460 q 75 467 75 460 m 561 285 l 561 308 q 554 315 561 315 l 346 315 q 158 201 158 315 q 201 119 158 154 q 322 83 244 83 q 501 144 442 83 q 561 285 561 206 m 464 978 l 533 978 q 540 971 540 978 q 492 841 540 886 q 364 796 444 796 q 236 841 285 796 q 188 971 188 886 q 194 978 188 978 l 263 978 q 271 952 264 978 q 300 901 278 926 q 364 875 322 875 q 435 905 414 875 q 457 971 457 935 q 464 978 457 978 z "},"Ą":{"ha":831,"x_min":6,"x_max":824,"o":"m 625 221 l 204 221 q 194 214 197 221 l 128 7 q 118 0 125 0 l 15 0 q 8 7 6 0 l 329 971 q 338 978 332 978 l 492 978 q 500 971 497 978 l 821 7 q 814 0 824 0 l 778 0 q 713 -30 739 -3 q 688 -96 688 -57 q 716 -162 688 -139 q 790 -185 744 -185 l 814 -185 q 821 -192 821 -185 l 821 -268 q 814 -275 821 -275 l 781 -275 q 645 -236 696 -275 q 593 -136 594 -197 q 621 -49 593 -86 q 694 1 649 -11 q 701 7 701 6 l 635 214 q 625 221 632 221 m 599 325 l 421 875 q 415 881 419 881 q 408 875 411 881 l 231 325 q 235 318 229 318 l 594 318 q 599 325 600 318 z "},"ą":{"ha":788,"x_min":47,"x_max":753,"o":"m 75 467 q 157 652 75 588 q 369 717 239 717 q 593 653 514 717 q 672 464 672 589 l 672 178 q 688 113 672 132 q 743 94 704 94 l 746 94 q 753 88 753 94 l 753 7 q 746 0 753 0 l 740 0 l 733 0 q 667 -31 693 -3 q 640 -97 640 -58 q 669 -162 640 -139 q 744 -185 699 -185 l 746 -185 q 753 -192 753 -185 l 753 -268 q 746 -275 753 -275 l 731 -275 q 597 -234 649 -275 q 546 -132 546 -193 q 571 -50 546 -87 q 642 0 596 -12 q 647 6 646 1 q 642 14 647 11 q 579 79 600 32 q 575 83 578 82 q 569 81 572 83 q 544 53 564 71 q 462 11 524 35 q 322 -14 400 -12 q 120 45 193 -14 q 47 201 47 104 q 124 356 47 299 q 339 413 200 413 l 497 413 q 547 422 532 413 q 561 465 561 432 q 556 517 561 496 q 535 565 551 539 q 476 606 518 592 q 369 619 435 619 q 186 467 186 619 q 179 460 186 460 l 82 460 q 75 467 75 460 m 561 285 l 561 308 q 554 315 561 315 l 346 315 q 158 201 158 315 q 201 119 158 154 q 322 83 244 83 q 501 144 442 83 q 561 285 561 206 z "},"Ć":{"ha":918,"x_min":50,"x_max":874,"o":"m 760 278 q 769 285 763 285 l 867 285 q 874 278 874 285 q 851 201 874 247 q 784 106 828 156 q 662 21 740 56 q 488 -14 583 -14 q 165 124 281 -14 q 50 486 50 261 q 166 852 50 713 q 488 992 282 992 q 660 957 582 992 q 782 873 738 922 q 850 777 826 824 q 874 699 874 731 q 867 692 874 692 l 769 692 q 760 699 763 692 q 733 753 751 725 q 684 816 715 782 q 601 872 653 850 q 488 894 550 894 q 250 786 333 894 q 167 486 167 678 q 250 190 167 296 q 488 83 333 83 q 601 106 550 83 q 684 161 653 128 q 733 224 715 194 q 760 278 751 253 m 517 1072 l 444 1072 q 438 1082 433 1072 l 507 1242 q 521 1251 510 1251 l 628 1251 q 635 1249 632 1251 q 635 1242 638 1246 l 532 1082 q 517 1072 525 1072 z "},"ć":{"ha":758,"x_min":49,"x_max":710,"o":"m 597 236 q 606 243 600 243 l 703 243 q 710 236 710 243 q 614 62 693 138 q 393 -14 535 -14 q 140 86 232 -14 q 49 351 49 186 q 140 617 49 517 q 393 717 232 717 q 615 640 535 717 q 708 467 694 563 q 701 460 708 460 l 604 460 q 596 467 599 460 q 393 619 554 619 q 223 545 285 619 q 161 351 161 471 q 223 157 161 231 q 393 83 285 83 q 597 236 554 83 m 432 799 l 360 799 q 353 808 347 799 l 422 968 q 436 978 425 978 l 543 978 q 550 975 547 978 q 550 968 553 972 l 447 808 q 432 799 440 799 z "},"Ĉ":{"ha":918,"x_min":50,"x_max":874,"o":"m 760 278 q 769 285 763 285 l 867 285 q 874 278 874 285 q 851 201 874 247 q 784 106 828 156 q 662 21 740 56 q 488 -14 583 -14 q 165 124 281 -14 q 50 486 50 261 q 166 852 50 713 q 488 992 282 992 q 660 957 582 992 q 782 873 738 922 q 850 777 826 824 q 874 699 874 731 q 867 692 874 692 l 769 692 q 760 699 763 692 q 733 753 751 725 q 684 816 715 782 q 601 872 653 850 q 488 894 550 894 q 250 786 333 894 q 167 486 167 678 q 250 190 167 296 q 488 83 333 83 q 601 106 550 83 q 684 161 653 128 q 733 224 715 194 q 760 278 751 253 m 618 1072 l 544 1072 q 538 1076 539 1072 l 492 1158 q 485 1163 489 1163 q 478 1158 481 1163 l 433 1076 q 426 1072 431 1072 l 351 1072 q 344 1082 339 1072 l 417 1244 q 425 1251 419 1251 l 544 1251 q 553 1244 550 1251 l 625 1082 q 618 1072 631 1072 z "},"ĉ":{"ha":758,"x_min":49,"x_max":710,"o":"m 597 236 q 606 243 600 243 l 703 243 q 710 236 710 243 q 614 62 693 138 q 393 -14 535 -14 q 140 86 232 -14 q 49 351 49 186 q 140 617 49 517 q 393 717 232 717 q 615 640 535 717 q 708 467 694 563 q 701 460 708 460 l 604 460 q 596 467 599 460 q 393 619 554 619 q 223 545 285 619 q 161 351 161 471 q 223 157 161 231 q 393 83 285 83 q 597 236 554 83 m 529 799 l 456 799 q 449 803 450 799 l 403 885 q 396 889 400 889 q 389 885 392 889 l 344 803 q 338 799 342 799 l 263 799 q 256 808 250 799 l 328 971 q 336 978 331 978 l 456 978 q 464 971 461 978 l 536 808 q 529 799 542 799 z "},"Ċ":{"ha":918,"x_min":50,"x_max":874,"o":"m 760 278 q 769 285 763 285 l 867 285 q 874 278 874 285 q 851 201 874 247 q 784 106 828 156 q 662 21 740 56 q 488 -14 583 -14 q 165 124 281 -14 q 50 486 50 261 q 166 852 50 713 q 488 992 282 992 q 660 957 582 992 q 782 873 738 922 q 850 777 826 824 q 874 699 874 731 q 867 692 874 692 l 769 692 q 760 699 763 692 q 733 753 751 725 q 684 816 715 782 q 601 872 653 850 q 488 894 550 894 q 250 786 333 894 q 167 486 167 678 q 250 190 167 296 q 488 83 333 83 q 601 106 550 83 q 684 161 653 128 q 733 224 715 194 q 760 278 751 253 m 422 1251 l 544 1251 q 551 1244 551 1251 l 551 1122 q 544 1115 551 1115 l 422 1115 q 415 1122 415 1115 l 415 1244 q 422 1251 415 1251 z "},"ċ":{"ha":758,"x_min":49,"x_max":710,"o":"m 597 236 q 606 243 600 243 l 703 243 q 710 236 710 243 q 614 62 693 138 q 393 -14 535 -14 q 140 86 232 -14 q 49 351 49 186 q 140 617 49 517 q 393 717 232 717 q 615 640 535 717 q 708 467 694 563 q 701 460 708 460 l 604 460 q 596 467 599 460 q 393 619 554 619 q 223 545 285 619 q 161 351 161 471 q 223 157 161 231 q 393 83 285 83 q 597 236 554 83 m 333 978 l 456 978 q 463 971 463 978 l 463 849 q 456 842 463 842 l 333 842 q 326 849 326 842 l 326 971 q 333 978 326 978 z "},"Č":{"ha":918,"x_min":50,"x_max":874,"o":"m 760 278 q 769 285 763 285 l 867 285 q 874 278 874 285 q 851 201 874 247 q 784 106 828 156 q 662 21 740 56 q 488 -14 583 -14 q 165 124 281 -14 q 50 486 50 261 q 166 852 50 713 q 488 992 282 992 q 660 957 582 992 q 782 873 738 922 q 850 777 826 824 q 874 699 874 731 q 867 692 874 692 l 769 692 q 760 699 763 692 q 733 753 751 725 q 684 816 715 782 q 601 872 653 850 q 488 894 550 894 q 250 786 333 894 q 167 486 167 678 q 250 190 167 296 q 488 83 333 83 q 601 106 550 83 q 684 161 653 128 q 733 224 715 194 q 760 278 751 253 m 543 1251 l 617 1251 q 624 1242 628 1251 l 551 1079 q 543 1072 549 1072 l 424 1072 q 415 1079 418 1072 l 343 1242 q 350 1251 339 1251 l 425 1251 q 432 1247 431 1251 l 476 1165 q 483 1161 478 1161 q 490 1165 489 1161 l 536 1247 q 543 1251 539 1251 z "},"č":{"ha":758,"x_min":49,"x_max":710,"o":"m 597 236 q 606 243 600 243 l 703 243 q 710 236 710 243 q 614 62 693 138 q 393 -14 535 -14 q 140 86 232 -14 q 49 351 49 186 q 140 617 49 517 q 393 717 232 717 q 615 640 535 717 q 708 467 694 563 q 701 460 708 460 l 604 460 q 596 467 599 460 q 393 619 554 619 q 223 545 285 619 q 161 351 161 471 q 223 157 161 231 q 393 83 285 83 q 597 236 554 83 m 444 978 l 518 978 q 525 968 531 978 l 453 806 q 444 799 450 799 l 325 799 q 317 806 319 799 l 244 968 q 251 978 239 978 l 326 978 q 333 974 331 978 l 378 892 q 385 888 381 888 q 392 892 389 888 l 438 974 q 444 978 439 978 z "},"Ď":{"ha":961,"x_min":115,"x_max":910,"o":"m 476 0 l 122 0 q 115 7 115 0 l 115 971 q 122 978 115 978 l 476 978 q 799 842 688 978 q 910 479 910 706 q 800 126 910 253 q 476 0 690 0 m 476 881 l 233 881 q 226 874 226 881 l 226 104 q 233 97 226 97 l 476 97 q 709 195 626 97 q 792 479 792 293 q 708 773 792 665 q 476 881 625 881 m 504 1251 l 578 1251 q 585 1242 589 1251 l 513 1079 q 504 1072 510 1072 l 385 1072 q 376 1079 379 1072 l 304 1242 q 311 1251 300 1251 l 386 1251 q 393 1247 392 1251 l 438 1165 q 444 1161 439 1161 q 451 1165 450 1161 l 497 1247 q 504 1251 500 1251 z "},"ď":{"ha":847,"x_min":47,"x_max":896,"o":"m 725 971 l 725 7 q 718 0 725 0 l 636 0 q 628 7 629 0 l 614 76 q 608 83 613 82 q 600 79 603 83 q 375 -14 533 -14 q 133 85 219 -14 q 47 351 47 185 q 135 616 47 515 q 375 717 224 717 q 600 622 528 717 q 608 619 603 618 q 614 626 614 621 l 614 971 q 621 978 614 978 l 718 978 q 725 971 725 978 m 221 546 q 190 509 221 546 q 158 351 158 472 q 221 157 158 231 q 392 83 283 83 q 556 156 499 83 q 614 351 614 229 q 557 547 614 475 q 392 619 500 619 q 221 546 283 619 m 824 868 l 788 868 q 781 875 781 868 l 781 971 q 788 978 781 978 l 889 978 q 896 971 896 978 l 896 872 q 865 790 896 821 q 788 758 835 758 q 781 765 781 758 l 781 806 q 788 813 781 813 q 817 826 803 813 q 831 861 831 839 q 824 868 831 868 z "},"Đ":{"ha":961,"x_min":6,"x_max":910,"o":"m 117 7 l 117 440 q 110 447 117 447 l 13 447 q 6 454 6 447 l 6 538 q 13 544 6 544 l 110 544 q 117 551 117 544 l 117 971 q 124 978 117 978 l 476 978 q 799 842 689 978 q 910 479 910 706 q 800 126 910 253 q 476 0 690 0 l 124 0 q 117 7 117 0 m 467 447 l 235 447 q 228 440 228 447 l 228 104 q 235 97 228 97 l 476 97 q 710 194 628 97 q 792 479 792 292 q 708 773 792 665 q 476 881 625 881 l 235 881 q 228 874 228 881 l 228 551 q 235 544 228 544 l 467 544 q 474 538 474 544 l 474 454 q 467 447 474 447 z "},"đ":{"ha":840,"x_min":47,"x_max":835,"o":"m 725 764 l 725 7 q 718 0 725 0 l 636 0 q 628 7 629 0 l 614 76 q 608 83 613 82 q 600 79 603 83 q 375 -14 533 -14 q 133 85 219 -14 q 47 351 47 185 q 135 616 47 515 q 375 717 224 717 q 600 622 528 717 q 608 619 603 618 q 614 626 614 621 l 614 764 q 607 771 614 771 l 431 771 q 424 778 424 771 l 424 861 q 431 868 424 868 l 607 868 q 614 875 614 868 l 614 971 q 621 978 614 978 l 718 978 q 725 971 725 978 l 725 875 q 732 868 725 868 l 828 868 q 835 861 835 868 l 835 778 q 828 771 835 771 l 732 771 q 725 764 725 771 m 221 546 q 190 509 221 546 q 158 351 158 472 q 221 157 158 231 q 392 83 283 83 q 556 156 499 83 q 614 351 614 229 q 557 547 614 475 q 392 619 500 619 q 221 546 283 619 z "},"Ē":{"ha":826,"x_min":115,"x_max":788,"o":"m 781 0 l 122 0 q 115 7 115 0 l 115 971 q 122 978 115 978 l 781 978 q 788 971 788 978 l 788 888 q 781 881 788 881 l 233 881 q 226 874 226 881 l 226 557 q 233 550 226 550 l 719 550 q 726 543 726 550 l 726 460 q 719 453 726 453 l 233 453 q 226 446 226 453 l 226 104 q 233 97 226 97 l 781 97 q 788 90 788 97 l 788 7 q 781 0 788 0 m 649 1099 l 257 1099 q 250 1106 250 1099 l 250 1183 q 257 1190 250 1190 l 649 1190 q 656 1183 656 1190 l 656 1106 q 649 1099 656 1099 z "},"ē":{"ha":771,"x_min":49,"x_max":721,"o":"m 710 308 l 175 308 q 168 301 168 308 q 228 148 168 213 q 388 83 289 83 q 506 112 458 83 q 575 182 553 140 q 586 189 578 189 l 690 189 q 697 182 699 189 q 590 37 674 88 q 388 -14 506 -14 q 142 88 236 -14 q 49 351 49 189 q 140 617 49 517 q 388 717 232 717 q 631 616 542 717 q 721 351 721 515 q 710 308 721 308 m 601 411 q 547 555 601 490 q 388 619 493 619 q 227 551 286 619 q 168 411 168 482 q 175 406 168 406 l 594 406 q 601 411 601 406 m 583 825 l 192 825 q 185 832 185 825 l 185 910 q 192 917 185 917 l 583 917 q 590 910 590 917 l 590 832 q 583 825 590 825 z "},"Ĕ":{"ha":826,"x_min":115,"x_max":788,"o":"m 781 0 l 122 0 q 115 7 115 0 l 115 971 q 122 978 115 978 l 781 978 q 788 971 788 978 l 788 888 q 781 881 788 881 l 233 881 q 226 874 226 881 l 226 557 q 233 550 226 550 l 719 550 q 726 543 726 550 l 726 460 q 719 453 726 453 l 233 453 q 226 446 226 453 l 226 104 q 233 97 226 97 l 781 97 q 788 90 788 97 l 788 7 q 781 0 788 0 m 558 1251 l 628 1251 q 635 1244 635 1251 q 587 1115 635 1160 q 458 1069 539 1069 q 331 1115 379 1069 q 282 1244 282 1160 q 289 1251 282 1251 l 357 1251 q 365 1226 358 1251 q 394 1174 372 1200 q 458 1149 417 1149 q 530 1178 508 1149 q 551 1244 551 1208 q 558 1251 551 1251 z "},"ĕ":{"ha":771,"x_min":49,"x_max":721,"o":"m 710 308 l 175 308 q 168 301 168 308 q 228 148 168 213 q 388 83 289 83 q 506 112 458 83 q 575 182 553 140 q 586 189 578 189 l 690 189 q 697 182 699 189 q 590 37 674 88 q 388 -14 506 -14 q 142 88 236 -14 q 49 351 49 189 q 140 617 49 517 q 388 717 232 717 q 631 616 542 717 q 721 351 721 515 q 710 308 721 308 m 601 411 q 547 555 601 490 q 388 619 493 619 q 227 551 286 619 q 168 411 168 482 q 175 406 168 406 l 594 406 q 601 411 601 406 m 497 978 l 567 978 q 574 971 574 978 q 526 841 574 886 q 397 796 478 796 q 269 841 318 796 q 221 971 221 886 q 228 978 221 978 l 296 978 q 304 952 297 978 q 333 901 311 926 q 397 875 356 875 q 469 905 447 875 q 490 971 490 935 q 497 978 490 978 z "},"Ė":{"ha":826,"x_min":115,"x_max":788,"o":"m 781 0 l 122 0 q 115 7 115 0 l 115 971 q 122 978 115 978 l 781 978 q 788 971 788 978 l 788 888 q 781 881 788 881 l 233 881 q 226 874 226 881 l 226 557 q 233 550 226 550 l 719 550 q 726 543 726 550 l 726 460 q 719 453 726 453 l 233 453 q 226 446 226 453 l 226 104 q 233 97 226 97 l 781 97 q 788 90 788 97 l 788 7 q 781 0 788 0 m 390 1251 l 513 1251 q 519 1244 519 1251 l 519 1122 q 513 1115 519 1115 l 390 1115 q 383 1122 383 1115 l 383 1244 q 390 1251 383 1251 z "},"ė":{"ha":771,"x_min":49,"x_max":721,"o":"m 710 308 l 175 308 q 168 301 168 308 q 228 148 168 213 q 388 83 289 83 q 506 112 458 83 q 575 182 553 140 q 586 189 578 189 l 690 189 q 697 182 699 189 q 590 37 674 88 q 388 -14 506 -14 q 142 88 236 -14 q 49 351 49 189 q 140 617 49 517 q 388 717 232 717 q 631 616 542 717 q 721 351 721 515 q 710 308 721 308 m 601 411 q 547 555 601 490 q 388 619 493 619 q 227 551 286 619 q 168 411 168 482 q 175 406 168 406 l 594 406 q 601 411 601 406 m 331 978 l 453 978 q 460 971 460 978 l 460 849 q 453 842 460 842 l 331 842 q 324 849 324 842 l 324 971 q 331 978 324 978 z "},"Ę":{"ha":826,"x_min":115,"x_max":788,"o":"m 781 0 l 765 0 q 694 -28 722 0 q 665 -97 665 -56 q 694 -162 665 -139 q 768 -185 722 -185 l 781 -185 q 788 -192 788 -185 l 788 -268 q 781 -275 788 -275 l 749 -275 q 619 -233 669 -275 q 569 -132 569 -192 q 636 -14 569 -51 q 640 -6 642 -11 q 632 0 639 0 l 122 0 q 115 7 115 0 l 115 971 q 122 978 115 978 l 781 978 q 788 971 788 978 l 788 888 q 781 881 788 881 l 233 881 q 226 874 226 881 l 226 557 q 233 550 226 550 l 719 550 q 726 543 726 550 l 726 460 q 719 453 726 453 l 233 453 q 226 446 226 453 l 226 104 q 233 97 226 97 l 781 97 q 788 90 788 97 l 788 7 q 781 0 788 0 z "},"ę":{"ha":771,"x_min":49,"x_max":721,"o":"m 710 310 l 175 310 q 168 303 168 310 q 228 149 168 214 q 388 83 289 83 q 506 112 458 83 q 575 182 553 140 q 586 189 578 189 l 690 189 q 697 182 699 189 q 593 42 676 106 q 486 -101 486 -40 q 515 -164 486 -143 q 589 -185 543 -185 l 635 -185 q 642 -192 642 -185 l 642 -268 q 635 -275 642 -275 l 569 -275 q 438 -233 485 -275 q 390 -132 390 -192 q 431 -24 390 -64 q 433 -15 435 -21 q 425 -11 431 -10 q 388 -14 400 -14 q 142 88 236 -14 q 49 351 49 189 q 140 617 49 517 q 388 717 232 717 q 631 616 542 717 q 721 351 721 515 q 710 310 721 310 m 601 410 q 547 555 601 490 q 388 619 493 619 q 227 550 286 619 q 168 410 168 481 q 175 404 168 404 l 594 404 q 601 410 601 404 z "},"Ě":{"ha":826,"x_min":115,"x_max":788,"o":"m 781 0 l 122 0 q 115 7 115 0 l 115 971 q 122 978 115 978 l 781 978 q 788 971 788 978 l 788 888 q 781 881 788 881 l 233 881 q 226 874 226 881 l 226 557 q 233 550 226 550 l 719 550 q 726 543 726 550 l 726 460 q 719 453 726 453 l 233 453 q 226 446 226 453 l 226 104 q 233 97 226 97 l 781 97 q 788 90 788 97 l 788 7 q 781 0 788 0 m 513 1251 l 586 1251 q 593 1242 597 1251 l 521 1079 q 513 1072 518 1072 l 393 1072 q 385 1079 388 1072 l 313 1242 q 319 1251 308 1251 l 394 1251 q 401 1247 400 1251 l 446 1165 q 453 1161 447 1161 q 460 1165 458 1161 l 506 1247 q 513 1251 508 1251 z "},"ě":{"ha":771,"x_min":49,"x_max":721,"o":"m 710 308 l 175 308 q 168 301 168 308 q 228 148 168 213 q 388 83 289 83 q 506 112 458 83 q 575 182 553 140 q 586 189 578 189 l 690 189 q 697 182 699 189 q 590 37 674 88 q 388 -14 506 -14 q 142 88 236 -14 q 49 351 49 189 q 140 617 49 517 q 388 717 232 717 q 631 616 542 717 q 721 351 721 515 q 710 308 721 308 m 601 411 q 547 555 601 490 q 388 619 493 619 q 227 551 286 619 q 168 411 168 482 q 175 406 168 406 l 594 406 q 601 411 601 406 m 451 978 l 525 978 q 532 968 536 978 l 460 806 q 451 799 457 799 l 332 799 q 324 806 326 799 l 251 968 q 258 978 247 978 l 333 978 q 340 974 339 978 l 385 892 q 392 888 386 888 q 399 892 397 888 l 444 974 q 451 978 447 978 z "},"Ĝ":{"ha":1004,"x_min":50,"x_max":911,"o":"m 803 392 l 803 432 q 796 439 803 439 l 496 439 q 489 446 489 439 l 489 529 q 496 536 489 536 l 904 536 q 911 529 911 536 l 911 6 q 904 0 911 0 l 828 0 q 817 10 818 0 l 803 115 q 790 118 800 131 q 666 25 749 64 q 489 -14 583 -14 q 164 124 278 -14 q 50 489 50 261 q 167 853 50 714 q 489 992 285 992 q 755 911 657 992 q 883 710 853 831 q 878 703 885 703 l 779 703 q 769 710 771 703 q 667 849 744 803 q 489 894 589 894 q 251 788 335 894 q 168 489 168 681 q 251 190 168 296 q 489 83 333 83 q 720 172 638 83 q 803 392 803 260 m 622 1072 l 549 1072 q 542 1076 544 1072 l 496 1158 q 489 1163 494 1163 q 482 1158 483 1163 l 438 1076 q 431 1072 436 1072 l 356 1072 q 349 1082 344 1072 l 421 1244 q 429 1251 424 1251 l 549 1251 q 557 1244 554 1251 l 629 1082 q 622 1072 633 1072 z "},"ĝ":{"ha":842,"x_min":49,"x_max":726,"o":"m 726 696 l 726 26 q 636 -204 726 -119 q 394 -289 546 -289 q 180 -228 267 -289 q 85 -82 93 -168 q 92 -75 85 -75 l 186 -75 q 196 -82 193 -75 q 258 -158 206 -124 q 394 -192 310 -192 q 565 -127 514 -192 q 615 32 615 -62 l 615 76 q 610 83 615 82 q 603 79 606 83 q 520 15 578 44 q 376 -14 463 -14 q 140 88 232 -14 q 49 351 49 189 q 139 615 49 514 q 376 717 229 717 q 603 622 508 717 q 615 625 611 614 l 629 694 q 638 703 631 703 l 719 703 q 726 696 726 703 m 222 546 q 191 509 222 546 q 160 351 160 472 q 222 157 160 231 q 393 83 285 83 q 558 156 501 83 q 615 351 615 228 q 558 547 615 474 q 393 619 501 619 q 222 546 285 619 m 533 799 l 460 799 q 453 803 456 799 l 407 885 q 400 889 406 889 q 393 885 394 889 l 349 803 q 342 799 347 799 l 267 799 q 260 808 256 799 l 332 971 q 340 978 335 978 l 460 978 q 468 971 465 978 l 540 808 q 533 799 544 799 z "},"Ğ":{"ha":1004,"x_min":50,"x_max":911,"o":"m 803 392 l 803 432 q 796 439 803 439 l 496 439 q 489 446 489 439 l 489 529 q 496 536 489 536 l 904 536 q 911 529 911 536 l 911 6 q 904 0 911 0 l 828 0 q 817 10 818 0 l 803 115 q 790 118 800 131 q 666 25 749 64 q 489 -14 583 -14 q 164 124 278 -14 q 50 489 50 261 q 167 853 50 714 q 489 992 285 992 q 755 911 657 992 q 883 710 853 831 q 878 703 885 703 l 779 703 q 769 710 771 703 q 667 849 744 803 q 489 894 589 894 q 251 788 335 894 q 168 489 168 681 q 251 190 168 296 q 489 83 333 83 q 720 172 638 83 q 803 392 803 260 m 589 1251 l 658 1251 q 665 1244 665 1251 q 617 1115 665 1160 q 489 1069 569 1069 q 361 1115 410 1069 q 313 1244 313 1160 q 319 1251 313 1251 l 388 1251 q 396 1226 389 1251 q 425 1174 403 1200 q 489 1149 447 1149 q 560 1178 539 1149 q 582 1244 582 1208 q 589 1251 582 1251 z "},"ğ":{"ha":842,"x_min":49,"x_max":726,"o":"m 726 696 l 726 26 q 636 -204 726 -119 q 394 -289 546 -289 q 180 -228 267 -289 q 85 -82 93 -168 q 92 -75 85 -75 l 186 -75 q 196 -82 193 -75 q 258 -158 206 -124 q 394 -192 310 -192 q 565 -127 514 -192 q 615 32 615 -62 l 615 76 q 610 83 615 82 q 603 79 606 83 q 520 15 578 44 q 376 -14 463 -14 q 140 88 232 -14 q 49 351 49 189 q 139 615 49 514 q 376 717 229 717 q 603 622 508 717 q 615 625 611 614 l 629 694 q 638 703 631 703 l 719 703 q 726 696 726 703 m 222 546 q 191 509 222 546 q 160 351 160 472 q 222 157 160 231 q 393 83 285 83 q 558 156 501 83 q 615 351 615 228 q 558 547 615 474 q 393 619 501 619 q 222 546 285 619 m 490 978 l 560 978 q 567 971 567 978 q 519 841 567 886 q 390 796 471 796 q 263 841 311 796 q 214 971 214 886 q 221 978 214 978 l 289 978 q 297 952 290 978 q 326 901 304 926 q 390 875 349 875 q 462 905 440 875 q 483 971 483 935 q 490 978 483 978 z "},"Ġ":{"ha":1004,"x_min":50,"x_max":911,"o":"m 803 392 l 803 432 q 796 439 803 439 l 496 439 q 489 446 489 439 l 489 529 q 496 536 489 536 l 904 536 q 911 529 911 536 l 911 6 q 904 0 911 0 l 828 0 q 817 10 818 0 l 803 115 q 790 118 800 131 q 666 25 749 64 q 489 -14 583 -14 q 164 124 278 -14 q 50 489 50 261 q 167 853 50 714 q 489 992 285 992 q 755 911 657 992 q 883 710 853 831 q 878 703 885 703 l 779 703 q 769 710 771 703 q 667 849 744 803 q 489 894 589 894 q 251 788 335 894 q 168 489 168 681 q 251 190 168 296 q 489 83 333 83 q 720 172 638 83 q 803 392 803 260 m 428 1251 l 550 1251 q 557 1244 557 1251 l 557 1122 q 550 1115 557 1115 l 428 1115 q 421 1122 421 1115 l 421 1244 q 428 1251 421 1251 z "},"ġ":{"ha":842,"x_min":49,"x_max":726,"o":"m 726 696 l 726 26 q 636 -204 726 -119 q 394 -289 546 -289 q 180 -228 267 -289 q 85 -82 93 -168 q 92 -75 85 -75 l 186 -75 q 196 -82 193 -75 q 258 -158 206 -124 q 394 -192 310 -192 q 565 -127 514 -192 q 615 32 615 -62 l 615 76 q 610 83 615 82 q 603 79 606 83 q 520 15 578 44 q 376 -14 463 -14 q 140 88 232 -14 q 49 351 49 189 q 139 615 49 514 q 376 717 229 717 q 603 622 508 717 q 615 625 611 614 l 629 694 q 638 703 631 703 l 719 703 q 726 696 726 703 m 222 546 q 191 509 222 546 q 160 351 160 472 q 222 157 160 231 q 393 83 285 83 q 558 156 501 83 q 615 351 615 228 q 558 547 615 474 q 393 619 501 619 q 222 546 285 619 m 338 978 l 460 978 q 467 971 467 978 l 467 849 q 460 842 467 842 l 338 842 q 331 849 331 842 l 331 971 q 338 978 331 978 z "},"Ģ":{"ha":1004,"x_min":50,"x_max":911,"o":"m 803 392 l 803 432 q 796 439 803 439 l 496 439 q 489 446 489 439 l 489 529 q 496 536 489 536 l 904 536 q 911 529 911 536 l 911 6 q 904 0 911 0 l 828 0 q 817 10 818 0 l 803 115 q 790 118 800 131 q 666 25 749 64 q 489 -14 583 -14 q 164 124 278 -14 q 50 489 50 261 q 167 853 50 714 q 489 992 285 992 q 755 911 657 992 q 883 710 853 831 q 878 703 885 703 l 779 703 q 769 710 771 703 q 667 849 744 803 q 489 894 589 894 q 251 788 335 894 q 168 489 168 681 q 251 190 168 296 q 489 83 333 83 q 720 172 638 83 q 803 392 803 260 m 474 -179 l 438 -179 q 431 -172 431 -179 l 431 -76 q 438 -69 431 -69 l 539 -69 q 546 -76 546 -69 l 546 -175 q 515 -258 546 -226 q 438 -289 485 -289 q 431 -282 431 -289 l 431 -242 q 438 -235 431 -235 q 467 -222 453 -235 q 481 -186 481 -208 q 474 -179 481 -179 z "},"ģ":{"ha":842,"x_min":49,"x_max":726,"o":"m 726 696 l 726 26 q 636 -204 726 -119 q 394 -289 546 -289 q 180 -228 267 -289 q 85 -82 93 -168 q 92 -75 85 -75 l 186 -75 q 196 -82 193 -75 q 258 -158 206 -124 q 394 -192 310 -192 q 565 -127 514 -192 q 615 32 615 -62 l 615 76 q 610 83 615 82 q 603 79 606 83 q 520 15 578 44 q 376 -14 463 -14 q 140 88 232 -14 q 49 351 49 189 q 139 615 49 514 q 376 717 229 717 q 603 622 508 717 q 615 625 611 614 l 629 694 q 638 703 631 703 l 719 703 q 726 696 726 703 m 222 546 q 191 509 222 546 q 160 351 160 472 q 222 157 160 231 q 393 83 285 83 q 558 156 501 83 q 615 351 615 228 q 558 547 615 474 q 393 619 501 619 q 222 546 285 619 m 414 882 l 450 882 q 457 875 457 882 l 457 779 q 450 772 457 772 l 349 772 q 342 779 342 772 l 342 878 q 372 960 342 929 q 450 992 403 992 q 457 985 457 992 l 457 944 q 450 938 457 938 q 421 924 435 938 q 407 889 407 911 q 414 882 407 882 z "},"Ĥ":{"ha":947,"x_min":117,"x_max":829,"o":"m 822 0 l 725 0 q 718 7 718 0 l 718 446 q 711 453 718 453 l 235 453 q 228 446 228 453 l 228 7 q 221 0 228 0 l 124 0 q 117 7 117 0 l 117 971 q 124 978 117 978 l 221 978 q 228 971 228 978 l 228 557 q 235 550 228 550 l 711 550 q 718 557 718 550 l 718 971 q 725 978 718 978 l 822 978 q 829 971 829 978 l 829 7 q 822 0 829 0 m 607 1072 l 533 1072 q 526 1076 528 1072 l 481 1158 q 474 1163 478 1163 q 467 1158 469 1163 l 422 1076 q 415 1072 419 1072 l 340 1072 q 333 1082 328 1072 l 406 1244 q 414 1251 408 1251 l 533 1251 q 542 1244 539 1251 l 614 1082 q 607 1072 619 1072 z "},"ĥ":{"ha":840,"x_min":25,"x_max":744,"o":"m 633 7 l 633 390 q 584 553 633 486 q 429 619 535 619 q 274 564 322 619 q 225 394 225 508 l 225 7 q 218 0 225 0 l 121 0 q 114 7 114 0 l 114 971 q 121 978 114 978 l 218 978 q 225 971 225 978 l 225 638 q 230 631 225 633 q 239 633 235 629 l 258 651 q 435 717 331 717 q 665 624 585 717 q 744 390 744 531 l 744 7 q 738 0 744 0 l 640 0 q 633 7 633 0 m 304 1072 l 231 1072 q 224 1076 225 1072 l 178 1158 q 171 1163 175 1163 q 164 1158 167 1163 l 119 1076 q 113 1072 117 1072 l 38 1072 q 31 1082 25 1072 l 103 1244 q 111 1251 106 1251 l 231 1251 q 239 1244 236 1251 l 311 1082 q 304 1072 317 1072 z "},"Ħ":{"ha":947,"x_min":14,"x_max":929,"o":"m 115 7 l 115 767 q 108 774 115 774 l 19 774 q 14 781 14 774 l 14 856 q 19 863 14 863 l 108 863 q 115 869 115 863 l 115 971 q 122 978 115 978 l 219 978 q 226 971 226 978 l 226 869 q 233 863 226 863 l 711 863 q 718 869 718 863 l 718 971 q 725 978 718 978 l 822 978 q 829 971 829 978 l 829 869 q 836 863 829 863 l 922 863 q 929 856 929 863 l 929 781 q 922 774 929 774 l 836 774 q 829 767 829 774 l 829 7 q 822 0 829 0 l 725 0 q 718 7 718 0 l 718 446 q 711 453 718 453 l 233 453 q 226 447 226 453 l 226 7 q 219 0 226 0 l 122 0 q 115 7 115 0 m 718 556 l 718 767 q 711 774 718 774 l 233 774 q 226 767 226 774 l 226 556 q 233 550 226 550 l 711 550 q 718 556 718 550 z "},"ħ":{"ha":840,"x_min":6,"x_max":744,"o":"m 633 7 l 633 390 q 584 552 633 486 q 429 618 535 618 q 273 563 321 618 q 225 394 225 508 l 225 7 q 218 0 225 0 l 121 0 q 114 7 114 0 l 114 767 q 107 774 114 774 l 13 774 q 6 781 6 774 l 6 856 q 13 863 6 863 l 107 863 q 114 869 114 863 l 114 971 q 121 978 114 978 l 218 978 q 225 971 225 978 l 225 869 q 232 863 225 863 l 442 863 q 449 856 449 863 l 449 781 q 442 774 449 774 l 232 774 q 225 767 225 774 l 225 638 q 232 631 225 631 q 239 633 236 631 q 446 715 321 715 q 667 621 590 715 q 744 390 744 526 l 744 7 q 738 0 744 0 l 640 0 q 633 7 633 0 z "},"Ĩ":{"ha":344,"x_min":-42,"x_max":386,"o":"m 122 978 l 219 978 q 226 971 226 978 l 226 7 q 219 0 226 0 l 122 0 q 115 7 115 0 l 115 971 q 122 978 115 978 m -42 1106 l -42 1129 q -9 1213 -42 1174 q 89 1251 24 1251 q 183 1219 133 1251 q 254 1188 233 1188 q 284 1200 269 1188 q 299 1244 299 1213 q 306 1251 299 1251 l 379 1251 q 386 1244 386 1251 l 386 1219 q 352 1138 386 1176 q 254 1099 318 1099 q 160 1131 214 1099 q 89 1163 107 1163 q 59 1150 74 1163 q 44 1106 44 1138 q 38 1099 44 1099 l -35 1099 q -42 1106 -42 1099 z "},"ĩ":{"ha":342,"x_min":-43,"x_max":385,"o":"m -43 832 l -43 856 q -10 939 -43 900 q 88 978 22 978 q 182 946 132 978 q 253 914 232 914 q 283 926 268 914 q 297 971 297 939 q 304 978 297 978 l 378 978 q 385 971 385 978 l 385 946 q 351 864 385 903 q 253 825 317 825 q 159 857 213 825 q 88 889 106 889 q 58 876 72 889 q 43 832 43 864 q 36 825 43 825 l -36 825 q -43 832 -43 825 m 121 703 l 218 703 q 225 696 225 703 l 225 7 q 218 0 225 0 l 121 0 q 114 7 114 0 l 114 696 q 121 703 114 703 z "},"Ī":{"ha":344,"x_min":-31,"x_max":375,"o":"m 122 978 l 219 978 q 226 971 226 978 l 226 7 q 219 0 226 0 l 122 0 q 115 7 115 0 l 115 971 q 122 978 115 978 m 368 1099 l -24 1099 q -31 1106 -31 1099 l -31 1183 q -24 1190 -31 1190 l 368 1190 q 375 1183 375 1190 l 375 1106 q 368 1099 375 1099 z "},"ī":{"ha":342,"x_min":-32,"x_max":374,"o":"m 367 825 l -25 825 q -32 832 -32 825 l -32 910 q -25 917 -32 917 l 367 917 q 374 910 374 917 l 374 832 q 367 825 374 825 m 121 703 l 218 703 q 225 696 225 703 l 225 7 q 218 0 225 0 l 121 0 q 114 7 114 0 l 114 696 q 121 703 114 703 z "},"Į":{"ha":344,"x_min":7,"x_max":232,"o":"m 122 978 l 219 978 q 226 971 226 978 l 226 7 q 219 0 226 0 l 206 0 q 131 -27 161 0 q 101 -94 101 -54 q 131 -161 101 -137 q 206 -185 160 -185 l 225 -185 q 232 -192 232 -185 l 232 -268 q 225 -275 232 -275 l 186 -275 q 56 -237 106 -275 q 7 -137 7 -199 q 107 0 7 -35 q 115 8 115 3 l 115 971 q 122 978 115 978 z "},"į":{"ha":342,"x_min":6,"x_max":236,"o":"m 121 703 l 218 703 q 225 696 225 703 l 225 7 q 218 0 225 0 l 204 0 q 130 -27 160 0 q 100 -94 100 -54 q 129 -161 100 -137 q 204 -185 158 -185 l 224 -185 q 231 -192 231 -185 l 231 -268 q 224 -275 231 -275 l 193 -275 q 58 -238 107 -275 q 6 -137 8 -201 q 106 0 6 -35 q 114 8 114 3 l 114 696 q 121 703 114 703 m 107 978 l 229 978 q 236 971 236 978 l 236 849 q 229 842 236 842 l 107 842 q 100 849 100 842 l 100 971 q 107 978 100 978 z "},"İ":{"ha":344,"x_min":103,"x_max":239,"o":"m 122 978 l 219 978 q 226 971 226 978 l 226 7 q 219 0 226 0 l 122 0 q 115 7 115 0 l 115 971 q 122 978 115 978 m 110 1251 l 232 1251 q 239 1244 239 1251 l 239 1122 q 232 1115 239 1115 l 110 1115 q 103 1122 103 1115 l 103 1244 q 110 1251 103 1251 z "},"ı":{"ha":342,"x_min":115,"x_max":226,"o":"m 122 703 l 219 703 q 226 696 226 703 l 226 7 q 219 0 226 0 l 122 0 q 115 7 115 0 l 115 696 q 122 703 115 703 z "},"Ĳ":{"ha":993,"x_min":115,"x_max":899,"o":"m 122 978 l 219 978 q 226 971 226 978 l 226 7 q 219 0 226 0 l 122 0 q 115 7 115 0 l 115 971 q 122 978 115 978 m 468 278 q 472 210 468 238 q 491 149 476 182 q 540 100 506 117 q 626 83 574 83 q 713 99 679 83 q 763 144 747 115 q 783 201 778 174 q 788 268 788 229 l 788 971 q 794 978 788 978 l 892 978 q 899 971 899 978 l 899 268 q 841 60 899 133 q 626 -14 783 -14 q 419 62 479 -14 q 358 271 358 138 l 358 278 q 365 285 358 285 l 461 285 q 468 278 468 285 z "},"ĳ":{"ha":682,"x_min":100,"x_max":578,"o":"m 567 696 l 567 -94 q 375 -275 567 -275 l 293 -275 q 286 -268 286 -275 l 286 -185 q 293 -178 286 -178 l 372 -178 q 433 -156 411 -178 q 456 -94 456 -133 l 456 696 q 463 703 456 703 l 560 703 q 567 696 567 703 m 121 703 l 218 703 q 225 696 225 703 l 225 7 q 218 0 225 0 l 121 0 q 114 7 114 0 l 114 696 q 121 703 114 703 m 449 978 l 571 978 q 578 971 578 978 l 578 849 q 571 842 578 842 l 449 842 q 442 849 442 842 l 442 971 q 449 978 442 978 m 107 978 l 229 978 q 236 971 236 978 l 236 849 q 229 842 236 842 l 107 842 q 100 849 100 842 l 100 971 q 107 978 100 978 z "},"Ĵ":{"ha":649,"x_min":14,"x_max":644,"o":"m 124 278 q 128 210 124 238 q 147 149 132 182 q 195 100 161 117 q 282 83 229 83 q 369 99 335 83 q 418 144 403 115 q 438 201 433 174 q 443 268 443 229 l 443 971 q 450 978 443 978 l 547 978 q 554 971 554 978 l 554 268 q 497 60 554 133 q 282 -14 439 -14 q 74 62 135 -14 q 14 271 14 138 l 14 278 q 21 285 14 285 l 117 285 q 124 278 124 285 m 632 1072 l 558 1072 q 551 1076 553 1072 l 506 1158 q 499 1163 503 1163 q 492 1158 494 1163 l 447 1076 q 440 1072 444 1072 l 365 1072 q 358 1082 353 1072 l 431 1244 q 439 1251 433 1251 l 558 1251 q 567 1244 564 1251 l 639 1082 q 632 1072 644 1072 z "},"ĵ":{"ha":342,"x_min":-54,"x_max":317,"o":"m 226 696 l 226 -94 q 35 -275 226 -275 l -47 -275 q -54 -268 -54 -275 l -54 -185 q -47 -178 -54 -178 l 32 -178 q 94 -156 72 -178 q 115 -94 115 -133 l 115 696 q 122 703 115 703 l 219 703 q 226 696 226 703 m 304 799 l 231 799 q 224 803 225 799 l 178 885 q 171 889 175 889 q 164 885 167 889 l 119 803 q 113 799 117 799 l 38 799 q 31 808 25 799 l 103 971 q 111 978 106 978 l 231 978 q 239 971 236 978 l 311 808 q 304 799 317 799 z "},"Ķ":{"ha":835,"x_min":117,"x_max":850,"o":"m 842 0 l 728 0 q 715 8 721 0 l 382 515 q 374 515 379 521 l 236 379 q 228 361 228 371 l 228 7 q 221 0 228 0 l 124 0 q 117 7 117 0 l 117 971 q 124 978 117 978 l 221 978 q 228 971 228 978 l 228 533 q 231 529 228 531 q 238 531 235 528 l 688 972 q 700 978 693 978 l 828 978 q 832 975 831 978 q 831 969 833 972 l 464 607 q 463 592 457 600 l 846 8 q 842 0 850 0 m 421 -179 l 385 -179 q 378 -172 378 -179 l 378 -76 q 385 -69 378 -69 l 486 -69 q 493 -76 493 -69 l 493 -175 q 463 -258 493 -226 q 385 -289 432 -289 q 378 -282 378 -289 l 378 -242 q 385 -235 378 -235 q 414 -222 400 -235 q 428 -186 428 -208 q 421 -179 428 -179 z "},"ķ":{"ha":769,"x_min":114,"x_max":776,"o":"m 747 696 l 500 483 q 500 475 497 481 l 772 7 q 768 0 776 0 l 664 0 q 654 6 658 0 l 422 406 q 410 407 418 414 l 231 254 q 225 242 225 249 l 225 7 q 218 0 225 0 l 121 0 q 114 7 114 0 l 114 971 q 121 978 114 978 l 218 978 q 225 971 225 978 l 225 399 q 228 394 225 394 q 235 396 232 393 l 586 696 q 601 703 594 703 l 744 703 q 748 700 747 703 q 747 696 749 697 m 400 -179 l 364 -179 q 357 -172 357 -179 l 357 -76 q 364 -69 357 -69 l 465 -69 q 472 -76 472 -69 l 472 -175 q 442 -258 472 -226 q 364 -289 411 -289 q 357 -282 357 -289 l 357 -242 q 364 -235 357 -235 q 393 -222 379 -235 q 407 -186 407 -208 q 400 -179 407 -179 z "},"ĸ":{"ha":769,"x_min":114,"x_max":776,"o":"m 747 696 l 500 483 q 500 475 497 481 l 772 7 q 768 0 776 0 l 664 0 q 654 6 658 0 l 422 406 q 410 407 418 414 l 231 254 q 225 242 225 249 l 225 7 q 218 0 225 0 l 121 0 q 114 7 114 0 l 114 696 q 121 703 114 703 l 218 703 q 225 696 225 703 l 225 399 q 228 394 225 394 q 235 396 232 393 l 586 696 q 601 703 594 703 l 744 703 q 748 700 747 703 q 747 696 749 697 z "},"Ĺ":{"ha":760,"x_min":117,"x_max":740,"o":"m 733 0 l 124 0 q 117 7 117 0 l 117 971 q 124 978 117 978 l 221 978 q 228 971 228 978 l 228 104 q 235 97 228 97 l 733 97 q 740 90 740 97 l 740 7 q 733 0 740 0 m 217 1072 l 144 1072 q 138 1082 133 1072 l 207 1242 q 221 1251 210 1251 l 328 1251 q 335 1249 332 1251 q 335 1242 338 1246 l 232 1082 q 217 1072 225 1072 z "},"ĺ":{"ha":342,"x_min":114,"x_max":336,"o":"m 121 978 l 218 978 q 225 971 225 978 l 225 7 q 218 0 225 0 l 121 0 q 114 7 114 0 l 114 971 q 121 978 114 978 m 215 1072 l 143 1072 q 136 1082 131 1072 l 206 1242 q 219 1251 208 1251 l 326 1251 q 333 1249 331 1251 q 333 1242 336 1246 l 231 1082 q 215 1072 224 1072 z "},"Ļ":{"ha":760,"x_min":117,"x_max":740,"o":"m 733 0 l 124 0 q 117 7 117 0 l 117 971 q 124 978 117 978 l 221 978 q 228 971 228 978 l 228 104 q 235 97 228 97 l 733 97 q 740 90 740 97 l 740 7 q 733 0 740 0 m 414 -179 l 378 -179 q 371 -172 371 -179 l 371 -76 q 378 -69 371 -69 l 479 -69 q 486 -76 486 -69 l 486 -175 q 456 -258 486 -226 q 378 -289 425 -289 q 371 -282 371 -289 l 371 -242 q 378 -235 371 -235 q 407 -222 393 -235 q 421 -186 421 -208 q 414 -179 421 -179 z "},"ļ":{"ha":342,"x_min":114,"x_max":229,"o":"m 121 978 l 218 978 q 225 971 225 978 l 225 7 q 218 0 225 0 l 121 0 q 114 7 114 0 l 114 971 q 121 978 114 978 m 157 -179 l 121 -179 q 114 -172 114 -179 l 114 -76 q 121 -69 114 -69 l 222 -69 q 229 -76 229 -69 l 229 -175 q 199 -258 229 -226 q 121 -289 168 -289 q 114 -282 114 -289 l 114 -242 q 121 -235 114 -235 q 150 -222 136 -235 q 164 -186 164 -208 q 157 -179 164 -179 z "},"Ľ":{"ha":756,"x_min":117,"x_max":740,"o":"m 733 0 l 124 0 q 117 7 117 0 l 117 971 q 124 978 117 978 l 221 978 q 228 971 228 978 l 228 104 q 235 97 228 97 l 733 97 q 740 90 740 97 l 740 7 q 733 0 740 0 m 326 868 l 290 868 q 283 875 283 868 l 283 971 q 290 978 283 978 l 392 978 q 399 971 399 978 l 399 872 q 368 790 399 821 q 290 758 338 758 q 283 765 283 758 l 283 806 q 290 813 283 813 q 319 826 306 813 q 333 861 333 839 q 326 868 333 868 z "},"ľ":{"ha":339,"x_min":114,"x_max":396,"o":"m 121 978 l 218 978 q 225 971 225 978 l 225 7 q 218 0 225 0 l 121 0 q 114 7 114 0 l 114 971 q 121 978 114 978 m 324 868 l 288 868 q 281 875 281 868 l 281 971 q 288 978 281 978 l 389 978 q 396 971 396 978 l 396 872 q 365 790 396 821 q 288 758 335 758 q 281 765 281 758 l 281 806 q 288 813 281 813 q 317 826 303 813 q 331 861 331 839 q 324 868 331 868 z "},"Ŀ":{"ha":760,"x_min":117,"x_max":740,"o":"m 733 0 l 124 0 q 117 7 117 0 l 117 971 q 124 978 117 978 l 221 978 q 228 971 228 978 l 228 104 q 235 97 228 97 l 733 97 q 740 90 740 97 l 740 7 q 733 0 740 0 m 383 557 l 506 557 q 513 550 513 557 l 513 428 q 506 421 513 421 l 383 421 q 376 428 376 421 l 376 550 q 383 557 376 557 z "},"ŀ":{"ha":411,"x_min":114,"x_max":417,"o":"m 121 978 l 218 978 q 225 971 225 978 l 225 7 q 218 0 225 0 l 121 0 q 114 7 114 0 l 114 971 q 121 978 114 978 m 288 557 l 410 557 q 417 550 417 557 l 417 428 q 410 421 417 421 l 288 421 q 281 428 281 421 l 281 550 q 288 557 281 557 z "},"Ł":{"ha":778,"x_min":25,"x_max":757,"o":"m 133 7 l 133 432 q 129 438 133 436 q 121 438 125 440 l 36 379 q 29 378 33 376 q 25 383 25 379 l 25 469 q 29 476 25 475 l 126 547 q 133 560 133 551 l 133 971 q 140 978 133 978 l 238 978 q 244 971 244 978 l 244 644 q 249 638 244 640 q 256 639 253 636 l 340 700 q 351 696 351 707 l 351 603 q 342 592 351 599 l 249 528 q 244 518 244 525 l 244 103 q 251 97 244 97 l 750 97 q 757 90 757 97 l 757 7 q 750 0 757 0 l 140 0 q 133 7 133 0 z "},"ł":{"ha":339,"x_min":6,"x_max":332,"o":"m 114 7 l 114 432 q 110 438 114 436 q 101 438 106 440 l 17 379 q 10 378 14 376 q 6 383 6 379 l 6 469 q 10 476 6 475 l 107 547 q 114 560 114 551 l 114 971 q 121 978 114 978 l 218 978 q 225 971 225 978 l 225 644 q 229 638 225 640 q 236 639 233 636 l 321 700 q 332 696 332 707 l 332 603 q 322 592 332 599 l 229 528 q 225 518 225 525 l 225 7 q 218 0 225 0 l 121 0 q 114 7 114 0 z "},"Ń":{"ha":978,"x_min":117,"x_max":861,"o":"m 757 978 l 854 978 q 861 971 861 978 l 861 7 q 854 0 861 0 l 688 0 q 678 7 681 0 l 242 858 q 235 865 239 864 q 230 863 232 865 q 228 857 228 861 l 228 7 q 221 0 228 0 l 124 0 q 117 7 117 0 l 117 971 q 124 978 117 978 l 293 978 q 300 971 297 978 l 736 118 q 745 111 740 110 q 750 119 750 113 l 750 971 q 757 978 750 978 m 550 1072 l 478 1072 q 471 1082 467 1072 l 540 1242 q 554 1251 543 1251 l 661 1251 q 668 1249 665 1251 q 668 1242 671 1246 l 565 1082 q 550 1072 558 1072 z "},"ń":{"ha":840,"x_min":114,"x_max":744,"o":"m 633 7 l 633 379 q 584 551 633 483 q 429 619 535 619 q 225 371 225 619 l 225 7 q 218 0 225 0 l 121 0 q 114 7 114 0 l 114 696 q 121 703 114 703 l 203 703 q 211 696 210 703 l 225 626 q 231 619 226 621 q 238 624 235 618 q 265 656 244 638 q 336 696 286 675 q 446 717 386 717 q 672 626 599 717 q 744 379 744 535 l 744 7 q 738 0 744 0 l 640 0 q 633 7 633 0 m 489 799 l 417 799 q 410 808 406 799 l 479 968 q 493 978 482 978 l 600 978 q 607 975 604 978 q 607 968 610 972 l 504 808 q 489 799 497 799 z "},"Ņ":{"ha":978,"x_min":117,"x_max":861,"o":"m 757 978 l 854 978 q 861 971 861 978 l 861 7 q 854 0 861 0 l 688 0 q 678 7 681 0 l 242 858 q 235 865 239 864 q 230 863 232 865 q 228 857 228 861 l 228 7 q 221 0 228 0 l 124 0 q 117 7 117 0 l 117 971 q 124 978 117 978 l 293 978 q 300 971 297 978 l 736 118 q 745 111 740 110 q 750 119 750 113 l 750 971 q 757 978 750 978 m 485 -179 l 449 -179 q 442 -172 442 -179 l 442 -76 q 449 -69 442 -69 l 550 -69 q 557 -76 557 -69 l 557 -175 q 526 -258 557 -226 q 449 -289 496 -289 q 442 -282 442 -289 l 442 -242 q 449 -235 442 -235 q 478 -222 464 -235 q 492 -186 492 -208 q 485 -179 492 -179 z "},"ņ":{"ha":840,"x_min":114,"x_max":744,"o":"m 633 7 l 633 379 q 584 551 633 483 q 429 619 535 619 q 225 371 225 619 l 225 7 q 218 0 225 0 l 121 0 q 114 7 114 0 l 114 696 q 121 703 114 703 l 203 703 q 211 696 210 703 l 225 626 q 231 619 226 621 q 238 624 235 618 q 265 656 244 638 q 336 696 286 675 q 446 717 386 717 q 672 626 599 717 q 744 379 744 535 l 744 7 q 738 0 744 0 l 640 0 q 633 7 633 0 m 413 -179 l 376 -179 q 369 -172 369 -179 l 369 -76 q 376 -69 369 -69 l 478 -69 q 485 -76 485 -69 l 485 -175 q 454 -258 485 -226 q 376 -289 424 -289 q 369 -282 369 -289 l 369 -242 q 376 -235 369 -235 q 406 -222 392 -235 q 419 -186 419 -208 q 413 -179 419 -179 z "},"Ň":{"ha":978,"x_min":117,"x_max":861,"o":"m 757 978 l 854 978 q 861 971 861 978 l 861 7 q 854 0 861 0 l 688 0 q 678 7 681 0 l 242 858 q 235 865 239 864 q 230 863 232 865 q 228 857 228 861 l 228 7 q 221 0 228 0 l 124 0 q 117 7 117 0 l 117 971 q 124 978 117 978 l 293 978 q 300 971 297 978 l 736 118 q 745 111 740 110 q 750 119 750 113 l 750 971 q 757 978 750 978 m 563 1251 l 636 1251 q 643 1242 647 1251 l 571 1079 q 563 1072 568 1072 l 443 1072 q 435 1079 438 1072 l 363 1242 q 369 1251 358 1251 l 444 1251 q 451 1247 450 1251 l 496 1165 q 503 1161 497 1161 q 510 1165 508 1161 l 556 1247 q 563 1251 558 1251 z "},"ň":{"ha":840,"x_min":114,"x_max":744,"o":"m 633 7 l 633 379 q 584 551 633 483 q 429 619 535 619 q 225 371 225 619 l 225 7 q 218 0 225 0 l 121 0 q 114 7 114 0 l 114 696 q 121 703 114 703 l 203 703 q 211 696 210 703 l 225 626 q 231 619 226 621 q 238 624 235 618 q 265 656 244 638 q 336 696 286 675 q 446 717 386 717 q 672 626 599 717 q 744 379 744 535 l 744 7 q 738 0 744 0 l 640 0 q 633 7 633 0 m 488 978 l 561 978 q 568 968 572 978 l 496 806 q 488 799 493 799 l 368 799 q 360 806 363 799 l 288 968 q 294 978 283 978 l 369 978 q 376 974 375 978 l 421 892 q 428 888 422 888 q 435 892 433 888 l 481 974 q 488 978 483 978 z "},"ŉ":{"ha":840,"x_min":57,"x_max":744,"o":"m 633 7 l 633 379 q 584 551 633 483 q 429 619 535 619 q 225 371 225 619 l 225 7 q 218 0 225 0 l 121 0 q 114 7 114 0 l 114 696 q 121 703 114 703 l 203 703 q 211 696 210 703 l 225 626 q 231 619 226 621 q 238 624 235 618 q 265 656 244 638 q 336 696 286 675 q 446 717 386 717 q 672 626 599 717 q 744 379 744 535 l 744 7 q 738 0 744 0 l 640 0 q 633 7 633 0 m 100 868 l 64 868 q 57 875 57 868 l 57 971 q 64 978 57 978 l 165 978 q 172 971 172 978 l 172 872 q 142 790 172 821 q 64 758 111 758 q 57 765 57 758 l 57 806 q 64 813 57 813 q 93 826 79 813 q 107 861 107 839 q 100 868 107 868 z "},"Ō":{"ha":978,"x_min":50,"x_max":926,"o":"m 489 -14 q 163 124 276 -14 q 50 489 50 261 q 163 854 50 717 q 489 992 276 992 q 813 854 700 992 q 926 489 926 717 q 813 124 926 261 q 489 -14 700 -14 m 251 190 q 292 136 251 190 q 489 83 333 83 q 726 190 644 83 q 808 489 808 296 q 726 788 808 682 q 489 894 643 894 q 251 788 333 894 q 168 489 168 682 q 251 190 168 296 m 685 1099 l 293 1099 q 286 1106 286 1099 l 286 1183 q 293 1190 286 1190 l 685 1190 q 692 1183 692 1190 l 692 1106 q 685 1099 692 1099 z "},"ō":{"ha":789,"x_min":50,"x_max":739,"o":"m 647 617 q 693 567 647 617 q 739 351 739 517 q 647 86 739 186 q 394 -14 554 -14 q 142 86 233 -14 q 50 351 50 186 q 142 618 50 518 q 394 718 233 718 q 647 617 554 718 m 565 157 q 597 194 565 157 q 628 351 628 231 q 565 546 628 472 q 394 619 503 619 q 224 546 286 619 q 161 351 161 472 q 224 157 161 231 q 394 83 286 83 q 565 157 503 83 m 590 825 l 199 825 q 192 832 192 825 l 192 910 q 199 917 192 917 l 590 917 q 597 910 597 917 l 597 832 q 590 825 597 825 z "},"Ŏ":{"ha":978,"x_min":50,"x_max":926,"o":"m 489 -14 q 163 124 276 -14 q 50 489 50 261 q 163 854 50 717 q 489 992 276 992 q 813 854 700 992 q 926 489 926 717 q 813 124 926 261 q 489 -14 700 -14 m 251 190 q 292 136 251 190 q 489 83 333 83 q 726 190 644 83 q 808 489 808 296 q 726 788 808 682 q 489 894 643 894 q 251 788 333 894 q 168 489 168 682 q 251 190 168 296 m 588 1251 l 657 1251 q 664 1244 664 1251 q 616 1115 664 1160 q 488 1069 568 1069 q 360 1115 408 1069 q 311 1244 311 1160 q 318 1251 311 1251 l 386 1251 q 394 1226 388 1251 q 424 1174 401 1200 q 488 1149 446 1149 q 559 1178 538 1149 q 581 1244 581 1208 q 588 1251 581 1251 z "},"ŏ":{"ha":789,"x_min":50,"x_max":739,"o":"m 647 617 q 693 567 647 617 q 739 351 739 517 q 647 86 739 186 q 394 -14 554 -14 q 142 86 233 -14 q 50 351 50 186 q 142 618 50 518 q 394 718 233 718 q 647 617 554 718 m 565 157 q 597 194 565 157 q 628 351 628 231 q 565 546 628 472 q 394 619 503 619 q 224 546 286 619 q 161 351 161 472 q 224 157 161 231 q 394 83 286 83 q 565 157 503 83 m 493 978 l 563 978 q 569 971 569 978 q 522 841 569 886 q 393 796 474 796 q 265 841 314 796 q 217 971 217 886 q 224 978 217 978 l 292 978 q 300 952 293 978 q 329 901 307 926 q 393 875 351 875 q 465 905 443 875 q 486 971 486 935 q 493 978 486 978 z "},"Ő":{"ha":978,"x_min":50,"x_max":926,"o":"m 489 -14 q 163 124 276 -14 q 50 489 50 261 q 163 854 50 717 q 489 992 276 992 q 813 854 700 992 q 926 489 926 717 q 813 124 926 261 q 489 -14 700 -14 m 251 190 q 292 136 251 190 q 489 83 333 83 q 726 190 644 83 q 808 489 808 296 q 726 788 808 682 q 489 894 643 894 q 251 788 333 894 q 168 489 168 682 q 251 190 168 296 m 642 1072 l 571 1072 q 564 1082 558 1072 l 633 1242 q 647 1251 636 1251 l 754 1251 q 761 1242 767 1251 l 657 1082 q 642 1072 650 1072 m 386 1072 l 315 1072 q 308 1082 303 1072 l 378 1242 q 392 1251 381 1251 l 499 1251 q 506 1242 511 1251 l 401 1082 q 386 1072 394 1072 z "},"ő":{"ha":789,"x_min":50,"x_max":739,"o":"m 647 617 q 693 567 647 617 q 739 351 739 517 q 647 86 739 186 q 394 -14 554 -14 q 142 86 233 -14 q 50 351 50 186 q 142 618 50 518 q 394 718 233 718 q 647 617 554 718 m 565 157 q 597 194 565 157 q 628 351 628 231 q 565 546 628 472 q 394 619 503 619 q 224 546 286 619 q 161 351 161 472 q 224 157 161 231 q 394 83 286 83 q 565 157 503 83 m 549 799 l 478 799 q 471 808 467 799 l 540 968 q 554 978 543 978 l 661 978 q 668 968 672 978 l 564 808 q 549 799 557 799 m 293 799 l 222 799 q 215 808 211 799 l 285 968 q 299 978 288 978 l 406 978 q 413 968 417 978 l 308 808 q 293 799 301 799 z "},"Œ":{"ha":1439,"x_min":50,"x_max":1401,"o":"m 461 -14 q 151 121 251 -14 q 50 489 50 256 q 151 857 50 722 q 461 992 251 992 q 620 962 554 992 q 744 874 686 932 q 753 875 753 865 l 753 971 q 760 978 753 978 l 1394 978 q 1401 971 1401 978 l 1401 888 q 1394 881 1401 881 l 871 881 q 864 874 864 881 l 864 557 q 871 550 864 550 l 1333 550 q 1340 543 1340 550 l 1340 460 q 1333 453 1340 453 l 871 453 q 864 446 864 453 l 864 104 q 871 97 864 97 l 1394 97 q 1401 90 1401 97 l 1401 7 q 1394 0 1401 0 l 760 0 q 753 7 753 0 l 753 108 q 750 113 753 111 q 744 110 747 114 q 628 20 703 54 q 461 -14 554 -14 m 461 83 q 753 489 753 83 q 461 894 753 894 q 168 489 168 894 q 461 83 168 83 z "},"œ":{"ha":1340,"x_min":49,"x_max":1292,"o":"m 1281 308 l 746 308 q 739 301 739 308 q 799 147 739 213 q 957 82 858 82 q 1149 182 1092 82 q 1158 189 1153 189 l 1260 189 q 1268 182 1269 189 q 1158 37 1242 88 q 957 -14 1074 -14 q 797 21 868 -14 q 686 119 725 56 q 674 119 681 129 q 393 -14 590 -14 q 141 86 233 -14 q 49 351 49 186 q 140 617 49 517 q 393 717 232 717 q 556 681 482 717 q 674 585 629 644 q 686 585 681 576 q 957 717 782 717 q 1202 617 1113 717 q 1292 351 1292 517 q 1281 308 1292 308 m 626 351 q 564 546 626 472 q 393 619 501 619 q 223 546 285 619 q 161 351 161 472 q 223 156 161 229 q 393 82 285 82 q 564 156 501 82 q 626 351 626 229 m 1172 411 q 1117 556 1172 490 q 957 621 1063 621 q 798 551 856 621 q 739 411 740 482 q 746 406 739 406 l 1165 406 q 1172 411 1172 406 z "},"Ŕ":{"ha":861,"x_min":115,"x_max":825,"o":"m 219 0 l 122 0 q 115 7 115 0 l 115 971 q 122 978 115 978 l 531 978 q 729 894 650 978 q 808 688 808 811 q 763 528 808 599 q 640 418 718 457 q 640 410 638 417 l 821 7 q 815 0 825 0 l 719 0 q 707 7 711 0 l 535 392 q 525 399 531 399 l 233 399 q 226 392 226 399 l 226 7 q 219 0 226 0 m 517 881 l 233 881 q 226 874 226 881 l 226 503 q 233 496 226 496 l 518 496 q 647 554 596 496 q 697 688 697 613 q 646 822 697 764 q 517 881 594 881 m 464 1072 l 392 1072 q 385 1082 381 1072 l 454 1242 q 468 1251 457 1251 l 575 1251 q 582 1249 579 1251 q 582 1242 585 1246 l 479 1082 q 464 1072 472 1072 z "},"ŕ":{"ha":517,"x_min":114,"x_max":501,"o":"m 114 7 l 114 696 q 121 703 114 703 l 203 703 q 211 696 210 703 l 225 626 q 231 619 226 621 q 239 624 235 618 q 432 717 311 717 l 494 717 q 501 710 501 717 l 501 614 q 494 607 501 607 l 436 607 q 275 552 325 607 q 225 382 225 497 l 225 7 q 218 0 225 0 l 121 0 q 114 7 114 0 m 340 799 l 268 799 q 261 808 256 799 l 331 968 q 344 978 333 978 l 451 978 q 458 975 456 978 q 458 968 461 972 l 356 808 q 340 799 349 799 z "},"Ŗ":{"ha":861,"x_min":115,"x_max":825,"o":"m 219 0 l 122 0 q 115 7 115 0 l 115 971 q 122 978 115 978 l 531 978 q 729 894 650 978 q 808 688 808 811 q 763 528 808 599 q 640 418 718 457 q 640 410 638 417 l 821 7 q 815 0 825 0 l 719 0 q 707 7 711 0 l 535 392 q 525 399 531 399 l 233 399 q 226 392 226 399 l 226 7 q 219 0 226 0 m 517 881 l 233 881 q 226 874 226 881 l 226 503 q 233 496 226 496 l 518 496 q 647 554 596 496 q 697 688 697 613 q 646 822 697 764 q 517 881 594 881 m 422 -179 l 386 -179 q 379 -172 379 -179 l 379 -76 q 386 -69 379 -69 l 488 -69 q 494 -76 494 -69 l 494 -175 q 464 -258 494 -226 q 386 -289 433 -289 q 379 -282 379 -289 l 379 -242 q 386 -235 379 -235 q 415 -222 401 -235 q 429 -186 429 -208 q 422 -179 429 -179 z "},"ŗ":{"ha":517,"x_min":114,"x_max":501,"o":"m 114 7 l 114 696 q 121 703 114 703 l 203 703 q 211 696 210 703 l 225 626 q 231 619 226 621 q 239 624 235 618 q 432 717 311 717 l 494 717 q 501 710 501 717 l 501 614 q 494 607 501 607 l 436 607 q 275 552 325 607 q 225 382 225 497 l 225 7 q 218 0 225 0 l 121 0 q 114 7 114 0 m 157 -179 l 121 -179 q 114 -172 114 -179 l 114 -76 q 121 -69 114 -69 l 222 -69 q 229 -76 229 -69 l 229 -175 q 199 -258 229 -226 q 121 -289 168 -289 q 114 -282 114 -289 l 114 -242 q 121 -235 114 -235 q 150 -222 136 -235 q 164 -186 164 -208 q 157 -179 164 -179 z "},"Ř":{"ha":861,"x_min":115,"x_max":825,"o":"m 219 0 l 122 0 q 115 7 115 0 l 115 971 q 122 978 115 978 l 531 978 q 729 894 650 978 q 808 688 808 811 q 763 528 808 599 q 640 418 718 457 q 640 410 638 417 l 821 7 q 815 0 825 0 l 719 0 q 707 7 711 0 l 535 392 q 525 399 531 399 l 233 399 q 226 392 226 399 l 226 7 q 219 0 226 0 m 517 881 l 233 881 q 226 874 226 881 l 226 503 q 233 496 226 496 l 518 496 q 647 554 596 496 q 697 688 697 613 q 646 822 697 764 q 517 881 594 881 m 478 1251 l 551 1251 q 558 1242 564 1251 l 486 1079 q 478 1072 483 1072 l 358 1072 q 350 1079 353 1072 l 278 1242 q 285 1251 272 1251 l 360 1251 q 367 1247 364 1251 l 411 1165 q 418 1161 414 1161 q 425 1165 422 1161 l 471 1247 q 478 1251 472 1251 z "},"ř":{"ha":517,"x_min":114,"x_max":501,"o":"m 114 7 l 114 696 q 121 703 114 703 l 203 703 q 211 696 210 703 l 225 626 q 231 619 226 621 q 239 624 235 618 q 432 717 311 717 l 494 717 q 501 710 501 717 l 501 614 q 494 607 501 607 l 436 607 q 275 552 325 607 q 225 382 225 497 l 225 7 q 218 0 225 0 l 121 0 q 114 7 114 0 m 361 978 l 435 978 q 442 968 447 978 l 369 806 q 361 799 367 799 l 242 799 q 233 806 236 799 l 161 968 q 168 978 156 978 l 243 978 q 250 974 247 978 l 294 892 q 301 888 297 888 q 308 892 306 888 l 354 974 q 361 978 356 978 z "},"Ś":{"ha":831,"x_min":49,"x_max":782,"o":"m 161 268 q 232 140 161 196 q 415 83 303 83 q 594 135 519 83 q 669 271 669 186 q 601 403 669 364 q 415 453 533 443 q 310 467 357 458 q 215 494 264 475 q 135 540 167 513 q 82 613 103 568 q 61 718 61 658 q 163 917 61 842 q 399 992 264 992 q 564 962 488 992 q 692 866 640 932 q 743 710 743 800 q 736 703 743 703 l 638 703 q 631 710 631 703 q 565 844 631 794 q 399 894 499 894 q 240 844 307 894 q 174 718 174 794 q 228 607 174 649 q 415 553 282 565 q 518 540 476 547 q 614 515 560 533 q 701 467 668 496 q 758 389 735 439 q 782 271 782 339 q 679 65 782 143 q 415 -14 576 -14 q 147 68 246 -14 q 49 268 49 150 q 56 275 49 275 l 154 275 q 161 268 161 275 m 447 1072 l 375 1072 q 368 1082 364 1072 l 438 1242 q 451 1251 440 1251 l 558 1251 q 565 1249 563 1251 q 565 1242 568 1246 l 463 1082 q 447 1072 456 1072 z "},"ś":{"ha":724,"x_min":44,"x_max":664,"o":"m 157 236 q 203 131 157 178 q 354 83 250 83 q 553 204 553 83 q 516 276 553 251 q 425 306 479 301 q 306 320 371 311 q 188 342 242 329 q 97 399 133 356 q 60 515 60 443 q 140 659 60 601 q 340 717 219 717 q 560 653 475 717 q 646 467 646 589 q 639 460 646 460 l 540 460 q 533 467 533 460 q 483 580 533 540 q 340 619 432 619 q 217 589 263 619 q 171 515 171 558 q 208 449 171 472 q 299 419 244 425 q 417 403 353 414 q 536 377 482 392 q 627 319 590 363 q 664 204 664 275 q 582 40 664 94 q 354 -14 500 -14 q 124 58 204 -14 q 44 236 44 131 q 51 243 44 243 l 150 243 q 157 236 157 243 m 381 799 l 308 799 q 301 808 297 799 l 371 968 q 385 978 374 978 l 492 978 q 499 975 496 978 q 499 968 501 972 l 396 808 q 381 799 389 799 z "},"Ŝ":{"ha":831,"x_min":49,"x_max":782,"o":"m 161 268 q 232 140 161 196 q 415 83 303 83 q 594 135 519 83 q 669 271 669 186 q 601 403 669 364 q 415 453 533 443 q 310 467 357 458 q 215 494 264 475 q 135 540 167 513 q 82 613 103 568 q 61 718 61 658 q 163 917 61 842 q 399 992 264 992 q 564 962 488 992 q 692 866 640 932 q 743 710 743 800 q 736 703 743 703 l 638 703 q 631 710 631 703 q 565 844 631 794 q 399 894 499 894 q 240 844 307 894 q 174 718 174 794 q 228 607 174 649 q 415 553 282 565 q 518 540 476 547 q 614 515 560 533 q 701 467 668 496 q 758 389 735 439 q 782 271 782 339 q 679 65 782 143 q 415 -14 576 -14 q 147 68 246 -14 q 49 268 49 150 q 56 275 49 275 l 154 275 q 161 268 161 275 m 544 1072 l 471 1072 q 464 1076 467 1072 l 418 1158 q 411 1163 417 1163 q 404 1158 406 1163 l 360 1076 q 353 1072 358 1072 l 278 1072 q 271 1082 267 1072 l 343 1244 q 351 1251 346 1251 l 471 1251 q 479 1244 476 1251 l 551 1082 q 544 1072 556 1072 z "},"ŝ":{"ha":724,"x_min":44,"x_max":664,"o":"m 157 236 q 203 131 157 178 q 354 83 250 83 q 553 204 553 83 q 516 276 553 251 q 425 306 479 301 q 306 320 371 311 q 188 342 242 329 q 97 399 133 356 q 60 515 60 443 q 140 659 60 601 q 340 717 219 717 q 560 653 475 717 q 646 467 646 589 q 639 460 646 460 l 540 460 q 533 467 533 460 q 483 580 533 540 q 340 619 432 619 q 217 589 263 619 q 171 515 171 558 q 208 449 171 472 q 299 419 244 425 q 417 403 353 414 q 536 377 482 392 q 627 319 590 363 q 664 204 664 275 q 582 40 664 94 q 354 -14 500 -14 q 124 58 204 -14 q 44 236 44 131 q 51 243 44 243 l 150 243 q 157 236 157 243 m 475 799 l 401 799 q 394 803 397 799 l 349 885 q 342 889 347 889 q 335 885 336 889 l 290 803 q 283 799 289 799 l 208 799 q 201 808 197 799 l 274 971 q 282 978 276 978 l 401 978 q 410 971 407 978 l 482 808 q 475 799 486 799 z "},"Ş":{"ha":831,"x_min":49,"x_max":782,"o":"m 161 268 q 232 140 161 196 q 415 83 303 83 q 594 135 519 83 q 669 271 669 186 q 649 356 669 321 q 591 409 629 390 q 513 438 553 428 q 415 453 472 447 q 284 473 340 460 q 174 515 228 486 q 90 594 119 543 q 61 718 61 646 q 163 917 61 842 q 399 992 264 992 q 564 962 488 992 q 692 866 640 932 q 743 710 743 800 q 736 703 743 703 l 638 703 q 631 710 631 703 q 565 844 631 794 q 399 894 499 894 q 240 844 307 894 q 174 718 174 794 q 228 606 174 647 q 415 553 282 565 q 517 540 476 546 q 614 514 558 533 q 702 467 669 494 q 758 389 735 439 q 782 271 782 339 q 706 88 782 161 q 501 -7 629 14 q 482 -18 494 -8 l 429 -62 q 436 -74 418 -74 q 513 -100 478 -74 q 549 -176 549 -126 q 511 -256 549 -224 q 408 -289 474 -289 q 315 -256 350 -289 q 281 -176 281 -222 q 288 -169 281 -169 l 338 -169 q 344 -176 344 -169 q 362 -214 344 -194 q 408 -233 379 -233 q 456 -216 436 -233 q 476 -176 476 -199 q 450 -123 476 -142 q 399 -110 424 -104 q 378 -106 385 -112 l 363 -90 q 364 -75 356 -83 l 413 -25 q 415 -17 417 -22 q 408 -12 414 -12 q 147 69 244 -12 q 49 268 49 151 q 56 275 49 275 l 153 275 q 161 268 161 275 z "},"ş":{"ha":724,"x_min":44,"x_max":664,"o":"m 157 236 q 203 131 157 178 q 354 83 250 83 q 553 204 553 83 q 502 284 553 260 q 379 314 451 308 q 234 330 307 319 q 110 385 161 340 q 60 515 60 431 q 140 659 60 601 q 340 717 219 717 q 560 653 475 717 q 646 467 644 589 q 639 460 646 460 l 540 460 q 533 467 533 460 q 483 580 533 540 q 340 619 432 619 q 217 589 263 619 q 171 515 171 558 q 215 442 171 464 q 351 411 260 419 l 358 411 q 453 400 418 406 q 534 381 489 394 q 604 347 579 367 q 647 290 629 326 q 664 204 664 254 q 436 -8 664 22 l 415 -21 l 367 -62 q 364 -69 363 -65 q 369 -74 365 -74 q 448 -100 411 -74 q 485 -176 485 -126 q 447 -256 485 -224 q 344 -289 410 -289 q 251 -256 286 -289 q 217 -176 217 -222 q 224 -169 217 -169 l 274 -169 q 281 -176 281 -169 q 298 -214 281 -194 q 344 -233 315 -233 q 392 -216 372 -233 q 413 -176 413 -199 q 386 -123 413 -142 q 335 -110 360 -104 q 314 -106 321 -112 l 299 -90 q 300 -75 292 -83 l 350 -25 q 351 -18 353 -22 q 344 -14 350 -14 q 122 58 200 -14 q 44 236 44 131 q 51 243 44 243 l 150 243 q 157 236 157 243 z "},"Š":{"ha":831,"x_min":49,"x_max":782,"o":"m 161 268 q 232 140 161 196 q 415 83 303 83 q 594 135 519 83 q 669 271 669 186 q 601 403 669 364 q 415 453 533 443 q 310 467 357 458 q 215 494 264 475 q 135 540 167 513 q 82 613 103 568 q 61 718 61 658 q 163 917 61 842 q 399 992 264 992 q 564 962 488 992 q 692 866 640 932 q 743 710 743 800 q 736 703 743 703 l 638 703 q 631 710 631 703 q 565 844 631 794 q 399 894 499 894 q 240 844 307 894 q 174 718 174 794 q 228 607 174 649 q 415 553 282 565 q 518 540 476 547 q 614 515 560 533 q 701 467 668 496 q 758 389 735 439 q 782 271 782 339 q 679 65 782 143 q 415 -14 576 -14 q 147 68 246 -14 q 49 268 49 150 q 56 275 49 275 l 154 275 q 161 268 161 275 m 471 1251 l 544 1251 q 551 1242 556 1251 l 479 1079 q 471 1072 476 1072 l 351 1072 q 343 1079 346 1072 l 271 1242 q 278 1251 267 1251 l 353 1251 q 360 1247 358 1251 l 404 1165 q 411 1161 406 1161 q 418 1165 417 1161 l 464 1247 q 471 1251 467 1251 z "},"š":{"ha":724,"x_min":44,"x_max":664,"o":"m 157 236 q 203 131 157 178 q 354 83 250 83 q 553 204 553 83 q 516 276 553 251 q 425 306 479 301 q 306 320 371 311 q 188 342 242 329 q 97 399 133 356 q 60 515 60 443 q 140 659 60 601 q 340 717 219 717 q 560 653 475 717 q 646 467 646 589 q 639 460 646 460 l 540 460 q 533 467 533 460 q 483 580 533 540 q 340 619 432 619 q 217 589 263 619 q 171 515 171 558 q 208 449 171 472 q 299 419 244 425 q 417 403 353 414 q 536 377 482 392 q 627 319 590 363 q 664 204 664 275 q 582 40 664 94 q 354 -14 500 -14 q 124 58 204 -14 q 44 236 44 131 q 51 243 44 243 l 150 243 q 157 236 157 243 m 401 978 l 475 978 q 482 968 486 978 l 410 806 q 401 799 407 799 l 282 799 q 274 806 276 799 l 201 968 q 208 978 197 978 l 283 978 q 290 974 289 978 l 335 892 q 342 888 336 888 q 349 892 347 888 l 394 974 q 401 978 397 978 z "},"Ţ":{"ha":683,"x_min":-3,"x_max":685,"o":"m 285 7 l 285 874 q 278 881 285 881 l 4 881 q -3 888 -3 881 l -3 971 q 4 978 -3 978 l 678 978 q 685 971 685 978 l 685 888 q 678 881 685 881 l 403 881 q 396 874 396 881 l 396 7 q 389 0 396 0 l 292 0 q 285 7 285 0 m 326 -179 l 290 -179 q 283 -172 283 -179 l 283 -76 q 290 -69 283 -69 l 392 -69 q 399 -76 399 -69 l 399 -175 q 368 -258 399 -226 q 290 -289 338 -289 q 283 -282 283 -289 l 283 -242 q 290 -235 283 -235 q 319 -222 306 -235 q 333 -186 333 -208 q 326 -179 333 -179 z "},"ţ":{"ha":450,"x_min":-18,"x_max":406,"o":"m 117 607 l -11 607 q -18 614 -18 607 l -18 696 q -11 703 -18 703 l 117 703 q 124 710 124 703 l 124 888 q 131 894 124 894 l 228 894 q 235 888 235 894 l 235 710 q 242 703 235 703 l 399 703 q 406 696 406 703 l 406 614 q 399 607 406 607 l 242 607 q 235 600 235 607 l 235 181 q 256 116 235 135 q 318 97 276 97 l 399 97 q 406 90 406 97 l 406 7 q 399 0 406 0 l 315 0 q 168 43 213 0 q 124 181 124 86 l 124 600 q 117 607 124 607 m 240 -179 l 204 -179 q 197 -172 197 -179 l 197 -76 q 204 -69 197 -69 l 306 -69 q 313 -76 313 -69 l 313 -175 q 282 -258 313 -226 q 204 -289 251 -289 q 197 -282 197 -289 l 197 -242 q 204 -235 197 -235 q 233 -222 219 -235 q 247 -186 247 -208 q 240 -179 247 -179 z "},"Ť":{"ha":683,"x_min":-3,"x_max":685,"o":"m 285 7 l 285 874 q 278 881 285 881 l 4 881 q -3 888 -3 881 l -3 971 q 4 978 -3 978 l 678 978 q 685 971 685 978 l 685 888 q 678 881 685 881 l 403 881 q 396 874 396 881 l 396 7 q 389 0 396 0 l 292 0 q 285 7 285 0 m 400 1251 l 474 1251 q 481 1242 486 1251 l 408 1079 q 400 1072 406 1072 l 281 1072 q 272 1079 275 1072 l 200 1242 q 207 1251 194 1251 l 282 1251 q 289 1247 286 1251 l 333 1165 q 340 1161 336 1161 q 347 1165 344 1161 l 393 1247 q 400 1251 394 1251 z "},"ť":{"ha":468,"x_min":0,"x_max":424,"o":"m 135 607 l 7 607 q 0 614 0 607 l 0 696 q 7 703 0 703 l 135 703 q 142 710 142 703 l 142 888 q 149 894 142 894 l 246 894 q 253 888 253 894 l 253 710 q 260 703 253 703 l 417 703 q 424 696 424 703 l 424 614 q 417 607 424 607 l 260 607 q 253 600 253 607 l 253 181 q 274 116 253 135 q 336 97 294 97 l 417 97 q 424 90 424 97 l 424 7 q 417 0 424 0 l 333 0 q 186 43 231 0 q 142 181 142 86 l 142 600 q 135 607 142 607 m 351 868 l 315 868 q 308 875 308 868 l 308 971 q 315 978 308 978 l 417 978 q 424 971 424 978 l 424 872 q 393 790 424 821 q 315 758 363 758 q 308 765 308 758 l 308 806 q 315 813 308 813 q 344 826 331 813 q 358 861 358 839 q 351 868 358 868 z "},"Ŧ":{"ha":681,"x_min":-3,"x_max":683,"o":"m 285 551 l 285 878 q 278 883 282 883 l 4 883 q -3 890 -3 883 l -3 971 q 4 978 -3 978 l 676 978 q 683 971 683 978 l 683 890 q 676 883 683 883 l 403 883 q 396 876 396 883 l 396 551 q 403 544 396 544 l 635 544 q 642 538 642 544 l 642 463 q 635 456 642 456 l 403 456 q 396 449 396 456 l 396 7 q 389 0 396 0 l 292 0 q 285 7 285 0 l 285 449 q 278 456 285 456 l 56 456 q 49 463 49 456 l 49 538 q 56 544 49 544 l 278 544 q 285 551 285 544 z "},"ŧ":{"ha":450,"x_min":-18,"x_max":404,"o":"m 124 522 l 124 600 q 117 607 124 607 l -11 607 q -18 614 -18 607 l -18 696 q -11 703 -18 703 l 117 703 q 124 710 124 703 l 124 889 q 131 896 124 896 l 228 896 q 235 889 235 896 l 235 710 q 242 703 235 703 l 397 703 q 404 696 404 703 l 404 614 q 397 607 404 607 l 242 607 q 235 600 235 607 l 235 522 q 242 515 235 515 l 394 515 q 401 508 401 515 l 401 435 q 394 428 401 428 l 242 428 q 235 421 235 428 l 235 185 q 256 116 235 136 q 324 96 278 96 l 397 96 q 404 89 404 96 l 404 7 q 397 0 404 0 l 317 0 q 170 42 217 0 q 124 174 124 83 l 124 421 q 117 428 124 428 l -11 428 q -18 435 -18 428 l -18 508 q -11 515 -18 515 l 117 515 q 124 522 124 515 z "},"Ũ":{"ha":874,"x_min":93,"x_max":781,"o":"m 676 978 l 774 978 q 781 971 781 978 l 781 328 q 682 82 781 178 q 438 -14 583 -14 q 192 82 292 -14 q 93 328 93 178 l 93 971 q 100 978 93 978 l 197 978 q 204 971 204 978 l 204 328 q 272 153 204 224 q 438 83 340 83 q 602 153 535 83 q 669 328 669 224 l 669 971 q 676 978 669 978 m 224 1106 l 224 1129 q 256 1213 224 1174 q 354 1251 289 1251 q 449 1219 399 1251 q 519 1188 499 1188 q 549 1200 535 1188 q 564 1244 564 1213 q 571 1251 564 1251 l 644 1251 q 651 1244 651 1251 l 651 1219 q 617 1138 651 1176 q 519 1099 583 1099 q 426 1131 479 1099 q 354 1163 372 1163 q 324 1150 339 1163 q 310 1106 310 1138 q 303 1099 310 1099 l 231 1099 q 224 1106 224 1099 z "},"ũ":{"ha":840,"x_min":94,"x_max":725,"o":"m 206 696 l 206 324 q 255 151 206 219 q 410 83 304 83 q 614 332 614 83 l 614 696 q 621 703 614 703 l 718 703 q 725 696 725 703 l 725 7 q 718 0 725 0 l 636 0 q 628 7 629 0 l 614 76 q 608 83 613 82 q 601 79 604 85 q 574 47 594 65 q 503 7 553 28 q 393 -14 453 -14 q 167 77 240 -14 q 94 324 94 168 l 94 696 q 101 703 94 703 l 199 703 q 206 696 206 703 m 196 832 l 196 856 q 228 939 196 900 q 326 978 261 978 q 421 946 371 978 q 492 914 471 914 q 522 926 507 914 q 536 971 536 939 q 543 978 536 978 l 617 978 q 624 971 624 978 l 624 946 q 590 864 624 903 q 492 825 556 825 q 398 857 451 825 q 326 889 344 889 q 297 876 311 889 q 282 832 282 864 q 275 825 282 825 l 203 825 q 196 832 196 825 z "},"Ū":{"ha":874,"x_min":93,"x_max":781,"o":"m 676 978 l 774 978 q 781 971 781 978 l 781 328 q 682 82 781 178 q 438 -14 583 -14 q 192 82 292 -14 q 93 328 93 178 l 93 971 q 100 978 93 978 l 197 978 q 204 971 204 978 l 204 328 q 272 153 204 224 q 438 83 340 83 q 602 153 535 83 q 669 328 669 224 l 669 971 q 676 978 669 978 m 633 1099 l 242 1099 q 235 1106 235 1099 l 235 1183 q 242 1190 235 1190 l 633 1190 q 640 1183 640 1190 l 640 1106 q 633 1099 640 1099 z "},"ū":{"ha":840,"x_min":94,"x_max":725,"o":"m 206 696 l 206 324 q 255 151 206 219 q 410 83 304 83 q 614 332 614 83 l 614 696 q 621 703 614 703 l 718 703 q 725 696 725 703 l 725 7 q 718 0 725 0 l 636 0 q 628 7 629 0 l 614 76 q 608 83 613 82 q 601 79 604 85 q 574 47 594 65 q 503 7 553 28 q 393 -14 453 -14 q 167 77 240 -14 q 94 324 94 168 l 94 696 q 101 703 94 703 l 199 703 q 206 696 206 703 m 607 825 l 215 825 q 208 832 208 825 l 208 910 q 215 917 208 917 l 607 917 q 614 910 614 917 l 614 832 q 607 825 614 825 z "},"Ŭ":{"ha":874,"x_min":93,"x_max":781,"o":"m 676 978 l 774 978 q 781 971 781 978 l 781 328 q 682 82 781 178 q 438 -14 583 -14 q 192 82 292 -14 q 93 328 93 178 l 93 971 q 100 978 93 978 l 197 978 q 204 971 204 978 l 204 328 q 272 153 204 224 q 438 83 340 83 q 602 153 535 83 q 669 328 669 224 l 669 971 q 676 978 669 978 m 536 1251 l 606 1251 q 613 1244 613 1251 q 565 1115 613 1160 q 436 1069 517 1069 q 308 1115 357 1069 q 260 1244 260 1160 q 267 1251 260 1251 l 335 1251 q 343 1226 336 1251 q 372 1174 350 1200 q 436 1149 394 1149 q 508 1178 486 1149 q 529 1244 529 1208 q 536 1251 529 1251 z "},"ŭ":{"ha":840,"x_min":94,"x_max":725,"o":"m 206 696 l 206 324 q 255 151 206 219 q 410 83 304 83 q 614 332 614 83 l 614 696 q 621 703 614 703 l 718 703 q 725 696 725 703 l 725 7 q 718 0 725 0 l 636 0 q 628 7 629 0 l 614 76 q 608 83 613 82 q 601 79 604 85 q 574 47 594 65 q 503 7 553 28 q 393 -14 453 -14 q 167 77 240 -14 q 94 324 94 168 l 94 696 q 101 703 94 703 l 199 703 q 206 696 206 703 m 510 978 l 579 978 q 586 971 586 978 q 538 841 586 886 q 410 796 490 796 q 282 841 331 796 q 233 971 233 886 q 240 978 233 978 l 308 978 q 317 952 310 978 q 346 901 324 926 q 410 875 368 875 q 481 905 460 875 q 503 971 503 935 q 510 978 503 978 z "},"Ů":{"ha":874,"x_min":93,"x_max":781,"o":"m 676 978 l 774 978 q 781 971 781 978 l 781 328 q 682 82 781 178 q 438 -14 583 -14 q 192 82 292 -14 q 93 328 93 178 l 93 971 q 100 978 93 978 l 197 978 q 204 971 204 978 l 204 328 q 272 153 204 224 q 438 83 340 83 q 602 153 535 83 q 669 328 669 224 l 669 971 q 676 978 669 978 m 522 1254 q 540 1236 522 1254 q 558 1168 558 1218 q 522 1083 558 1118 q 436 1047 486 1047 q 351 1083 386 1047 q 315 1168 315 1118 q 351 1254 315 1218 q 436 1290 386 1290 q 522 1254 486 1290 m 497 1168 q 479 1210 497 1193 q 436 1228 461 1228 q 393 1210 411 1228 q 375 1168 375 1193 q 393 1124 375 1142 q 436 1106 411 1106 q 479 1124 461 1106 q 497 1168 497 1142 z "},"ů":{"ha":840,"x_min":94,"x_max":725,"o":"m 206 696 l 206 324 q 255 151 206 219 q 410 83 304 83 q 614 332 614 83 l 614 696 q 621 703 614 703 l 718 703 q 725 696 725 703 l 725 7 q 718 0 725 0 l 636 0 q 628 7 629 0 l 614 76 q 608 83 613 82 q 601 79 604 85 q 574 47 594 65 q 503 7 553 28 q 393 -14 453 -14 q 167 77 240 -14 q 94 324 94 168 l 94 696 q 101 703 94 703 l 199 703 q 206 696 206 703 m 490 978 q 508 960 490 978 q 526 893 526 943 q 490 808 526 843 q 404 774 454 774 q 318 808 354 774 q 282 893 282 843 q 318 978 282 943 q 404 1013 354 1013 q 490 978 454 1013 m 447 851 q 456 859 447 851 q 465 893 465 868 q 447 935 465 918 q 404 953 429 953 q 361 935 379 953 q 343 893 343 918 q 361 851 343 868 q 404 833 379 833 q 447 851 429 833 z "},"Ű":{"ha":874,"x_min":93,"x_max":781,"o":"m 676 978 l 774 978 q 781 971 781 978 l 781 328 q 682 82 781 178 q 438 -14 583 -14 q 192 82 292 -14 q 93 328 93 178 l 93 971 q 100 978 93 978 l 197 978 q 204 971 204 978 l 204 328 q 272 153 204 224 q 438 83 340 83 q 602 153 535 83 q 669 328 669 224 l 669 971 q 676 978 669 978 m 606 1072 l 535 1072 q 528 1082 522 1072 l 597 1242 q 611 1251 600 1251 l 718 1251 q 725 1242 731 1251 l 621 1082 q 606 1072 614 1072 m 350 1072 l 279 1072 q 272 1082 267 1072 l 342 1242 q 356 1251 344 1251 l 463 1251 q 469 1242 475 1251 l 365 1082 q 350 1072 358 1072 z "},"ű":{"ha":840,"x_min":94,"x_max":725,"o":"m 206 696 l 206 324 q 255 151 206 219 q 410 83 304 83 q 614 332 614 83 l 614 696 q 621 703 614 703 l 718 703 q 725 696 725 703 l 725 7 q 718 0 725 0 l 636 0 q 628 7 629 0 l 614 76 q 608 83 613 82 q 601 79 604 85 q 574 47 594 65 q 503 7 553 28 q 393 -14 453 -14 q 167 77 240 -14 q 94 324 94 168 l 94 696 q 101 703 94 703 l 199 703 q 206 696 206 703 m 561 799 l 490 799 q 483 808 478 799 l 553 968 q 567 978 556 978 l 674 978 q 681 968 686 978 l 576 808 q 561 799 569 799 m 306 799 l 235 799 q 228 808 222 799 l 297 968 q 311 978 300 978 l 418 978 q 425 968 431 978 l 321 808 q 306 799 314 799 z "},"Ų":{"ha":874,"x_min":93,"x_max":781,"o":"m 676 978 l 774 978 q 781 971 781 978 l 781 328 q 733 153 781 233 q 606 26 685 74 q 519 -85 519 -24 q 548 -159 519 -133 q 622 -185 576 -185 l 639 -185 q 646 -192 646 -185 l 646 -268 q 639 -275 646 -275 l 603 -275 q 472 -233 519 -275 q 424 -135 424 -192 q 465 -26 424 -65 q 467 -19 469 -24 q 460 -14 465 -14 l 438 -14 q 194 85 294 -14 q 93 328 93 185 l 93 971 q 100 978 93 978 l 197 978 q 204 971 204 978 l 204 328 q 273 158 204 231 q 438 86 342 86 q 601 158 533 86 q 669 328 669 231 l 669 971 q 676 978 669 978 z "},"ų":{"ha":840,"x_min":94,"x_max":725,"o":"m 206 696 l 206 332 q 253 153 206 224 q 410 83 301 83 q 567 145 519 83 q 614 329 614 207 l 614 696 q 621 703 614 703 l 718 703 q 725 696 725 703 l 725 7 q 718 0 725 0 l 694 0 q 626 -28 654 0 q 599 -94 599 -56 q 628 -161 599 -137 q 703 -185 657 -185 l 718 -185 q 725 -192 725 -185 l 725 -268 q 718 -275 725 -275 l 683 -275 q 553 -237 603 -275 q 504 -137 504 -199 q 621 6 504 -25 q 626 17 628 7 l 614 76 q 604 79 611 83 q 396 -14 511 -14 q 168 76 242 -14 q 94 322 94 167 l 94 696 q 101 703 94 703 l 199 703 q 206 696 206 703 z "},"Ŵ":{"ha":1151,"x_min":10,"x_max":1142,"o":"m 676 971 l 850 107 q 853 101 850 103 q 860 101 857 99 q 864 107 864 103 l 1021 971 q 1032 978 1022 978 l 1135 978 q 1140 971 1142 978 l 950 7 q 940 0 949 0 l 772 0 q 763 7 764 0 l 582 872 q 575 878 581 878 q 568 872 569 878 l 388 7 q 379 0 386 0 l 211 0 q 201 7 203 0 l 11 971 q 17 978 10 978 l 119 978 q 131 971 129 978 l 288 107 q 291 101 288 103 q 298 101 294 99 q 301 107 301 103 l 474 971 q 483 978 475 978 l 667 978 q 676 971 675 978 m 708 1072 l 635 1072 q 628 1076 631 1072 l 582 1158 q 575 1163 581 1163 q 568 1158 569 1163 l 524 1076 q 517 1072 522 1072 l 442 1072 q 435 1082 431 1072 l 507 1244 q 515 1251 510 1251 l 635 1251 q 643 1244 640 1251 l 715 1082 q 708 1072 719 1072 z "},"ŵ":{"ha":1011,"x_min":19,"x_max":983,"o":"m 592 694 l 728 103 q 736 94 731 94 q 744 103 742 94 l 872 694 q 881 703 874 703 l 975 703 q 982 694 983 703 l 819 7 q 811 0 817 0 l 663 0 q 654 7 657 0 l 511 599 q 503 606 510 606 q 496 599 497 606 l 351 7 q 343 0 349 0 l 194 0 q 186 7 189 0 l 22 694 q 29 703 19 703 l 124 703 q 133 694 132 703 l 261 103 q 269 94 264 94 q 278 103 275 94 l 413 694 q 422 703 414 703 l 582 703 q 592 694 589 703 m 636 799 l 563 799 q 556 803 558 799 l 510 885 q 503 889 508 889 q 496 885 497 889 l 451 803 q 444 799 450 799 l 369 799 q 363 808 358 799 l 435 971 q 443 978 438 978 l 563 978 q 571 971 568 978 l 643 808 q 636 799 647 799 z "},"Ŷ":{"ha":754,"x_min":-15,"x_max":771,"o":"m -6 978 l 108 978 q 119 971 117 978 l 372 547 q 383 547 378 539 l 636 971 q 647 978 640 978 l 761 978 q 765 969 771 978 l 439 439 q 433 422 433 429 l 433 7 q 426 0 433 0 l 329 0 q 322 7 322 0 l 322 422 q 317 439 322 429 l -10 969 q -6 978 -15 978 m 510 1072 l 436 1072 q 429 1076 431 1072 l 383 1158 q 376 1163 381 1163 q 369 1158 372 1163 l 325 1076 q 318 1072 322 1072 l 243 1072 q 236 1082 231 1072 l 308 1244 q 317 1251 311 1251 l 436 1251 q 444 1244 442 1251 l 517 1082 q 510 1072 522 1072 z "},"ŷ":{"ha":653,"x_min":1,"x_max":635,"o":"m 326 103 l 514 696 q 524 703 515 703 l 626 703 q 632 696 635 703 l 364 -99 q 293 -235 332 -196 q 169 -275 254 -275 l 14 -275 q 7 -268 7 -275 l 7 -186 q 14 -179 7 -179 l 161 -179 q 243 -117 224 -179 q 239 0 263 -56 l 4 696 q 10 703 1 703 l 113 703 q 122 696 121 703 l 311 103 q 319 97 314 97 q 326 103 325 97 m 451 799 l 378 799 q 371 803 372 799 l 325 885 q 318 889 322 889 q 311 885 314 889 l 267 803 q 260 799 264 799 l 185 799 q 178 808 172 799 l 250 971 q 258 978 253 978 l 378 978 q 386 971 383 978 l 458 808 q 451 799 464 799 z "},"Ÿ":{"ha":754,"x_min":-15,"x_max":771,"o":"m -6 978 l 108 978 q 119 971 117 978 l 372 547 q 383 547 378 539 l 636 971 q 647 978 640 978 l 761 978 q 765 969 771 978 l 439 439 q 433 422 433 429 l 433 7 q 426 0 433 0 l 329 0 q 322 7 322 0 l 322 422 q 317 439 322 429 l -10 969 q -6 978 -15 978 m 164 1251 l 286 1251 q 293 1244 293 1251 l 293 1122 q 286 1115 293 1115 l 164 1115 q 157 1122 157 1115 l 157 1244 q 164 1251 157 1251 m 468 1251 l 590 1251 q 597 1244 597 1251 l 597 1122 q 590 1115 597 1115 l 468 1115 q 461 1122 461 1115 l 461 1244 q 468 1251 461 1251 z "},"Ź":{"ha":747,"x_min":31,"x_max":717,"o":"m 31 888 l 31 971 q 36 978 31 978 l 710 978 q 717 971 717 978 l 717 890 q 710 875 717 886 l 169 108 q 174 97 161 97 l 710 97 q 717 90 717 97 l 717 7 q 710 0 717 0 l 38 0 q 31 7 31 0 l 31 88 q 38 103 31 93 l 578 869 q 578 877 581 874 q 572 881 576 881 l 38 881 q 31 888 31 881 m 418 1072 l 346 1072 q 339 1082 333 1072 l 408 1242 q 422 1251 411 1251 l 529 1251 q 536 1249 533 1251 q 536 1242 539 1246 l 433 1082 q 418 1072 426 1072 z "},"ź":{"ha":646,"x_min":46,"x_max":600,"o":"m 63 613 l 63 696 q 69 703 63 703 l 575 703 q 582 696 582 703 l 582 615 q 575 600 582 610 l 188 110 q 186 101 185 106 q 192 97 188 97 l 593 97 q 600 90 600 97 l 600 7 q 593 0 600 0 l 53 0 q 46 7 46 0 l 46 88 q 53 103 46 94 l 442 594 q 442 602 444 599 q 436 606 440 606 l 69 606 q 63 613 63 606 m 356 799 l 283 799 q 276 808 272 799 l 346 968 q 360 978 349 978 l 467 978 q 474 975 471 978 q 474 968 476 972 l 371 808 q 356 799 364 799 z "},"Ż":{"ha":747,"x_min":31,"x_max":717,"o":"m 31 888 l 31 971 q 36 978 31 978 l 710 978 q 717 971 717 978 l 717 890 q 710 875 717 886 l 169 108 q 174 97 161 97 l 710 97 q 717 90 717 97 l 717 7 q 710 0 717 0 l 38 0 q 31 7 31 0 l 31 88 q 38 103 31 93 l 578 869 q 578 877 581 874 q 572 881 576 881 l 38 881 q 31 888 31 881 m 310 1251 l 432 1251 q 439 1244 439 1251 l 439 1122 q 432 1115 439 1115 l 310 1115 q 303 1122 303 1115 l 303 1244 q 310 1251 303 1251 z "},"ż":{"ha":646,"x_min":46,"x_max":600,"o":"m 63 613 l 63 696 q 69 703 63 703 l 575 703 q 582 696 582 703 l 582 615 q 575 600 582 610 l 188 110 q 186 101 185 106 q 192 97 188 97 l 593 97 q 600 90 600 97 l 600 7 q 593 0 600 0 l 53 0 q 46 7 46 0 l 46 88 q 53 103 46 94 l 442 594 q 442 602 444 599 q 436 606 440 606 l 69 606 q 63 613 63 606 m 263 978 l 385 978 q 392 971 392 978 l 392 849 q 385 842 392 842 l 263 842 q 256 849 256 842 l 256 971 q 263 978 256 978 z "},"Ž":{"ha":747,"x_min":31,"x_max":717,"o":"m 31 888 l 31 971 q 36 978 31 978 l 710 978 q 717 971 717 978 l 717 890 q 710 875 717 886 l 169 108 q 174 97 161 97 l 710 97 q 717 90 717 97 l 717 7 q 710 0 717 0 l 38 0 q 31 7 31 0 l 31 88 q 38 103 31 93 l 578 869 q 578 877 581 874 q 572 881 576 881 l 38 881 q 31 888 31 881 m 431 1251 l 504 1251 q 511 1242 517 1251 l 439 1079 q 431 1072 436 1072 l 311 1072 q 303 1079 306 1072 l 231 1242 q 238 1251 225 1251 l 313 1251 q 319 1247 317 1251 l 364 1165 q 371 1161 367 1161 q 378 1165 375 1161 l 424 1247 q 431 1251 425 1251 z "},"ž":{"ha":646,"x_min":46,"x_max":600,"o":"m 63 613 l 63 696 q 69 703 63 703 l 575 703 q 582 696 582 703 l 582 615 q 575 600 582 610 l 188 110 q 186 101 185 106 q 192 97 188 97 l 593 97 q 600 90 600 97 l 600 7 q 593 0 600 0 l 53 0 q 46 7 46 0 l 46 88 q 53 103 46 94 l 442 594 q 442 602 444 599 q 436 606 440 606 l 69 606 q 63 613 63 606 m 383 978 l 457 978 q 464 968 469 978 l 392 806 q 383 799 389 799 l 264 799 q 256 806 258 799 l 183 968 q 190 978 178 978 l 265 978 q 272 974 269 978 l 317 892 q 324 888 319 888 q 331 892 328 888 l 376 974 q 383 978 378 978 z "},"ſ":{"ha":375,"x_min":-1,"x_max":422,"o":"m 6 703 l 135 703 q 142 710 142 703 l 142 797 q 333 978 142 978 l 415 978 q 422 971 422 978 l 422 888 q 415 881 422 881 l 336 881 q 253 797 253 881 l 253 7 q 246 0 253 0 l 149 0 q 142 7 142 0 l 142 600 q 135 607 142 607 l 6 607 q -1 614 -1 607 l -1 696 q 6 703 -1 703 z "},"ƒ":{"ha":550,"x_min":-125,"x_max":569,"o":"m -97 -178 l -18 -178 q 79 -94 64 -178 l 214 600 q 208 607 217 607 l 79 607 q 74 614 71 607 l 89 696 q 97 703 92 703 l 226 703 q 235 710 235 703 l 253 797 q 479 978 286 978 l 561 978 q 567 971 569 978 l 550 888 q 542 881 550 881 l 463 881 q 364 797 379 881 l 346 710 q 351 703 346 703 l 507 703 q 513 696 515 703 l 497 614 q 489 607 494 607 l 333 607 q 325 600 328 607 l 190 -94 q -35 -275 156 -275 l -117 -275 q -122 -268 -125 -275 l -106 -185 q -97 -178 -106 -178 z "},"Ș":{"ha":831,"x_min":49,"x_max":782,"o":"m 161 268 q 232 140 161 196 q 415 83 303 83 q 594 135 519 83 q 669 271 669 186 q 601 403 669 364 q 415 453 533 443 q 310 467 357 458 q 215 494 264 475 q 135 540 167 513 q 82 613 103 568 q 61 718 61 658 q 163 917 61 842 q 399 992 264 992 q 564 962 488 992 q 692 866 640 932 q 743 710 743 800 q 736 703 743 703 l 638 703 q 631 710 631 703 q 565 844 631 794 q 399 894 499 894 q 240 844 307 894 q 174 718 174 794 q 228 607 174 649 q 415 553 282 565 q 518 540 476 547 q 614 515 560 533 q 701 467 668 496 q 758 389 735 439 q 782 271 782 339 q 679 65 782 143 q 415 -14 576 -14 q 147 68 246 -14 q 49 268 49 150 q 56 275 49 275 l 154 275 q 161 268 161 275 m 410 -179 l 374 -179 q 367 -172 367 -179 l 367 -76 q 374 -69 367 -69 l 475 -69 q 482 -76 482 -69 l 482 -175 q 451 -258 482 -226 q 374 -289 421 -289 q 367 -282 367 -289 l 367 -242 q 374 -235 367 -235 q 403 -222 389 -235 q 417 -186 417 -208 q 410 -179 417 -179 z "},"ș":{"ha":724,"x_min":44,"x_max":664,"o":"m 157 236 q 203 131 157 178 q 354 83 250 83 q 553 204 553 83 q 516 276 553 251 q 425 306 479 301 q 306 320 371 311 q 188 342 242 329 q 97 399 133 356 q 60 515 60 443 q 140 659 60 601 q 340 717 219 717 q 560 653 475 717 q 646 467 646 589 q 639 460 646 460 l 540 460 q 533 467 533 460 q 483 580 533 540 q 340 619 432 619 q 217 589 263 619 q 171 515 171 558 q 208 449 171 472 q 299 419 244 425 q 417 403 353 414 q 536 377 482 392 q 627 319 590 363 q 664 204 664 275 q 582 40 664 94 q 354 -14 500 -14 q 124 58 204 -14 q 44 236 44 131 q 51 243 44 243 l 150 243 q 157 236 157 243 m 349 -179 l 313 -179 q 306 -172 306 -179 l 306 -76 q 313 -69 306 -69 l 414 -69 q 421 -76 421 -69 l 421 -175 q 390 -258 421 -226 q 313 -289 360 -289 q 306 -282 306 -289 l 306 -242 q 313 -235 306 -235 q 342 -222 328 -235 q 356 -186 356 -208 q 349 -179 356 -179 z "},"Ț":{"ha":683,"x_min":-3,"x_max":685,"o":"m 285 7 l 285 874 q 278 881 285 881 l 4 881 q -3 888 -3 881 l -3 971 q 4 978 -3 978 l 678 978 q 685 971 685 978 l 685 888 q 678 881 685 881 l 403 881 q 396 874 396 881 l 396 7 q 389 0 396 0 l 292 0 q 285 7 285 0 m 326 -179 l 290 -179 q 283 -172 283 -179 l 283 -76 q 290 -69 283 -69 l 392 -69 q 399 -76 399 -69 l 399 -175 q 368 -258 399 -226 q 290 -289 338 -289 q 283 -282 283 -289 l 283 -242 q 290 -235 283 -235 q 319 -222 306 -235 q 333 -186 333 -208 q 326 -179 333 -179 z "},"ț":{"ha":450,"x_min":-18,"x_max":406,"o":"m 117 607 l -11 607 q -18 614 -18 607 l -18 696 q -11 703 -18 703 l 117 703 q 124 710 124 703 l 124 888 q 131 894 124 894 l 228 894 q 235 888 235 894 l 235 710 q 242 703 235 703 l 399 703 q 406 696 406 703 l 406 614 q 399 607 406 607 l 242 607 q 235 600 235 607 l 235 181 q 256 116 235 135 q 318 97 276 97 l 399 97 q 406 90 406 97 l 406 7 q 399 0 406 0 l 315 0 q 168 43 213 0 q 124 181 124 86 l 124 600 q 117 607 124 607 m 240 -179 l 204 -179 q 197 -172 197 -179 l 197 -76 q 204 -69 197 -69 l 306 -69 q 313 -76 313 -69 l 313 -175 q 282 -258 313 -226 q 204 -289 251 -289 q 197 -282 197 -289 l 197 -242 q 204 -235 197 -235 q 233 -222 219 -235 q 247 -186 247 -208 q 240 -179 247 -179 z "},"ˆ":{"ha":425,"x_min":58,"x_max":347,"o":"m 336 799 l 263 799 q 256 803 258 799 l 210 885 q 203 889 208 889 q 196 885 197 889 l 151 803 q 144 799 150 799 l 69 799 q 63 808 58 799 l 135 971 q 143 978 138 978 l 263 978 q 271 971 268 978 l 343 808 q 336 799 347 799 z "},"ˇ":{"ha":425,"x_min":58,"x_max":347,"o":"m 263 978 l 336 978 q 343 968 347 978 l 271 806 q 263 799 268 799 l 143 799 q 135 806 138 799 l 63 968 q 69 978 58 978 l 144 978 q 151 974 150 978 l 196 892 q 203 888 197 888 q 210 892 208 888 l 256 974 q 263 978 258 978 z "},"˘":{"ha":469,"x_min":46,"x_max":399,"o":"m 322 978 l 392 978 q 399 971 399 978 q 351 841 399 886 q 222 796 303 796 q 94 841 143 796 q 46 971 46 886 q 53 978 46 978 l 121 978 q 129 952 122 978 q 158 901 136 926 q 222 875 181 875 q 294 905 272 875 q 315 971 315 935 q 322 978 315 978 z "},"˙":{"ha":336,"x_min":99,"x_max":235,"o":"m 106 978 l 228 978 q 235 971 235 978 l 235 849 q 228 842 235 842 l 106 842 q 99 849 99 842 l 99 971 q 106 978 99 978 z "},"˚":{"ha":332,"x_min":38,"x_max":282,"o":"m 246 978 q 264 960 246 978 q 282 893 282 943 q 246 808 282 843 q 160 774 210 774 q 74 808 110 774 q 38 893 38 843 q 74 978 38 943 q 160 1013 110 1013 q 246 978 210 1013 m 203 851 q 212 859 203 851 q 221 893 221 868 q 203 935 221 918 q 160 953 185 953 q 117 935 135 953 q 99 893 99 918 q 117 851 99 868 q 160 833 135 833 q 203 851 185 833 z "},"˛":{"ha":365,"x_min":78,"x_max":300,"o":"m 272 14 l 286 14 q 293 7 293 14 q 286 0 293 0 q 205 -27 236 0 q 174 -99 174 -54 q 210 -161 174 -137 q 293 -185 247 -185 q 300 -192 300 -185 l 300 -268 q 293 -275 300 -275 l 261 -275 q 129 -237 178 -275 q 78 -137 81 -200 q 129 -26 78 -67 q 272 14 181 14 z "},"˜":{"ha":596,"x_min":74,"x_max":501,"o":"m 74 832 l 74 856 q 106 939 74 900 q 204 978 139 978 q 299 946 249 978 q 369 914 349 914 q 399 926 385 914 q 414 971 414 939 q 421 978 414 978 l 494 978 q 501 971 501 978 l 501 946 q 467 864 501 903 q 369 825 433 825 q 276 857 329 825 q 204 889 222 889 q 174 876 189 889 q 160 832 160 864 q 153 825 160 825 l 81 825 q 74 832 74 825 z "},"˝":{"ha":589,"x_min":64,"x_max":525,"o":"m 401 799 l 331 799 q 324 808 319 799 l 393 968 q 407 978 396 978 l 514 978 q 521 968 525 978 l 417 808 q 401 799 410 799 m 146 799 l 75 799 q 68 808 64 799 l 138 968 q 151 978 140 978 l 258 978 q 265 968 269 978 l 161 808 q 146 799 154 799 z "},"Γ":{"ha":757,"x_min":115,"x_max":738,"o":"m 122 978 l 731 978 q 738 971 738 978 l 738 888 q 731 881 738 881 l 233 881 q 226 874 226 881 l 226 7 q 219 0 226 0 l 122 0 q 115 7 115 0 l 115 971 q 122 978 115 978 z "},"Λ":{"ha":836,"x_min":8,"x_max":826,"o":"m 411 872 l 129 7 q 121 0 126 0 l 18 0 q 11 7 8 0 l 329 971 q 338 978 332 978 l 497 978 q 506 971 503 978 l 824 7 q 818 0 826 0 l 715 0 q 706 7 708 0 l 426 872 q 419 878 425 878 q 411 872 414 878 z "},"Ω":{"ha":976,"x_min":49,"x_max":926,"o":"m 358 0 l 60 0 q 53 7 53 0 l 53 100 q 60 107 53 107 l 186 107 q 192 112 192 107 q 190 119 193 117 q 49 489 49 256 q 163 854 49 717 q 489 992 276 992 q 813 854 700 992 q 926 489 926 717 q 890 274 926 374 q 785 119 853 175 q 782 112 781 117 q 789 107 783 107 l 915 107 q 922 100 922 107 l 922 7 q 915 0 922 0 l 617 0 q 610 7 610 0 l 610 97 q 617 107 610 104 q 757 242 708 142 q 806 489 806 342 q 724 785 806 679 q 489 890 642 890 q 253 785 335 890 q 171 489 171 679 q 218 239 171 340 q 358 107 265 138 q 365 97 365 106 l 365 7 q 358 0 365 0 z "},"γ":{"ha":757,"x_min":39,"x_max":721,"o":"m 229 629 l 394 114 q 401 108 397 108 q 408 114 406 108 l 597 696 q 606 703 600 703 l 713 703 q 719 696 721 703 l 463 -54 q 457 -86 457 -72 l 457 -268 q 450 -275 457 -275 l 353 -275 q 346 -268 346 -275 l 346 -86 q 340 -54 346 -72 l 129 568 q 72 606 115 606 l 46 606 q 39 613 39 606 l 39 696 q 46 703 39 703 l 107 703 q 188 687 160 703 q 229 629 215 671 z "},"λ":{"ha":688,"x_min":4,"x_max":674,"o":"m 497 74 l 332 589 q 325 594 331 594 q 318 589 319 594 l 129 7 q 121 0 126 0 l 13 0 q 7 7 4 0 l 249 718 q 258 789 258 753 q 232 853 257 825 q 165 881 207 881 l 44 881 q 38 888 38 881 l 38 971 q 44 978 38 978 l 178 978 q 299 941 261 978 q 369 813 338 904 l 597 135 q 654 97 611 97 l 667 97 q 674 90 674 97 l 674 7 q 667 0 674 0 l 619 0 q 538 16 567 0 q 497 74 510 32 z "},"π":{"ha":907,"x_min":58,"x_max":849,"o":"m 621 608 l 286 608 q 279 603 279 608 l 279 7 q 272 0 279 0 l 171 0 q 164 7 164 0 l 164 601 q 157 608 164 608 l 65 608 q 58 615 58 608 l 58 696 q 65 703 58 703 l 842 703 q 849 696 849 703 l 849 615 q 842 608 849 608 l 749 608 q 742 601 742 608 l 742 182 q 825 100 742 100 l 842 100 q 849 93 849 100 l 849 7 q 842 0 849 0 l 813 0 q 673 41 718 0 q 628 169 628 82 l 628 601 q 621 608 628 608 z "}," ":{"ha":644,"x_min":0,"x_max":0,"o":""}," ":{"ha":1290,"x_min":0,"x_max":0,"o":""}," ":{"ha":644,"x_min":0,"x_max":0,"o":""}," ":{"ha":1290,"x_min":0,"x_max":0,"o":""}," ":{"ha":429,"x_min":0,"x_max":0,"o":""}," ":{"ha":322,"x_min":0,"x_max":0,"o":""}," ":{"ha":214,"x_min":0,"x_max":0,"o":""}," ":{"ha":214,"x_min":0,"x_max":0,"o":""}," ":{"ha":161,"x_min":0,"x_max":0,"o":""}," ":{"ha":257,"x_min":0,"x_max":0,"o":""}," ":{"ha":71,"x_min":0,"x_max":0,"o":""},"‐":{"ha":558,"x_min":76,"x_max":482,"o":"m 475 294 l 83 294 q 76 301 76 294 l 76 399 q 83 406 76 406 l 475 406 q 482 399 482 406 l 482 301 q 475 294 482 294 z "},"‑":{"ha":558,"x_min":76,"x_max":482,"o":"m 475 294 l 83 294 q 76 301 76 294 l 76 399 q 83 406 76 406 l 475 406 q 482 399 482 406 l 482 301 q 475 294 482 294 z "},"‒":{"ha":558,"x_min":76,"x_max":482,"o":"m 475 294 l 83 294 q 76 301 76 294 l 76 399 q 83 406 76 406 l 475 406 q 482 399 482 406 l 482 301 q 475 294 482 294 z "},"–":{"ha":744,"x_min":58,"x_max":686,"o":"m 679 294 l 65 294 q 58 301 58 294 l 58 399 q 65 406 58 406 l 679 406 q 686 399 686 406 l 686 301 q 679 294 686 294 z "},"—":{"ha":1146,"x_min":58,"x_max":1088,"o":"m 1081 294 l 65 294 q 58 301 58 294 l 58 399 q 65 406 58 406 l 1081 406 q 1088 399 1088 406 l 1088 301 q 1081 294 1088 294 z "},"‘":{"ha":364,"x_min":99,"x_max":265,"o":"m 193 811 l 258 811 q 265 804 265 811 l 265 651 q 258 644 265 644 l 106 644 q 99 651 99 644 l 99 808 q 138 932 99 886 q 258 978 176 978 q 265 971 265 978 l 265 911 q 258 904 265 904 q 204 880 222 904 q 186 818 186 856 q 193 811 186 811 z "},"’":{"ha":364,"x_min":99,"x_max":265,"o":"m 171 811 l 106 811 q 99 818 99 811 l 99 971 q 106 978 99 978 l 258 978 q 265 971 265 978 l 265 814 q 226 690 265 736 q 106 644 188 644 q 99 651 99 644 l 99 711 q 106 718 99 718 q 160 742 142 718 q 178 804 178 767 q 171 811 178 811 z "},"‚":{"ha":364,"x_min":99,"x_max":265,"o":"m 171 0 l 106 0 q 99 7 99 0 l 99 160 q 106 167 99 167 l 258 167 q 265 160 265 167 l 265 3 q 226 -121 265 -75 q 106 -167 188 -167 q 99 -160 99 -167 l 99 -100 q 106 -93 99 -93 q 160 -69 142 -93 q 178 -7 178 -44 q 171 0 178 0 z "},"“":{"ha":614,"x_min":99,"x_max":515,"o":"m 193 811 l 258 811 q 265 804 265 811 l 265 651 q 258 644 265 644 l 106 644 q 99 651 99 644 l 99 808 q 138 932 99 886 q 258 978 176 978 q 265 971 265 978 l 265 911 q 258 904 265 904 q 204 880 222 904 q 186 818 186 856 q 193 811 186 811 m 443 811 l 508 811 q 515 804 515 811 l 515 651 q 508 644 515 644 l 356 644 q 349 651 349 644 l 349 808 q 388 932 349 886 q 508 978 426 978 q 515 971 515 978 l 515 911 q 508 904 515 904 q 454 880 472 904 q 436 818 436 856 q 443 811 436 811 z "},"”":{"ha":614,"x_min":99,"x_max":515,"o":"m 171 811 l 106 811 q 99 818 99 811 l 99 971 q 106 978 99 978 l 258 978 q 265 971 265 978 l 265 814 q 226 690 265 736 q 106 644 188 644 q 99 651 99 644 l 99 711 q 106 718 99 718 q 160 742 142 718 q 178 804 178 767 q 171 811 178 811 m 421 811 l 356 811 q 349 818 349 811 l 349 971 q 356 978 349 978 l 508 978 q 515 971 515 978 l 515 814 q 476 690 515 736 q 356 644 438 644 q 349 651 349 644 l 349 711 q 356 718 349 718 q 410 742 392 718 q 428 804 428 767 q 421 811 428 811 z "},"„":{"ha":614,"x_min":99,"x_max":515,"o":"m 171 0 l 106 0 q 99 7 99 0 l 99 160 q 106 167 99 167 l 258 167 q 265 160 265 167 l 265 3 q 226 -121 265 -75 q 106 -167 188 -167 q 99 -160 99 -167 l 99 -100 q 106 -93 99 -93 q 160 -69 142 -93 q 178 -7 178 -44 q 171 0 178 0 m 421 0 l 356 0 q 349 7 349 0 l 349 160 q 356 167 349 167 l 508 167 q 515 160 515 167 l 515 3 q 476 -121 515 -75 q 356 -167 438 -167 q 349 -160 349 -167 l 349 -100 q 356 -93 349 -93 q 410 -69 392 -93 q 428 -7 428 -44 q 421 0 428 0 z "},"†":{"ha":744,"x_min":21,"x_max":724,"o":"m 421 588 l 421 -268 q 414 -275 421 -275 l 319 -275 q 313 -268 313 -275 l 313 588 q 306 594 313 594 l 28 594 q 21 601 21 594 l 21 696 q 28 703 21 703 l 306 703 q 313 710 313 703 l 313 971 q 319 978 313 978 l 414 978 q 421 971 421 978 l 421 710 q 428 703 421 703 l 717 703 q 724 696 724 703 l 724 601 q 717 594 724 594 l 428 594 q 421 588 421 594 z "},"‡":{"ha":744,"x_min":21,"x_max":724,"o":"m 28 108 l 306 108 q 313 115 313 108 l 313 588 q 306 594 313 594 l 28 594 q 21 601 21 594 l 21 696 q 28 703 21 703 l 306 703 q 313 710 313 703 l 313 971 q 319 978 313 978 l 414 978 q 421 971 421 978 l 421 710 q 428 703 421 703 l 717 703 q 724 696 724 703 l 724 601 q 717 594 724 594 l 428 594 q 421 588 421 594 l 421 115 q 428 108 421 108 l 717 108 q 724 101 724 108 l 724 7 q 717 0 724 0 l 428 0 q 421 -7 421 0 l 421 -268 q 414 -275 421 -275 l 319 -275 q 313 -268 313 -275 l 313 -7 q 306 0 313 0 l 28 0 q 21 7 21 0 l 21 101 q 28 108 21 108 z "},"•":{"ha":914,"x_min":92,"x_max":822,"o":"m 199 93 q 145 147 199 93 q 92 351 92 200 q 199 610 92 503 q 457 717 306 717 q 715 610 608 717 q 822 351 822 503 q 715 93 822 200 q 457 -14 608 -14 q 199 93 306 -14 z "},"…":{"ha":1029,"x_min":99,"x_max":931,"o":"m 258 0 l 106 0 q 99 7 99 0 l 99 160 q 106 167 99 167 l 258 167 q 265 160 265 167 l 265 7 q 258 0 265 0 m 589 0 l 436 0 q 429 7 429 0 l 429 160 q 436 167 429 167 l 589 167 q 596 160 596 167 l 596 7 q 589 0 596 0 m 924 0 l 771 0 q 764 7 764 0 l 764 160 q 771 167 764 167 l 924 167 q 931 160 931 167 l 931 7 q 924 0 931 0 z "}," ":{"ha":257,"x_min":0,"x_max":0,"o":""},"‰":{"ha":1607,"x_min":71,"x_max":1536,"o":"m 1056 261 q 851 -14 1056 -14 q 647 261 647 -14 q 851 538 647 538 q 1056 261 1056 538 m 976 261 q 947 412 976 363 q 851 461 918 461 q 756 412 785 461 q 726 261 726 363 q 756 112 726 161 q 851 63 785 63 q 947 112 918 63 q 976 261 976 161 m 479 715 q 275 440 479 440 q 71 715 71 440 q 275 992 71 992 q 479 715 479 992 m 400 715 q 371 866 400 817 q 275 915 342 915 q 179 866 208 915 q 150 715 150 817 q 179 566 150 615 q 275 517 208 517 q 371 566 342 517 q 400 715 400 615 m 1536 261 q 1332 -14 1536 -14 q 1128 261 1128 -14 q 1332 538 1128 538 q 1536 261 1536 538 m 1457 261 q 1428 412 1457 363 q 1332 461 1399 461 q 1236 412 1265 461 q 1207 261 1207 363 q 1236 112 1207 161 q 1332 63 1265 63 q 1428 112 1399 63 q 1457 261 1457 161 m 233 11 l 821 972 q 829 978 824 978 l 890 978 q 896 967 903 978 l 307 7 q 296 0 303 0 l 239 0 q 233 11 226 0 z "},"‹":{"ha":490,"x_min":86,"x_max":400,"o":"m 396 582 l 200 358 q 200 346 194 353 l 397 121 q 399 115 400 119 q 393 111 397 111 l 299 111 q 288 115 292 111 l 92 346 q 92 358 86 353 l 288 588 q 296 592 290 592 l 390 592 q 397 588 394 592 q 396 582 399 585 z "},"›":{"ha":490,"x_min":88,"x_max":403,"o":"m 288 358 l 92 582 q 91 588 89 585 q 97 592 93 592 l 192 592 q 200 588 197 592 l 396 358 q 396 346 403 353 l 200 115 q 189 111 196 111 l 94 111 q 89 115 90 111 q 90 121 88 119 l 288 346 q 288 358 294 353 z "},"⁄":{"ha":307,"x_min":-185,"x_max":492,"o":"m -178 11 l 410 972 q 418 978 413 978 l 479 978 q 485 967 492 978 l -104 7 q -115 0 -108 0 l -172 0 q -178 11 -185 0 z "}," ":{"ha":322,"x_min":0,"x_max":0,"o":""},"⁰":{"ha":457,"x_min":28,"x_max":429,"o":"m 429 982 q 229 710 429 710 q 28 982 28 710 q 229 1253 28 1253 q 429 982 429 1253 m 333 817 q 349 844 333 817 q 365 982 365 872 q 333 1146 365 1092 q 229 1200 301 1200 q 124 1146 156 1200 q 92 982 92 1092 q 124 817 92 872 q 229 761 156 761 q 333 817 301 761 z "},"⁴":{"ha":472,"x_min":29,"x_max":421,"o":"m 29 844 l 29 883 q 43 913 29 894 l 258 1240 q 265 1244 260 1244 l 324 1244 q 326 1240 326 1244 l 326 897 q 331 893 326 893 l 417 893 q 421 890 421 893 l 421 844 q 417 842 421 842 l 331 842 q 326 838 326 842 l 326 721 q 324 717 326 717 l 271 717 q 267 721 267 717 l 267 838 q 263 842 267 842 l 33 842 q 29 844 29 842 m 260 1143 l 100 899 q 103 893 97 893 l 263 893 q 267 897 267 893 l 267 1143 q 260 1143 265 1147 z "},"⁵":{"ha":419,"x_min":31,"x_max":396,"o":"m 353 1192 l 125 1192 q 119 1188 121 1192 l 101 1049 q 103 1043 100 1044 q 108 1044 106 1042 q 219 1083 147 1083 q 346 1031 296 1083 q 396 897 396 979 q 345 760 396 811 q 211 710 294 710 q 76 759 122 710 q 31 863 31 808 q 33 867 31 867 l 86 867 q 90 863 90 867 q 122 794 90 826 q 211 761 153 761 q 301 798 267 761 q 335 897 335 835 q 301 993 335 956 q 211 1031 267 1031 q 96 974 135 1031 q 90 971 93 971 l 40 971 q 36 975 36 971 l 69 1240 q 76 1244 71 1244 l 353 1244 q 357 1240 357 1244 l 357 1196 q 353 1192 357 1192 z "},"⁶":{"ha":429,"x_min":29,"x_max":400,"o":"m 249 1240 l 160 1075 q 160 1071 158 1072 q 165 1071 163 1069 q 225 1083 199 1083 q 350 1031 300 1083 q 400 896 400 978 q 351 761 400 813 q 214 710 301 710 q 78 761 128 710 q 29 896 29 813 q 57 1006 29 954 l 188 1240 q 192 1244 189 1244 l 246 1244 q 249 1240 250 1244 m 340 896 q 308 994 340 957 q 214 1031 275 1031 q 122 994 154 1031 q 89 896 89 957 q 122 797 89 833 q 214 761 154 761 q 308 797 276 761 q 340 896 340 833 z "},"⁷":{"ha":397,"x_min":17,"x_max":356,"o":"m 356 1240 l 356 1200 q 354 1188 356 1192 l 175 721 q 171 717 172 717 l 114 717 q 111 721 108 717 l 289 1188 q 286 1192 292 1192 l 21 1192 q 17 1196 17 1192 l 17 1240 q 21 1244 17 1244 l 353 1244 q 356 1240 356 1244 z "},"⁸":{"ha":414,"x_min":25,"x_max":381,"o":"m 331 751 q 307 731 331 751 q 203 710 282 710 q 74 751 124 710 q 25 860 25 793 q 54 944 25 913 q 113 986 83 976 q 114 988 114 986 q 113 990 114 990 q 88 1003 103 993 q 55 1042 74 1013 q 36 1108 36 1071 q 83 1212 36 1171 q 203 1253 129 1253 q 323 1212 276 1253 q 369 1108 369 1171 q 351 1042 369 1071 q 317 1003 332 1013 q 293 990 303 993 q 292 988 292 990 q 293 986 292 986 q 327 966 310 979 q 363 924 344 953 q 381 860 381 894 q 331 751 381 793 m 117 789 q 134 775 117 789 q 203 761 150 761 q 288 789 256 761 q 321 860 321 817 q 288 934 321 907 q 203 961 254 961 q 118 934 151 961 q 85 860 85 907 q 117 789 85 817 m 96 1108 q 126 1040 96 1067 q 203 1014 156 1014 q 280 1040 250 1014 q 310 1108 310 1067 q 280 1174 310 1147 q 203 1200 250 1200 q 126 1174 156 1200 q 96 1108 96 1147 z "},"⁹":{"ha":429,"x_min":28,"x_max":400,"o":"m 181 721 l 269 888 q 269 890 271 889 q 264 890 267 892 q 204 879 235 879 q 78 932 128 879 q 28 1067 28 985 q 78 1201 28 1149 q 215 1253 129 1253 q 351 1201 301 1253 q 400 1067 400 1149 q 372 956 400 1011 l 242 721 q 236 717 239 717 l 183 717 q 181 721 178 717 m 89 1067 q 122 967 89 1004 q 215 931 154 931 q 307 967 275 931 q 339 1067 339 1004 q 307 1164 339 1128 q 215 1200 275 1200 q 121 1164 153 1200 q 89 1067 89 1128 z "},"₀":{"ha":457,"x_min":28,"x_max":429,"o":"m 429 -8 q 229 -281 429 -281 q 28 -8 28 -281 q 229 263 28 263 q 429 -8 429 263 m 333 -174 q 349 -146 333 -174 q 365 -8 365 -118 q 333 156 365 101 q 229 210 301 210 q 124 156 156 210 q 92 -8 92 101 q 124 -174 92 -118 q 229 -229 156 -229 q 333 -174 301 -229 z "},"₁":{"ha":338,"x_min":28,"x_max":236,"o":"m 28 99 l 28 143 q 32 146 28 146 l 126 146 q 160 161 146 146 q 175 196 175 176 l 175 250 q 179 254 175 254 l 232 254 q 236 250 236 254 l 236 -269 q 232 -274 236 -274 l 179 -274 q 175 -269 175 -274 l 175 71 q 168 88 175 81 q 150 96 161 96 l 32 96 q 28 99 28 96 z "},"₂":{"ha":403,"x_min":25,"x_max":375,"o":"m 39 107 q 86 222 39 181 q 204 263 133 263 q 329 219 283 263 q 375 107 375 175 q 292 -46 375 31 l 113 -214 q 115 -221 111 -219 l 371 -221 q 374 -225 374 -221 l 374 -269 q 371 -274 374 -274 l 29 -274 q 25 -269 25 -274 l 25 -224 q 29 -218 25 -222 l 247 -7 q 315 106 315 56 q 287 177 315 144 q 204 210 258 210 q 129 181 160 210 q 99 107 99 151 q 94 103 99 103 l 42 103 q 39 107 39 103 z "},"₃":{"ha":403,"x_min":28,"x_max":374,"o":"m 31 107 q 76 222 31 182 q 196 263 122 263 q 315 219 268 263 q 363 113 363 175 q 339 40 363 69 q 286 1 315 11 q 283 -2 283 0 q 286 -6 283 -4 q 345 -49 317 -15 q 374 -133 374 -82 q 324 -240 374 -199 q 196 -281 275 -281 q 72 -239 115 -281 q 28 -128 28 -197 q 31 -124 28 -124 l 83 -124 q 88 -128 88 -124 q 116 -201 88 -172 q 196 -229 144 -229 q 281 -203 249 -229 q 314 -133 314 -176 q 280 -59 314 -87 q 196 -31 246 -31 l 163 -31 q 158 -26 158 -31 l 158 19 q 163 22 158 22 l 196 22 q 274 47 244 22 q 304 113 304 71 q 274 181 304 151 q 196 210 243 210 q 121 182 150 210 q 92 107 92 154 q 88 103 92 103 l 35 103 q 31 107 31 103 z "},"₄":{"ha":472,"x_min":29,"x_max":421,"o":"m 29 -146 l 29 -107 q 43 -78 29 -96 l 258 250 q 265 254 260 254 l 324 254 q 326 250 326 254 l 326 -93 q 331 -97 326 -97 l 417 -97 q 421 -100 421 -97 l 421 -146 q 417 -149 421 -149 l 331 -149 q 326 -153 326 -149 l 326 -269 q 324 -274 326 -274 l 271 -274 q 267 -269 267 -274 l 267 -153 q 263 -149 267 -149 l 33 -149 q 29 -146 29 -149 m 260 153 l 100 -92 q 103 -97 97 -97 l 263 -97 q 267 -93 267 -97 l 267 153 q 260 153 265 157 z "},"₅":{"ha":419,"x_min":31,"x_max":396,"o":"m 353 201 l 125 201 q 119 197 121 201 l 101 58 q 103 53 100 54 q 108 54 106 51 q 219 93 147 93 q 346 41 296 93 q 396 -93 396 -11 q 345 -230 396 -179 q 211 -281 294 -281 q 76 -231 122 -281 q 31 -128 31 -182 q 33 -124 31 -124 l 86 -124 q 90 -128 90 -124 q 122 -197 90 -164 q 211 -229 153 -229 q 301 -192 267 -229 q 335 -93 335 -156 q 301 3 335 -35 q 211 40 267 40 q 96 -17 135 40 q 90 -19 93 -19 l 40 -19 q 36 -15 36 -19 l 69 250 q 76 254 71 254 l 353 254 q 357 250 357 254 l 357 206 q 353 201 357 201 z "},"₆":{"ha":429,"x_min":29,"x_max":400,"o":"m 249 250 l 160 85 q 160 81 158 82 q 165 81 163 79 q 225 93 199 93 q 350 40 300 93 q 400 -94 400 -12 q 351 -229 400 -178 q 214 -281 301 -281 q 78 -229 128 -281 q 29 -94 29 -178 q 57 15 29 -36 l 188 250 q 192 254 189 254 l 246 254 q 249 250 250 254 m 340 -94 q 308 3 340 -33 q 214 40 275 40 q 122 3 154 40 q 89 -94 89 -33 q 122 -193 89 -157 q 214 -229 154 -229 q 308 -193 276 -229 q 340 -94 340 -157 z "},"₇":{"ha":397,"x_min":17,"x_max":356,"o":"m 356 250 l 356 210 q 354 197 356 201 l 175 -269 q 171 -274 172 -274 l 114 -274 q 111 -269 108 -274 l 289 197 q 286 201 292 201 l 21 201 q 17 206 17 201 l 17 250 q 21 254 17 254 l 353 254 q 356 250 356 254 z "},"₈":{"ha":414,"x_min":25,"x_max":381,"o":"m 331 -239 q 307 -260 331 -239 q 203 -281 282 -281 q 74 -239 124 -281 q 25 -131 25 -197 q 54 -46 25 -78 q 113 -4 83 -14 q 114 -2 114 -4 q 113 0 114 0 q 88 13 103 3 q 55 51 74 22 q 36 118 36 81 q 83 222 36 181 q 203 263 129 263 q 323 222 276 263 q 369 118 369 181 q 351 51 369 81 q 317 13 332 22 q 293 0 303 3 q 292 -2 292 0 q 293 -4 292 -4 q 351 -49 322 -17 q 381 -131 381 -82 q 331 -239 381 -197 m 117 -201 q 134 -215 117 -201 q 203 -229 150 -229 q 288 -201 256 -229 q 321 -131 321 -174 q 288 -56 321 -83 q 203 -29 254 -29 q 118 -56 151 -29 q 85 -131 85 -83 q 117 -201 85 -174 m 96 118 q 126 50 96 76 q 203 24 156 24 q 280 50 250 24 q 310 118 310 76 q 280 183 310 157 q 203 210 250 210 q 126 183 156 210 q 96 118 96 157 z "},"₉":{"ha":429,"x_min":28,"x_max":400,"o":"m 181 -269 l 269 -103 q 269 -100 271 -101 q 264 -100 267 -99 q 204 -111 235 -111 q 78 -58 128 -111 q 28 76 28 -6 q 78 210 28 158 q 215 263 129 263 q 351 210 301 263 q 400 76 400 158 q 372 -35 400 21 l 242 -269 q 236 -274 239 -274 l 183 -274 q 181 -269 178 -274 m 89 76 q 122 -23 89 14 q 215 -60 154 -60 q 307 -23 275 -60 q 339 76 339 14 q 307 174 339 138 q 215 210 275 210 q 121 174 153 210 q 89 76 89 138 z "},"₣":{"ha":940,"x_min":69,"x_max":871,"o":"m 278 406 l 313 558 q 304 567 314 567 l 136 567 q 129 574 129 567 l 129 658 q 136 665 129 665 l 328 665 q 338 674 336 665 l 404 954 q 414 964 406 964 l 496 964 q 503 954 504 964 l 438 674 q 446 665 436 665 l 586 665 q 599 674 597 665 l 665 954 q 678 964 668 964 l 750 964 q 757 954 760 964 l 692 674 q 699 665 689 665 l 864 665 q 871 658 871 665 l 871 574 q 864 567 871 567 l 672 567 q 663 558 664 567 l 628 407 q 636 399 626 399 l 801 399 q 808 392 808 399 l 808 307 q 801 300 808 300 l 610 300 q 600 292 603 300 l 538 10 q 528 0 536 0 l 451 0 q 444 10 443 0 l 507 292 q 501 300 508 300 l 357 300 q 347 292 349 300 l 285 10 q 274 0 283 0 l 197 0 q 190 10 189 0 l 251 292 q 244 300 253 300 l 76 300 q 69 307 69 300 l 69 392 q 76 399 69 399 l 269 399 q 278 406 276 399 m 561 567 l 422 567 q 410 558 411 567 l 375 408 q 383 399 372 399 l 522 399 q 532 406 531 399 l 567 558 q 561 567 569 567 z "},"₤":{"ha":940,"x_min":69,"x_max":871,"o":"m 278 406 l 313 558 q 304 567 314 567 l 136 567 q 129 574 129 567 l 129 658 q 136 665 129 665 l 328 665 q 338 674 336 665 l 404 954 q 414 964 406 964 l 496 964 q 503 954 504 964 l 438 674 q 446 665 436 665 l 586 665 q 599 674 597 665 l 665 954 q 678 964 668 964 l 750 964 q 757 954 760 964 l 692 674 q 699 665 689 665 l 864 665 q 871 658 871 665 l 871 574 q 864 567 871 567 l 672 567 q 663 558 664 567 l 628 407 q 636 399 626 399 l 801 399 q 808 392 808 399 l 808 307 q 801 300 808 300 l 610 300 q 600 292 603 300 l 538 10 q 528 0 536 0 l 451 0 q 444 10 443 0 l 507 292 q 501 300 508 300 l 357 300 q 347 292 349 300 l 285 10 q 274 0 283 0 l 197 0 q 190 10 189 0 l 251 292 q 244 300 253 300 l 76 300 q 69 307 69 300 l 69 392 q 76 399 69 399 l 269 399 q 278 406 276 399 m 561 567 l 422 567 q 410 558 411 567 l 375 408 q 383 399 372 399 l 522 399 q 532 406 531 399 l 567 558 q 561 567 569 567 z "},"₧":{"ha":940,"x_min":69,"x_max":871,"o":"m 278 406 l 313 558 q 304 567 314 567 l 136 567 q 129 574 129 567 l 129 658 q 136 665 129 665 l 328 665 q 338 674 336 665 l 404 954 q 414 964 406 964 l 496 964 q 503 954 504 964 l 438 674 q 446 665 436 665 l 586 665 q 599 674 597 665 l 665 954 q 678 964 668 964 l 750 964 q 757 954 760 964 l 692 674 q 699 665 689 665 l 864 665 q 871 658 871 665 l 871 574 q 864 567 871 567 l 672 567 q 663 558 664 567 l 628 407 q 636 399 626 399 l 801 399 q 808 392 808 399 l 808 307 q 801 300 808 300 l 610 300 q 600 292 603 300 l 538 10 q 528 0 536 0 l 451 0 q 444 10 443 0 l 507 292 q 501 300 508 300 l 357 300 q 347 292 349 300 l 285 10 q 274 0 283 0 l 197 0 q 190 10 189 0 l 251 292 q 244 300 253 300 l 76 300 q 69 307 69 300 l 69 392 q 76 399 69 399 l 269 399 q 278 406 276 399 m 561 567 l 422 567 q 410 558 411 567 l 375 408 q 383 399 372 399 l 522 399 q 532 406 531 399 l 567 558 q 561 567 569 567 z "},"€":{"ha":861,"x_min":53,"x_max":792,"o":"m 188 331 q 178 339 186 339 l 63 339 q 56 350 53 339 l 81 433 q 89 440 83 440 l 169 440 q 176 447 176 440 q 176 547 174 494 q 168 556 176 556 l 63 556 q 56 567 53 556 l 81 643 q 93 653 83 653 l 181 653 q 190 660 189 653 q 307 904 219 817 q 540 992 394 992 q 782 890 681 992 q 786 878 788 885 l 758 785 q 752 780 757 781 q 744 785 747 779 q 717 820 738 799 q 647 868 697 842 q 540 894 597 894 q 310 663 357 894 q 317 653 308 653 l 714 653 q 721 651 718 653 q 722 646 724 650 l 701 567 q 689 556 699 556 l 303 556 q 294 547 294 556 q 294 447 292 494 q 301 440 294 440 l 660 440 q 665 433 665 440 l 643 346 q 635 339 640 339 l 313 339 q 306 335 306 339 q 306 331 306 333 q 383 149 324 214 q 540 83 443 83 q 781 265 686 83 q 788 269 783 269 q 792 263 792 268 l 792 121 q 786 106 792 113 q 747 65 774 89 q 660 13 719 40 q 540 -14 601 -14 q 300 77 388 -14 q 188 331 213 168 z "},"™":{"ha":926,"x_min":24,"x_max":868,"o":"m 167 492 l 167 925 q 164 929 167 929 l 26 929 q 24 932 24 929 l 24 974 q 26 978 24 978 l 364 978 q 367 974 367 978 l 367 932 q 364 929 367 929 l 226 929 q 222 925 222 929 l 222 492 q 219 489 222 489 l 171 489 q 167 492 167 489 m 413 978 l 510 978 q 514 974 514 978 l 635 542 q 638 538 636 538 q 642 542 640 538 l 763 974 q 768 978 764 978 l 865 978 q 868 974 868 978 l 868 492 q 865 489 868 489 l 817 489 q 813 492 813 489 l 813 924 q 808 928 813 928 q 806 924 807 926 l 685 492 q 681 489 683 489 l 597 489 q 593 492 593 489 l 471 924 q 465 926 469 929 l 464 924 l 464 492 q 461 489 464 489 l 413 489 q 408 492 408 489 l 408 974 q 413 978 408 978 z "}}}
